<?xml version="1.0" standalone="no"?> <!DOCTYPE svg PUBLIC "-//W3C//DTD SVG 1.0//EN" "http://www.w3.org/TR/2001/REC-SVG-20010904/DTD/svg10.dtd" > <svg xmlns="http://www.w3.org/2000/svg" width="100%" height="100%">
<defs >
<font horiz-adv-x="559" ><font-face
    font-family="Sprint Sans Web"
    units-per-em="1000"
    panose-1="2 11 8 3 3 2 2 6 2 3"
    ascent="823"
    descent="-177"
    alphabetic="0" />
<missing-glyph horiz-adv-x="495" />
<glyph unicode=" " glyph-name="space" horiz-adv-x="202" />
<glyph unicode="!" glyph-name="exclam" horiz-adv-x="308" d="M154 -11Q133 -11 114 -4T81 17T59 48T51 86Q51 106 59 123T81 154T114 175T154 183Q175 183 194 176T227 155T249 124T257 86Q257 66 249 48T227 17T194 -3T154 -11ZM57 715H251L225 232H83L57 715Z" />
<glyph unicode="&quot;" glyph-name="quotedbl" horiz-adv-x="433" d="M31 715H193L173 442H51L31 715ZM239 715H402L382 442H260L239 715Z" />
<glyph unicode="#" glyph-name="numbersign" horiz-adv-x="548" d="M279 244H214L193 99H76L97 244H27V380H117L129 460H51V589H148L167 715H283L265 589H330L349 715H466L447 589H520V460H427L416 380H495V244H395L374 99H257L279 244ZM234 380H299L311 460H246L234
380Z" />
<glyph unicode="$" glyph-name="dollar" horiz-adv-x="623" d="M277 -10Q212 -6 164 13T84 63T34 135T14 225H191Q196 189 213 162T277 126V283Q213 292 167 309T90 353T46 418T31 507Q31 552 48 590T97 656T174 702T277 724V813H353V723Q461 714 522 663T593
509H420Q415 540 401 560T353 588V441Q410 432 456 418T536 378T586 315T604 223Q604 178 589 138T542 66T464 14T353 -10V-125H277V-10ZM426 202Q426 230 411 245T353 270V126Q388 133 407 153T426 202ZM203 521Q203 493 218 478T277 453V590Q240 584 222 566T203
521Z" />
<glyph unicode="%" glyph-name="percent" horiz-adv-x="801" d="M202 466Q231 466 246 487T262 546Q262 582 247 603T202 624Q173 624 157 604T141 546Q141 508 157 487T202 466ZM201 366Q158 366 124 379T65 417T27 474T14 545Q14 583 28 615T68 672T127 709T202
723Q242 723 276 710T335 674T374 618T389 548Q389 509 376 476T338 419T279 380T201 366ZM599 715H696L204 0H108L599 715ZM600 90Q629 90 644 111T660 169Q660 205 645 226T600 247Q571 247 555 227T539 169Q539 131 555 111T600 90ZM599 -12Q555 -12 521 2T462
40T425 97T412 168Q412 206 426 238T466 295T525 332T600 346Q640 346 674 333T733 297T772 242T787 171Q787 132 774 99T736 41T676 2T599 -12Z" />
<glyph unicode="&amp;" glyph-name="ampersand" horiz-adv-x="733" d="M612 146L731 0H509L465 55Q431 26 386 7T271 -12Q215 -12 169 2T91 45T40 112T22 203Q22 273 63 324T180 411Q156 445 145 478T134 538Q134 583 152 618T201 676T273 712T360 724Q402 724
440 713T508 681T554 629T572 558Q572 442 428 381L523 265L578 372H728L612 146ZM300 131Q346 131 377 165L258 307Q235 294 220 275T205 224Q205 182 229 157T300 131ZM303 537Q303 517 314 497T345 453Q383 471 401 493T420 545Q420 570 405 586T364 602Q338
602 321 585T303 537Z" />
<glyph unicode="&apos;" glyph-name="quotesingle" horiz-adv-x="230" d="M31 715H200L179 442H51L31 715Z" />
<glyph unicode="(" glyph-name="parenleft" horiz-adv-x="331" d="M194 -148Q165 -113 136 -68T82 35T43 161T28 313Q28 397 43 466T82 593T135 695T194 776H329Q303 737 279 690T235 585T204 461T192 313Q192 235 204 168T235 43T278 -61T329 -148H194Z" />
<glyph unicode=")" glyph-name="parenright" horiz-adv-x="331" d="M0 -148Q26 -109 50 -61T94 44T126 168T138 315Q138 393 126 460T95 585T51 689T0 776H136Q166 741 195 696T249 593T288 467T303 315Q303 232 288 163T249 36T196 -67T136 -148H0Z" />
<glyph unicode="*" glyph-name="asterisk" horiz-adv-x="416" d="M48 447L136 539L19 553L52 672L162 619L140 743H277L255 619L364 672L398 553L280 539L368 447L265 373L208 489L152 373L48 447Z" />
<glyph unicode="+" glyph-name="plus" horiz-adv-x="543" d="M203 278H26V403H203V596H341V403H518V278H341V85H203V278Z" />
<glyph unicode="," glyph-name="comma" horiz-adv-x="262" d="M39 -37Q115 -30 118 13Q75 15 53 37T30 98Q30 139 59 162T128 186Q173 186 202 157T231 76V60Q231 -24 181 -64T39 -107V-37Z" />
<glyph unicode="-" glyph-name="hyphen" horiz-adv-x="356" d="M40 350H315V219H40V350Z" />
<glyph unicode="." glyph-name="period" horiz-adv-x="275" d="M136 -11Q93 -11 65 17T37 88Q37 129 65 157T136 186Q180 186 209 158T238 88Q238 46 209 18T136 -11Z" />
<glyph unicode="/" glyph-name="slash" horiz-adv-x="409" d="M282 776H420L104 -148H-33L282 776Z" />
<glyph unicode="0" glyph-name="zero" horiz-adv-x="705" d="M355 140Q424 140 453 190T483 344V374Q483 474 452 525T353 577Q222 577 222 373V343Q222 240 254 190T355 140ZM349 -12Q275 -12 216 12T114 81T50 192T27 342V372Q27 456 51 522T119 633T222 701T353
725Q423 725 483 703T586 637T654 528T679 376V347Q679 263 656 196T590 83T486 13T349 -12Z" />
<glyph unicode="1" glyph-name="one" horiz-adv-x="423" d="M159 522L21 436V600L185 715H354V0H159V522Z" />
<glyph unicode="2" glyph-name="two" horiz-adv-x="588" d="M-2 28L250 296Q304 353 335 400T367 494Q367 532 347 555T287 578Q246 578 222 551T190 458H13Q16 524 36 574T93 657T181 708T296 725Q360 725 409 709T492 662T543 591T560 501Q560 428 523 369T424
251L317 146H565V0H-2V28Z" />
<glyph unicode="3" glyph-name="three" horiz-adv-x="626" d="M312 -12Q165 -12 94 53T18 233H192Q197 187 221 159T302 130Q353 130 377 152T401 216Q401 304 303 304H246V427H299Q349 427 373 448T397 509Q397 543 376 563T311 584Q267 584 242 559T211 489H39Q42
541 61 584T115 659T200 707T316 725Q378 725 427 711T510 672T562 610T580 529Q580 469 548 431T460 375Q522 362 560 320T599 212Q599 161 581 120T526 49T436 4T312 -12Z" />
<glyph unicode="4" glyph-name="four" horiz-adv-x="651" d="M357 138H8V211L309 715H545V273H638V138H545V0H357V138ZM362 273V568L195 273H362Z" />
<glyph unicode="5" glyph-name="five" horiz-adv-x="605" d="M294 -12Q224 -12 173 6T87 55T36 129T16 222H194Q197 202 202 187T219 160T248 142T292 136Q339 136 361 166T383 242Q383 293 357 321T282 349Q237 349 208 334T160 297H45L59 715H535V571H201L197
408Q218 437 257 459T363 482Q412 482 452 466T520 419T564 343T580 240Q580 183 560 137T503 57T413 6T294 -12Z" />
<glyph unicode="6" glyph-name="six" horiz-adv-x="647" d="M337 -12Q253 -12 194 14T98 86T44 196T27 336V355Q27 443 51 512T118 628T218 700T344 725Q462 725 530 673T610 517H431Q425 545 408 562T350 580Q290 580 257 530T220 384Q244 421 283 444T389 468Q438
468 481 453T556 409T606 337T625 238Q625 182 606 136T549 57T458 6T337 -12ZM335 127Q380 127 407 157T435 236Q435 284 409 314T335 344Q288 344 261 314T233 239Q233 188 260 158T335 127Z" />
<glyph unicode="7" glyph-name="seven" horiz-adv-x="549" d="M307 557H13V715H552V695L302 0H103L307 557Z" />
<glyph unicode="8" glyph-name="eight" horiz-adv-x="631" d="M315 -12Q249 -12 195 2T103 43T43 110T21 202Q21 265 54 310T151 378Q104 399 78 435T51 526Q51 574 72 611T130 673T214 712T317 725Q372 725 420 712T505 674T562 611T583 527Q583 472 555 436T481
379Q545 357 577 313T610 207Q610 155 589 114T529 45T436 3T315 -12ZM316 126Q361 126 389 151T418 222Q418 267 390 292T317 317Q273 317 244 293T214 222Q214 177 243 152T316 126ZM318 429Q355 429 380 451T405 511Q405 549 380 571T317 593Q280 593 255 571T229
511Q229 473 255 451T318 429Z" />
<glyph unicode="9" glyph-name="nine" horiz-adv-x="648" d="M308 -11Q183 -11 113 43T30 200H210Q216 171 235 153T299 135Q365 135 395 183T427 329Q404 291 367 268T263 244Q212 244 168 259T91 303T41 375T22 475Q22 531 42 577T99 656T190 707T312 726Q390
726 448 701T544 630T601 520T620 378V353Q620 177 540 83T308 -11ZM309 371Q356 371 384 400T413 475Q413 526 385 557T309 588Q264 588 237 557T209 478Q209 431 235 401T309 371Z" />
<glyph unicode=":" glyph-name="colon" horiz-adv-x="281" d="M139 -11Q118 -11 100 -4T69 17T48 49T40 88Q40 108 47 126T68 157T100 178T139 186Q183 186 212 158T241 88Q241 46 212 18T139 -11ZM139 276Q118 276 100 283T69 304T48 335T40 374Q40 395 47 412T68
443T100 464T139 472Q183 472 212 444T241 374Q241 332 212 304T139 276Z" />
<glyph unicode=";" glyph-name="semicolon" horiz-adv-x="268" d="M42 -37Q118 -30 121 13Q78 15 56 37T34 98Q34 139 62 162T131 186Q176 186 205 157T235 76V60Q235 -24 184 -64T42 -107V-37ZM133 276Q90 276 62 304T34 374Q34 415 62 443T133 472Q177 472 206
444T235 374Q235 332 206 304T133 276Z" />
<glyph unicode="&lt;" glyph-name="less" horiz-adv-x="490" d="M32 306V338L450 582V427L254 323L450 214V62L32 306Z" />
<glyph unicode="=" glyph-name="equal" horiz-adv-x="529" d="M28 287H501V169H28V287ZM28 483H501V364H28V483Z" />
<glyph unicode="&gt;" glyph-name="greater" horiz-adv-x="490" d="M39 219L236 322L39 431V583L458 339V306L39 63V219Z" />
<glyph unicode="?" glyph-name="question" horiz-adv-x="528" d="M159 254Q159 282 168 306T191 350T222 388T257 423Q283 448 303 472T323 523Q323 553 307 569T258 586Q223 586 202 562T175 495H8Q10 550 30 593T84 665T166 710T271 725Q386 725 447 676T508
539Q508 489 486 453T433 387Q415 369 396 353T361 320T334 286T320 250V232H159V254ZM240 -11Q196 -11 166 17T135 86Q135 106 143 123T165 154T199 175T240 183Q261 183 279 176T312 155T334 124T342 86Q342 66 334 48T312 17T280 -3T240 -11Z" />
<glyph unicode="@" glyph-name="at" horiz-adv-x="898" d="M449 -157Q348 -157 268 -125T133 -37T48 93T18 252Q18 351 55 431T154 570T298 659T467 691Q556 691 631 665T762 591T848 476T879 327Q879 252 861 200T812 116T743 68T665 53Q600 53 566 74T521 136Q501
96 468 74T386 51Q312 51 268 100T223 236Q223 288 238 331T281 406T344 454T421 471Q468 471 494 453T531 410L538 463H680L646 191Q638 124 690 124Q711 124 730 135T765 171T790 234T800 328Q800 394 777 448T710 540T606 600T469 621Q392 621 325 595T209 521T131
405T102 251Q102 180 124 118T190 11T299 -61T452 -88Q540 -88 604 -62T708 0H798Q774 -36 738 -65T656 -114T559 -146T449 -157ZM431 163Q466 163 490 196T515 284Q515 319 498 339T448 359Q413 359 391 327T368 240Q368 207 384 185T431 163Z" />
<glyph unicode="A" glyph-name="A" horiz-adv-x="719" d="M234 715H487L715 0H509L468 139H226L186 0H4L234 715ZM265 274H429L348 557L265 274Z" />
<glyph unicode="B" glyph-name="B" horiz-adv-x="655" d="M59 715H370Q432 715 477 702T552 665T596 606T610 528V524Q610 403 490 370Q558 359 595 319T633 203V199Q633 102 570 51T375 0H59V715ZM341 131Q392 131 416 153T441 218V222Q441 265 417 286T335 308H250V131H341ZM332
429Q383 429 404 447T425 506V510Q425 549 403 566T332 584H250V429H332Z" />
<glyph unicode="C" glyph-name="C" horiz-adv-x="738" d="M395 -12Q303 -12 234 14T118 88T48 203T25 353V361Q25 443 52 510T128 626T243 700T388 726Q457 726 514 710T615 661T684 576T717 454H516Q509 511 478 541T389 571Q316 571 274 517T231 362V354Q231
254 272 200T392 145Q449 145 486 174T531 266H725Q720 197 694 145T624 58T522 6T395 -12Z" />
<glyph unicode="D" glyph-name="D" horiz-adv-x="719" d="M307 151Q403 151 447 201T491 355V363Q491 467 447 515T305 564H256V151H307ZM59 715H314Q504 715 599 623T695 366V358Q695 275 671 209T598 97T479 25T313 0H59V715Z" />
<glyph unicode="E" glyph-name="E" horiz-adv-x="586" d="M59 715H547V564H254V431H488V291H254V151H563V0H59V715Z" />
<glyph unicode="F" glyph-name="F" horiz-adv-x="554" d="M59 715H537V563H256V403H480V258H256V0H59V715Z" />
<glyph unicode="G" glyph-name="G" horiz-adv-x="768" d="M397 -12Q307 -12 237 15T120 90T49 206T24 353V361Q24 442 52 509T130 625T248 699T397 726Q460 726 517 711T619 665T692 584T727 466H533Q517 572 398 572Q318 572 273 515T228 358V350Q228 305 237
266T267 199T321 154T403 137Q442 137 469 146T514 172T540 210T551 255H411V392H744V307Q744 238 722 180T656 79T547 12T397 -12Z" />
<glyph unicode="H" glyph-name="H" horiz-adv-x="757" d="M59 715H256V438H502V715H698V0H502V285H256V0H59V715Z" />
<glyph unicode="I" glyph-name="I" horiz-adv-x="324" d="M64 715H261V0H64V715Z" />
<glyph unicode="J" glyph-name="J" horiz-adv-x="451" d="M150 -9Q100 -9 72 -3T22 15V161Q40 155 59 151T110 147Q153 147 179 169T205 249V715H401V246Q401 118 337 55T150 -9Z" />
<glyph unicode="K" glyph-name="K" horiz-adv-x="695" d="M59 715H256V427L479 715H683L417 382L697 0H471L256 303V0H59V715Z" />
<glyph unicode="L" glyph-name="L" horiz-adv-x="549" d="M59 715H256V152H530V0H59V715Z" />
<glyph unicode="M" glyph-name="M" horiz-adv-x="913" d="M59 715H315L458 320L602 715H852V0H658V458L478 0H413L234 458V0H59V715Z" />
<glyph unicode="N" glyph-name="N" horiz-adv-x="750" d="M59 715H281L520 297V715H691V0H501L232 462V0H59V715Z" />
<glyph unicode="O" glyph-name="O" horiz-adv-x="801" d="M401 142Q481 142 527 198T573 355V363Q573 461 527 516T400 572Q320 572 274 517T228 362V354Q228 304 240 265T276 198T330 157T401 142ZM398 -12Q312 -12 243 15T125 90T50 206T24 353V361Q24 442 53
509T132 624T251 698T400 725Q482 725 551 700T670 628T748 515T777 366V358Q777 276 750 208T674 91T554 15T398 -12Z" />
<glyph unicode="P" glyph-name="P" horiz-adv-x="624" d="M59 715H326Q470 715 540 654T610 478V474Q610 361 538 303T334 245H254V0H59V715ZM318 379Q424 379 424 473V477Q424 526 397 547T319 568H254V379H318Z" />
<glyph unicode="Q" glyph-name="Q" horiz-adv-x="801" d="M495 -2Q472 -7 448 -9T398 -12Q312 -12 243 15T125 90T50 206T24 353V361Q24 442 53 509T132 624T251 698T400 725Q482 725 551 700T670 628T748 515T777 366V358Q777 264 742 190T644 65L717 -9L608
-118L495 -2ZM228 354Q228 264 261 212T352 143L343 153L456 257L523 189Q547 217 560 258T573 355V363Q573 461 527 516T400 572Q320 572 274 517T228 362V354Z" />
<glyph unicode="R" glyph-name="R" horiz-adv-x="669" d="M59 715H334Q472 715 547 660T622 490V486Q622 409 585 364T489 298L664 0H457L307 260H254V0H59V715ZM326 388Q433 388 433 479V483Q433 529 406 548T326 568H254V388H326Z" />
<glyph unicode="S" glyph-name="S" horiz-adv-x="623" d="M319 -12Q169 -12 94 49T14 226H200Q202 206 208 189T227 158T263 136T319 128Q366 128 391 149T417 204Q417 222 411 234T392 254T356 268T299 279Q225 288 174 304T91 347T45 412T31 504Q31 552 50 592T104
662T191 708T305 725Q433 725 503 671T584 504H403Q391 585 305 585Q260 585 238 567T216 520Q216 504 221 492T239 471T274 456T332 445Q399 437 450 424T535 385T586 320T604 224Q604 175 585 132T530 57T440 7T319 -12Z" />
<glyph unicode="T" glyph-name="T" horiz-adv-x="591" d="M197 564H10V715H581V564H394V0H197V564Z" />
<glyph unicode="U" glyph-name="U" horiz-adv-x="736" d="M367 -12Q217 -12 136 63T54 288V715H250V297Q250 258 255 229T274 180T310 152T367 142Q432 142 458 179T484 301V715H682V291Q682 137 598 63T367 -12Z" />
<glyph unicode="V" glyph-name="V" horiz-adv-x="700" d="M2 715H212L363 203L514 715H697L462 0H240L2 715Z" />
<glyph unicode="W" glyph-name="W" horiz-adv-x="968" d="M4 715H202L298 259L400 715H572L681 255L782 715H964L795 0H592L478 463L362 0H172L4 715Z" />
<glyph unicode="X" glyph-name="X" horiz-adv-x="725" d="M235 368L30 715H252L369 497L484 715H685L490 374L712 0H489L351 250L214 0H13L235 368Z" />
<glyph unicode="Y" glyph-name="Y" horiz-adv-x="648" d="M231 306L-2 715H211L337 467L463 715H650L428 306V0H231V306Z" />
<glyph unicode="Z" glyph-name="Z" horiz-adv-x="602" d="M3 22L315 565H42V715H592V694L285 151H578V0H3V22Z" />
<glyph unicode="[" glyph-name="bracketleft" horiz-adv-x="382" d="M57 776H355V650H229V-22H355V-148H57V776Z" />
<glyph unicode="\" glyph-name="backslash" horiz-adv-x="409" d="M-11 776H127L442 -148H305L-11 776Z" />
<glyph unicode="]" glyph-name="bracketright" horiz-adv-x="382" d="M28 -22H154V650H28V776H326V-148H28V-22Z" />
<glyph unicode="^" glyph-name="asciicircum" horiz-adv-x="507" d="M178 715H329L493 394H346L252 575L158 394H13L178 715Z" />
<glyph unicode="_" glyph-name="underscore" horiz-adv-x="408" d="M-12 -76H421V-161H-12V-76Z" />
<glyph unicode="`" glyph-name="grave" horiz-adv-x="400" d="M41 750H215L268 585H146L41 750Z" />
<glyph unicode="a" glyph-name="a" horiz-adv-x="575" d="M197 -12Q161 -12 128 -3T70 25T30 75T15 149Q15 197 34 230T91 285T181 315T301 325H353V338Q353 376 339 399T281 423Q243 423 227 404T208 359H35Q38 408 58 444T112 505T192 541T293 553Q348 553 393
541T470 505T519 442T536 349V0H357V63Q347 48 333 35T300 11T255 -6T197 -12ZM261 112Q300 112 326 132T353 188V221H304Q248 221 223 209T197 163Q197 140 213 126T261 112Z" />
<glyph unicode="b" glyph-name="b" horiz-adv-x="642" d="M395 -12Q334 -12 291 14T228 83V0H44V746H228V458Q251 497 292 525T396 553Q443 553 484 536T556 483T605 395T623 274V266Q623 196 605 144T557 58T485 6T395 -12ZM330 129Q382 129 409 164T436 266V274Q436
346 408 380T330 414Q279 414 251 379T223 275V267Q223 198 251 164T330 129Z" />
<glyph unicode="c" glyph-name="c" horiz-adv-x="582" d="M300 -12Q240 -12 188 5T98 57T39 143T17 263V271Q17 338 39 390T101 479T192 534T304 553Q353 553 399 542T482 504T541 435T568 332H395Q389 370 369 390T308 410Q259 410 232 376T205 273V265Q205 123
311 123Q350 123 375 145T405 212H571Q567 110 499 49T300 -12Z" />
<glyph unicode="d" glyph-name="d" horiz-adv-x="641" d="M245 -12Q198 -12 157 5T86 56T37 142T19 264V272Q19 341 37 393T85 481T157 535T247 553Q311 553 350 529T413 462V746H598V0H413V88Q393 46 350 17T245 -12ZM310 129Q361 129 389 163T418 267V275Q418
344 391 379T312 414Q206 414 206 274V266Q206 197 234 163T310 129Z" />
<glyph unicode="e" glyph-name="e" horiz-adv-x="598" d="M309 -12Q246 -12 193 6T100 59T39 146T17 263V271Q17 336 39 388T101 477T194 533T308 553Q363 553 413 537T500 487T560 401T582 275V227H203Q207 173 236 144T315 114Q361 114 382 132T409 178H582Q570
87 501 38T309 -12ZM403 331Q401 380 377 406T308 432Q266 432 240 406T205 331H403Z" />
<glyph unicode="f" glyph-name="f" horiz-adv-x="376" d="M71 413H3V539H71V556Q71 656 129 705T283 754Q309 754 328 751T367 743V613Q357 616 345 618T317 620Q284 620 270 604T255 561V539H364V413H255V0H71V413Z" />
<glyph unicode="g" glyph-name="g" horiz-adv-x="640" d="M298 -186Q229 -186 179 -172T94 -132T40 -73T16 0H199Q204 -23 226 -39T298 -56Q359 -56 385 -27T412 54V126Q391 87 349 57T245 27Q198 27 157 44T84 94T35 175T17 285V294Q17 353 35 401T84 482T156
534T245 553Q310 553 349 529T412 462V539H597V56Q597 -65 521 -125T298 -186ZM310 163Q360 163 388 196T417 286V294Q417 350 390 382T311 415Q259 415 232 382T205 293V284Q205 228 232 196T310 163Z" />
<glyph unicode="h" glyph-name="h" horiz-adv-x="621" d="M44 746H228V452Q250 494 294 523T405 553Q483 553 532 504T581 350V0H397V313Q397 404 320 404Q278 404 253 379T228 302V0H44V746Z" />
<glyph unicode="i" glyph-name="i" horiz-adv-x="282" d="M49 539H233V0H49V539ZM140 574Q98 574 70 600T42 667Q42 708 70 734T140 761Q183 761 211 735T240 667Q240 626 212 600T140 574Z" />
<glyph unicode="j" glyph-name="j" horiz-adv-x="282" d="M140 574Q98 574 70 600T42 667Q42 708 70 734T140 761Q183 761 211 735T240 667Q240 626 212 600T140 574ZM-17 -46Q17 -44 33 -29T49 18V539H232V14Q232 -30 221 -65T181 -126T104 -166T-17 -180V-46Z" />
<glyph unicode="k" glyph-name="k" horiz-adv-x="572" d="M228 325L373 539H565L389 297L579 0H373L228 236V0H44V746H228V325Z" />
<glyph unicode="l" glyph-name="l" horiz-adv-x="281" d="M49 746H232V0H49V746Z" />
<glyph unicode="m" glyph-name="m" horiz-adv-x="937" d="M44 539H228V456Q250 495 292 524T397 553Q503 553 543 464Q578 511 624 532T721 553Q759 553 791 541T847 503T884 441T897 352V0H713V321Q713 363 695 383T644 403Q607 403 585 380T562 312V0H379V321Q379
363 361 383T310 403Q273 403 251 380T228 312V0H44V539Z" />
<glyph unicode="n" glyph-name="n" horiz-adv-x="621" d="M44 539H228V452Q250 494 294 523T405 553Q483 553 532 504T581 350V0H397V313Q397 404 320 404Q278 404 253 379T228 302V0H44V539Z" />
<glyph unicode="o" glyph-name="o" horiz-adv-x="623" d="M312 125Q364 125 391 161T418 266V274Q418 343 392 379T312 415Q260 415 233 380T205 276V268Q205 198 231 162T312 125ZM311 -12Q249 -12 196 6T102 60T40 146T17 263V271Q17 336 39 388T102 477T196
533T312 553Q374 553 428 534T521 479T583 392T606 276V268Q606 202 583 150T521 62T427 7T311 -12Z" />
<glyph unicode="p" glyph-name="p" horiz-adv-x="642" d="M44 539H228V458Q251 497 292 525T396 553Q443 553 484 536T556 483T605 395T623 274V266Q623 196 605 144T557 58T485 6T395 -12Q333 -12 291 13T228 79V-177H44V539ZM330 129Q382 129 409 164T436 266V274Q436
346 408 380T330 414Q279 414 251 379T223 275V267Q223 198 251 164T330 129Z" />
<glyph unicode="q" glyph-name="q" horiz-adv-x="641" d="M413 83Q393 45 350 17T245 -12Q198 -12 157 5T86 56T37 142T19 264V272Q19 341 37 393T85 481T157 535T247 553Q311 553 350 529T413 462V539H598V-177H413V83ZM310 129Q361 129 389 163T418 267V275Q418
344 391 379T312 414Q206 414 206 274V266Q206 197 234 163T310 129Z" />
<glyph unicode="r" glyph-name="r" horiz-adv-x="423" d="M44 539H228V432Q254 492 296 519T402 546V374Q317 376 273 349T228 255V0H44V539Z" />
<glyph unicode="s" glyph-name="s" horiz-adv-x="511" d="M257 -12Q141 -12 77 34T10 171H179Q184 142 200 126T256 110Q290 110 306 122T322 155Q322 174 300 184T222 203Q168 210 129 222T66 254T29 304T17 376Q17 421 35 454T85 509T158 542T247 553Q297 553
338 544T411 515T461 461T485 379H319Q313 406 298 419T250 433Q219 433 204 421T189 390Q189 371 209 362T279 346Q335 339 377 328T446 296T487 246T501 173Q501 77 435 33T257 -12Z" />
<glyph unicode="t" glyph-name="t" horiz-adv-x="381" d="M260 -12Q168 -12 119 32T70 173V413H5V539H70V671H255V539H361V413H255V191Q255 161 269 148T309 134Q325 134 337 136T362 143V3Q344 -2 318 -7T260 -12Z" />
<glyph unicode="u" glyph-name="u" horiz-adv-x="620" d="M221 -12Q182 -12 149 0T91 37T53 99T39 187V539H224V217Q224 127 300 127Q342 127 367 152T392 229V539H576V0H392V83Q370 41 329 15T221 -12Z" />
<glyph unicode="v" glyph-name="v" horiz-adv-x="589" d="M-3 539H194L306 192L416 539H593L396 0H195L-3 539Z" />
<glyph unicode="w" glyph-name="w" horiz-adv-x="848" d="M-2 539H191L269 216L360 539H508L588 216L676 539H851L680 0H504L424 301L340 0H161L-2 539Z" />
<glyph unicode="x" glyph-name="x" horiz-adv-x="596" d="M180 274L12 539H224L307 397L389 539H578L408 288L595 0H382L287 161L189 0H0L180 274Z" />
<glyph unicode="y" glyph-name="y" horiz-adv-x="585" d="M213 55L-3 539H197L308 251L411 539H587L300 -177H124L213 55Z" />
<glyph unicode="z" glyph-name="z" horiz-adv-x="501" d="M-1 19L235 400H24V539H499V519L257 139H486V0H-1V19Z" />
<glyph unicode="{" glyph-name="braceleft" horiz-adv-x="393" d="M365 -148Q216 -148 150 -94T104 81L119 168Q125 204 102 230T20 256V376Q80 376 102 401T119 462L104 547Q84 671 150 723T365 776V652Q336 650 317 645T286 629T272 598T273 551L286 450Q294
399 266 365T184 317Q238 304 266 269T286 183L273 80Q265 24 285 2T365 -22V-148Z" />
<glyph unicode="|" glyph-name="bar" horiz-adv-x="244" d="M62 776H182V-148H62V776Z" />
<glyph unicode="}" glyph-name="braceright" horiz-adv-x="393" d="M27 -22Q86 -21 106 1T120 80L106 183Q99 234 126 269T209 317Q154 330 127 364T106 450L120 551Q127 607 107 628T27 652V776Q101 776 155 764T242 724T287 653T289 547L273 462Q267 426 289
401T372 376V256Q313 256 290 230T273 168L289 81Q309 -39 243 -93T27 -148V-22Z" />
<glyph unicode="~" glyph-name="asciitilde" horiz-adv-x="490" d="M18 215Q21 267 34 303T67 363T111 396T163 407Q190 407 212 400T252 385T286 370T315 363Q354 363 360 409H472Q470 361 458 325T425 265T380 229T329 217Q301 217 279 224T238 239T204 254T176
261Q156 261 145 249T130 215H18Z" />
<glyph unicode="&#xa0;" glyph-name="uni00A0" horiz-adv-x="260" />
<glyph unicode="&#xa1;" glyph-name="exclamdown" horiz-adv-x="308" d="M83 366H224L250 -117H57L83 366ZM154 415Q133 415 114 422T81 443T58 474T50 512Q50 532 58 550T80 581T114 601T154 609Q175 609 194 602T227 581T249 550T257 512Q257 492 249 475T227
444T194 423T154 415Z" />
<glyph unicode="&#xa2;" glyph-name="cent" horiz-adv-x="582" d="M346 551Q389 546 428 532T498 492T548 426T571 332H398Q391 400 346 416V116Q398 135 405 212H571Q567 118 511 60T346 -10V-125H269V-11Q214 -7 168 12T89 66T36 150T17 263V271Q17 333 36 382T90
467T170 524T269 551V639H346V551ZM205 265Q205 196 221 162T269 117V415Q238 404 222 370T205 273V265Z" />
<glyph unicode="&#xa3;" glyph-name="sterling" horiz-adv-x="630" d="M24 405H76Q71 426 68 449T64 498Q64 552 85 594T142 666T227 710T334 725Q402 725 451 708T534 660T583 586T603 488H425Q418 534 399 556T341 578Q303 578 280 554T257 488Q257 466 259
446T265 405H445V289H285Q287 274 288 259T290 227Q290 210 287 196T279 168Q308 160 332 152T377 143Q406 143 423 157T442 204H617Q615 158 601 119T562 52T499 7T414 -9Q376 -9 346 -1T290 17T243 35T203 44Q179 44 167 31T153 0H8Q10 28 17 54T38 103T70 144T114
172Q122 196 122 227Q122 257 113 289H24V405Z" />
<glyph unicode="&#xa5;" glyph-name="yen" horiz-adv-x="618" d="M54 363H194L1 715H213L323 475L431 715H617L433 363H575V293H412V240H575V169H412V0H217V169H54V240H217V293H54V363Z" />
<glyph unicode="&#xa6;" glyph-name="brokenbar" horiz-adv-x="247" d="M62 301H182V-148H62V301ZM62 776H182V372H62V776Z" />
<glyph unicode="&#xa7;" glyph-name="section" horiz-adv-x="578" d="M279 -137Q176 -137 120 -89T59 44H216Q218 15 233 -2T282 -20Q314 -20 329 -7T344 29Q344 41 339 50T321 66T287 80T234 95Q184 107 143 122T73 160T28 214T12 289Q12 340 41 374T121 426Q74
471 74 543Q74 585 91 618T138 676T209 712T299 725Q402 725 457 677T516 544H361Q358 573 344 589T296 606Q264 606 250 592T235 557Q235 544 240 535T257 519T289 505T342 490Q391 478 432 464T504 428T550 375T567 297Q567 248 538 214T459 159Q504 114 504
43Q504 3 488 -30T442 -87T371 -124T279 -137ZM353 221Q379 227 390 239T401 272Q401 285 395 294T377 311T346 325T300 340L226 363Q178 355 178 312Q178 288 203 275T280 246L353 221Z" />
<glyph unicode="&#xa8;" glyph-name="dieresis" horiz-adv-x="400" d="M94 584Q59 584 36 607T12 665Q12 699 35 722T94 746Q129 746 153 723T177 665Q177 631 153 608T94 584ZM305 584Q270 584 247 607T223 665Q223 699 246 722T305 746Q340 746 364 723T388
665Q388 631 364 608T305 584Z" />
<glyph unicode="&#xa9;" glyph-name="copyright" horiz-adv-x="821" d="M416 151Q310 151 258 206T206 354V362Q206 408 221 445T265 509T330 549T413 564Q491 564 542 527T599 408H475Q469 469 413 469Q375 469 355 442T334 362V355Q334 302 354 275T415 247Q443
247 462 262T485 310H604Q599 232 547 192T416 151ZM409 31Q475 31 533 54T636 121T706 225T732 359Q732 431 707 491T639 594T537 660T411 684Q343 684 285 660T183 593T114 490T89 357Q89 283 114 223T183 121T285 55T409 31ZM409 -19Q330 -19 261 10T139 89T57
208T27 357Q27 436 57 504T139 624T261 704T411 734Q492 734 562 705T683 625T764 506T793 359Q793 279 763 210T682 90T560 10T409 -19Z" />
<glyph unicode="&#xaa;" glyph-name="ordfeminine" horiz-adv-x="455" d="M157 287Q129 287 104 294T59 316T28 356T16 413Q16 486 72 515T235 545H277V561Q277 587 267 602T226 618Q200 618 188 604T174 572H31Q36 646 90 684T234 723Q325 723 376 686T427 566V298H280V345Q266
324 237 306T157 287ZM211 390Q240 390 258 404T277 443V468H239Q165 468 165 426Q165 390 211 390Z" />
<glyph unicode="&#xab;" glyph-name="guillemotleft" horiz-adv-x="459" d="M22 261L146 451H259L139 261L259 71H146L22 261ZM202 261L326 451H439L319 261L439 71H326L202 261Z" />
<glyph unicode="&#xae;" glyph-name="registered" horiz-adv-x="494" d="M162 615H251Q342 615 342 544V543Q342 520 332 507T304 485L355 396H285L244 472H231V396H162V615ZM247 516Q275 516 275 540V541Q275 563 247 563H231V516H247ZM247 319Q286 319 320 332T379
370T418 428T432 503Q432 543 419 577T380 635T321 673T247 687Q206 687 173 674T114 635T76 576T62 502Q62 461 76 428T115 370T174 333T247 319ZM247 281Q199 281 158 298T85 344T36 414T18 502Q18 548 36 589T84 660T157 707T247 725Q295 725 337 708T410 660T458
590T476 503Q476 456 458 416T409 345T337 298T247 281Z" />
<glyph unicode="&#xaf;" glyph-name="macron" horiz-adv-x="400" d="M48 712H351V615H48V712Z" />
<glyph unicode="&#xb0;" glyph-name="degree" horiz-adv-x="428" d="M215 452Q255 452 280 481T306 552Q306 597 281 626T215 655Q174 655 148 626T122 552Q122 510 148 481T215 452ZM215 383Q178 383 146 396T90 433T53 487T39 552Q39 587 52 618T90 673T146
710T215 724Q251 724 283 711T338 674T376 619T390 552Q390 518 376 488T339 434T283 397T215 383Z" />
<glyph unicode="&#xb1;" glyph-name="plusminus" horiz-adv-x="543" d="M203 340H26V466H203V631H341V466H518V340H341V174H203V340ZM26 114H520V0H26V114Z" />
<glyph unicode="&#xb2;" glyph-name="twosuperior" horiz-adv-x="325" d="M-6 358L122 491Q153 523 171 546T189 593Q189 627 156 627Q121 627 115 573H-1Q2 646 45 683T162 720Q239 720 276 686T314 601Q314 563 293 532T238 470L200 433H315V342H-6V358Z" />
<glyph unicode="&#xb3;" glyph-name="threesuperior" horiz-adv-x="346" d="M172 335Q86 335 48 372T7 467H119Q121 448 131 436T165 424Q206 424 206 459Q206 495 160 495H130V567H160Q185 567 195 576T206 602Q206 616 197 624T171 632Q133 632 127 593H15Q20
649 59 684T173 720Q245 720 285 693T326 617Q326 585 309 565T259 536Q293 531 313 510T334 454Q334 400 294 368T172 335Z" />
<glyph unicode="&#xb4;" glyph-name="acute" horiz-adv-x="400" d="M185 750H359L254 585H132L185 750Z" />
<glyph unicode="&#xb6;" glyph-name="paragraph" horiz-adv-x="531" d="M246 330H238Q138 330 78 377T18 519Q18 568 34 605T79 666T149 703T238 715H471V-100H395V652H321V-100H246V330Z" />
<glyph unicode="&#xb7;" glyph-name="periodcentered" horiz-adv-x="275" d="M136 228Q93 228 65 256T37 326Q37 367 65 395T136 424Q180 424 209 396T238 326Q238 285 209 257T136 228Z" />
<glyph unicode="&#xb8;" glyph-name="cedilla" horiz-adv-x="400" d="M204 -225Q150 -225 118 -202T79 -133H161Q164 -144 172 -152T198 -161Q213 -161 221 -153T230 -131Q230 -117 222 -109T197 -100Q185 -100 178 -103T165 -110L127 -73L174 0H245L214 -46Q235
-44 255 -48T290 -62T315 -90T324 -131Q324 -176 291 -200T204 -225Z" />
<glyph unicode="&#xb9;" glyph-name="onesuperior" horiz-adv-x="259" d="M91 592L9 545V648L110 715H220V342H91V592Z" />
<glyph unicode="&#xba;" glyph-name="ordmasculine" horiz-adv-x="497" d="M250 400Q324 400 324 503V509Q324 559 306 585T250 611Q213 611 193 586T173 511V505Q173 400 250 400ZM249 287Q200 287 158 301T85 342T37 408T19 499V505Q19 556 36 596T85 665T158
708T250 723Q298 723 339 709T412 667T460 600T478 510V504Q478 453 460 413T412 345T339 302T249 287Z" />
<glyph unicode="&#xbb;" glyph-name="guillemotright" horiz-adv-x="459" d="M141 261L20 451H133L258 261L133 71H20L141 261ZM321 261L200 451H313L438 261L313 71H200L321 261Z" />
<glyph unicode="&#xbc;" glyph-name="onequarter" horiz-adv-x="752" d="M94 592L12 545V648L113 715H223V342H94V592ZM610 715H701L146 0H54L610 715ZM581 70H395V117L551 373H704V154H752V70H704V0H581V70ZM585 154V288L506 154H585Z" />
<glyph unicode="&#xbd;" glyph-name="onehalf" horiz-adv-x="763" d="M597 715H688L133 0H41L597 715ZM94 592L12 545V648L113 715H223V342H94V592ZM439 17L567 150Q598 181 616 204T634 250Q634 285 601 285Q584 285 574 273T560 231H444Q447 304 490 341T607
378Q684 378 721 344T759 260Q759 221 738 190T683 128L645 91H760V0H439V17Z" />
<glyph unicode="&#xbe;" glyph-name="threequarters" horiz-adv-x="781" d="M175 335Q89 335 51 372T10 467H122Q124 448 134 436T168 424Q209 424 209 459Q209 495 163 495H133V567H163Q188 567 198 576T209 602Q209 616 200 624T174 632Q136 632 130 593H18Q23
649 62 684T176 720Q248 720 288 693T329 617Q329 585 312 565T262 536Q296 531 316 510T337 454Q337 400 297 368T175 335ZM657 715H748L193 0H101L657 715ZM607 70H421V117L577 373H730V154H778V70H730V0H607V70ZM611 154V288L532 154H611Z" />
<glyph unicode="&#xbf;" glyph-name="questiondown" horiz-adv-x="528" d="M370 345Q370 316 361 292T338 248T307 210T272 176Q246 151 226 127T206 76Q206 46 222 30T270 13Q305 13 327 37T354 104H520Q518 48 498 5T444 -67T362 -112T258 -127Q143 -127 82
-78T20 60Q20 110 42 145T95 212Q114 230 132 246T167 279T194 313T208 349V367H370V345ZM290 609Q334 609 363 582T393 513Q393 472 364 444T290 416Q246 416 216 444T186 513Q186 554 216 581T290 609Z" />
<glyph unicode="&#xc0;" glyph-name="Agrave" horiz-adv-x="719" d="M234 715H487L715 0H509L468 139H226L186 0H4L234 715ZM265 274H429L348 557L265 274ZM201 904H380L430 760H301L201 904Z" />
<glyph unicode="&#xc1;" glyph-name="Aacute" horiz-adv-x="719" d="M234 715H487L715 0H509L468 139H226L186 0H4L234 715ZM265 274H429L348 557L265 274ZM336 904H516L413 760H284L336 904Z" />
<glyph unicode="&#xc2;" glyph-name="Acircumflex" horiz-adv-x="719" d="M234 715H487L715 0H509L468 139H226L186 0H4L234 715ZM265 274H429L348 557L265 274ZM287 904H431L541 760H416L355 810L295 760H173L287 904Z" />
<glyph unicode="&#xc3;" glyph-name="Atilde" horiz-adv-x="719" d="M234 715H487L715 0H509L468 139H226L186 0H4L234 715ZM265 274H429L348 557L265 274ZM421 759Q400 759 383 764T352 776T326 788T302 794Q290 794 282 785T270 760H172Q177 836 211 873T292
910Q312 910 328 905T359 893T387 882T412 876Q426 876 433 885T445 909H542Q539 871 528 843T501 796T464 768T421 759Z" />
<glyph unicode="&#xc4;" glyph-name="Adieresis" horiz-adv-x="719" d="M234 715H487L715 0H509L468 139H226L186 0H4L234 715ZM265 274H429L348 557L265 274ZM246 760Q211 760 187 783T163 841Q163 876 187 899T246 923Q281 923 305 900T329 841Q329 807 305
784T246 760ZM467 760Q432 760 409 783T385 841Q385 876 408 899T467 923Q502 923 526 900T551 841Q551 807 527 784T467 760Z" />
<glyph unicode="&#xc5;" glyph-name="Aring" horiz-adv-x="719" d="M234 715H487L715 0H509L468 139H226L186 0H4L234 715ZM265 274H429L348 557L265 274ZM357 810Q377 810 390 824T404 860Q404 883 391 897T357 912Q336 912 323 898T310 860Q310 838 323 824T357
810ZM357 745Q333 745 311 754T273 779T248 816T238 860Q238 884 247 905T273 941T311 966T357 975Q381 975 403 966T441 942T466 905T476 860Q476 837 467 816T441 779T403 754T357 745Z" />
<glyph unicode="&#xc6;" glyph-name="AE" horiz-adv-x="975" d="M326 715H938V564H651V431H877V291H651V151H954V0H455V151H254L188 0H1L326 715ZM311 283H455V564H435L311 283Z" />
<glyph unicode="&#xc7;" glyph-name="Ccedilla" horiz-adv-x="738" d="M363 -225Q309 -225 277 -202T238 -133H320Q323 -144 331 -152T357 -161Q372 -161 380 -153T389 -131Q389 -117 381 -109T356 -100Q344 -100 337 -103T324 -110L286 -73L328 -8Q252 1 196
31T101 107T44 216T25 353V361Q25 443 52 510T128 626T243 700T388 726Q457 726 514 710T615 661T684 576T717 454H516Q509 511 478 541T389 571Q316 571 274 517T231 362V354Q231 254 272 200T392 145Q449 145 486 174T531 266H725Q720 197 694 145T624 58T522
6T396 -12L373 -46Q394 -44 414 -48T449 -62T474 -90T483 -131Q483 -176 450 -200T363 -225Z" />
<glyph unicode="&#xc8;" glyph-name="Egrave" horiz-adv-x="586" d="M154 904H333L383 760H254L154 904ZM59 715H547V564H254V431H488V291H254V151H563V0H59V715Z" />
<glyph unicode="&#xc9;" glyph-name="Eacute" horiz-adv-x="586" d="M289 904H469L366 760H237L289 904ZM59 715H547V564H254V431H488V291H254V151H563V0H59V715Z" />
<glyph unicode="&#xca;" glyph-name="Ecircumflex" horiz-adv-x="586" d="M240 904H384L494 760H369L308 810L248 760H126L240 904ZM59 715H547V564H254V431H488V291H254V151H563V0H59V715Z" />
<glyph unicode="&#xcb;" glyph-name="Edieresis" horiz-adv-x="586" d="M59 715H547V564H254V431H488V291H254V151H563V0H59V715ZM199 760Q164 760 140 783T116 841Q116 876 140 899T199 923Q234 923 258 900T282 841Q282 807 258 784T199 760ZM420 760Q385 760
362 783T338 841Q338 876 361 899T420 923Q455 923 479 900T504 841Q504 807 480 784T420 760Z" />
<glyph unicode="&#xcc;" glyph-name="Igrave" horiz-adv-x="324" d="M64 715H261V0H64V715ZM262 904H441L491 760H362L262 904Z" />
<glyph unicode="&#xcd;" glyph-name="Iacute" horiz-adv-x="324" d="M64 715H261V0H64V715ZM397 904H577L474 760H345L397 904Z" />
<glyph unicode="&#xce;" glyph-name="Icircumflex" horiz-adv-x="324" d="M64 715H261V0H64V715ZM348 904H492L602 760H477L416 810L356 760H234L348 904Z" />
<glyph unicode="&#xcf;" glyph-name="Idieresis" horiz-adv-x="324" d="M64 715H261V0H64V715ZM307 760Q272 760 248 783T224 841Q224 876 248 899T307 923Q342 923 366 900T390 841Q390 807 366 784T307 760ZM528 760Q493 760 470 783T446 841Q446 876 469 899T528
923Q563 923 587 900T612 841Q612 807 588 784T528 760Z" />
<glyph unicode="&#xd0;" glyph-name="Eth" horiz-adv-x="753" d="M21 425H82V715H335Q525 715 620 623T716 366V358Q716 275 692 209T620 97T501 25T335 0H82V293H21V425ZM329 151Q424 151 468 201T512 355V363Q512 467 469 515T327 564H274V425H401V293H274V151H329Z" />
<glyph unicode="&#xd1;" glyph-name="Ntilde" horiz-adv-x="750" d="M456 759Q435 759 418 764T387 776T361 788T337 794Q325 794 317 785T305 760H207Q212 836 246 873T327 910Q347 910 363 905T394 893T422 882T447 876Q461 876 468 885T480 909H577Q574 871
563 843T536 796T499 768T456 759ZM59 715H281L520 297V715H691V0H501L232 462V0H59V715Z" />
<glyph unicode="&#xd2;" glyph-name="Ograve" horiz-adv-x="801" d="M241 904H420L470 760H341L241 904ZM401 142Q481 142 527 198T573 355V363Q573 461 527 516T400 572Q320 572 274 517T228 362V354Q228 304 240 265T276 198T330 157T401 142ZM398 -12Q312 -12
243 15T125 90T50 206T24 353V361Q24 442 53 509T132 624T251 698T400 725Q482 725 551 700T670 628T748 515T777 366V358Q777 276 750 208T674 91T554 15T398 -12Z" />
<glyph unicode="&#xd3;" glyph-name="Oacute" horiz-adv-x="801" d="M376 904H556L453 760H324L376 904ZM401 142Q481 142 527 198T573 355V363Q573 461 527 516T400 572Q320 572 274 517T228 362V354Q228 304 240 265T276 198T330 157T401 142ZM398 -12Q312 -12
243 15T125 90T50 206T24 353V361Q24 442 53 509T132 624T251 698T400 725Q482 725 551 700T670 628T748 515T777 366V358Q777 276 750 208T674 91T554 15T398 -12Z" />
<glyph unicode="&#xd4;" glyph-name="Ocircumflex" horiz-adv-x="801" d="M327 904H471L581 760H456L395 810L335 760H213L327 904ZM401 142Q481 142 527 198T573 355V363Q573 461 527 516T400 572Q320 572 274 517T228 362V354Q228 304 240 265T276 198T330 157T401
142ZM398 -12Q312 -12 243 15T125 90T50 206T24 353V361Q24 442 53 509T132 624T251 698T400 725Q482 725 551 700T670 628T748 515T777 366V358Q777 276 750 208T674 91T554 15T398 -12Z" />
<glyph unicode="&#xd5;" glyph-name="Otilde" horiz-adv-x="801" d="M461 759Q440 759 423 764T392 776T366 788T342 794Q330 794 322 785T310 760H212Q217 836 251 873T332 910Q352 910 368 905T399 893T427 882T452 876Q466 876 473 885T485 909H582Q579 871
568 843T541 796T504 768T461 759ZM401 142Q481 142 527 198T573 355V363Q573 461 527 516T400 572Q320 572 274 517T228 362V354Q228 304 240 265T276 198T330 157T401 142ZM398 -12Q312 -12 243 15T125 90T50 206T24 353V361Q24 442 53 509T132 624T251 698T400
725Q482 725 551 700T670 628T748 515T777 366V358Q777 276 750 208T674 91T554 15T398 -12Z" />
<glyph unicode="&#xd6;" glyph-name="Odieresis" horiz-adv-x="801" d="M286 760Q251 760 227 783T203 841Q203 876 227 899T286 923Q321 923 345 900T369 841Q369 807 345 784T286 760ZM507 760Q472 760 449 783T425 841Q425 876 448 899T507 923Q542 923 566
900T591 841Q591 807 567 784T507 760ZM401 142Q481 142 527 198T573 355V363Q573 461 527 516T400 572Q320 572 274 517T228 362V354Q228 304 240 265T276 198T330 157T401 142ZM398 -12Q312 -12 243 15T125 90T50 206T24 353V361Q24 442 53 509T132 624T251 698T400
725Q482 725 551 700T670 628T748 515T777 366V358Q777 276 750 208T674 91T554 15T398 -12Z" />
<glyph unicode="&#xd7;" glyph-name="multiply" horiz-adv-x="540" d="M27 184L179 336L25 490L116 582L270 426L423 579L513 488L360 336L515 182L424 91L270 246L118 93L27 184Z" />
<glyph unicode="&#xd8;" glyph-name="Oslash" horiz-adv-x="801" d="M24 25L105 112Q66 159 45 220T24 353V361Q24 442 53 509T132 624T251 698T400 725Q466 725 523 709T626 662L700 740L758 683L688 609Q730 564 753 503T777 366V358Q777 276 750 208T674 91T554
15T398 -12Q328 -12 270 6T165 56L82 -32L24 25ZM401 142Q482 142 528 198T575 355V363Q575 394 570 420T556 469L286 184Q331 142 401 142ZM227 354Q227 296 242 256L507 537Q464 572 400 572Q319 572 273 517T227 362V354Z" />
<glyph unicode="&#xd9;" glyph-name="Ugrave" horiz-adv-x="736" d="M210 904H389L439 760H310L210 904ZM367 -12Q217 -12 136 63T54 288V715H250V297Q250 258 255 229T274 180T310 152T367 142Q432 142 458 179T484 301V715H682V291Q682 137 598 63T367 -12Z" />
<glyph unicode="&#xda;" glyph-name="Uacute" horiz-adv-x="736" d="M345 904H525L422 760H293L345 904ZM367 -12Q217 -12 136 63T54 288V715H250V297Q250 258 255 229T274 180T310 152T367 142Q432 142 458 179T484 301V715H682V291Q682 137 598 63T367 -12Z" />
<glyph unicode="&#xdb;" glyph-name="Ucircumflex" horiz-adv-x="736" d="M296 904H440L550 760H425L364 810L304 760H182L296 904ZM367 -12Q217 -12 136 63T54 288V715H250V297Q250 258 255 229T274 180T310 152T367 142Q432 142 458 179T484 301V715H682V291Q682
137 598 63T367 -12Z" />
<glyph unicode="&#xdc;" glyph-name="Udieresis" horiz-adv-x="736" d="M367 -12Q217 -12 136 63T54 288V715H250V297Q250 258 255 229T274 180T310 152T367 142Q432 142 458 179T484 301V715H682V291Q682 137 598 63T367 -12ZM255 760Q220 760 196 783T172 841Q172
876 196 899T255 923Q290 923 314 900T338 841Q338 807 314 784T255 760ZM476 760Q441 760 418 783T394 841Q394 876 417 899T476 923Q511 923 535 900T560 841Q560 807 536 784T476 760Z" />
<glyph unicode="&#xdd;" glyph-name="Yacute" horiz-adv-x="648" d="M231 306L-2 715H211L337 467L463 715H650L428 306V0H231V306ZM309 904H489L386 760H257L309 904Z" />
<glyph unicode="&#xde;" glyph-name="Thorn" horiz-adv-x="624" d="M59 715H254V597H326Q610 597 610 369V365Q610 252 538 195T334 137H254V0H59V715ZM318 272Q424 272 424 364V368Q424 417 397 437T319 457H254V272H318Z" />
<glyph unicode="&#xdf;" glyph-name="germandbls" horiz-adv-x="635" d="M381 -10Q347 -10 322 -7T283 1V140Q292 137 304 134T333 131Q352 131 370 135T402 150T424 180T432 229V235Q432 266 422 287T392 322T347 342T289 349V486Q341 486 364 506T387 562V565Q387
595 367 613T309 631Q272 631 250 607T228 536V0H44V520Q44 582 66 626T126 699T214 741T321 754Q376 754 420 743T496 709T545 654T562 578V573Q562 514 528 477T439 428Q475 420 507 403T564 359T604 299T619 223V216Q619 158 601 116T552 45T476 4T381 -10Z"
/>
<glyph unicode="&#xe0;" glyph-name="agrave" horiz-adv-x="575" d="M197 -12Q161 -12 128 -3T70 25T30 75T15 149Q15 197 34 230T91 285T181 315T301 325H353V338Q353 376 339 399T281 423Q243 423 227 404T208 359H35Q38 408 58 444T112 505T192 541T293 553Q348
553 393 541T470 505T519 442T536 349V0H357V63Q347 48 333 35T300 11T255 -6T197 -12ZM261 112Q300 112 326 132T353 188V221H304Q248 221 223 209T197 163Q197 140 213 126T261 112ZM142 750H316L369 585H247L142 750Z" />
<glyph unicode="&#xe1;" glyph-name="aacute" horiz-adv-x="575" d="M197 -12Q161 -12 128 -3T70 25T30 75T15 149Q15 197 34 230T91 285T181 315T301 325H353V338Q353 376 339 399T281 423Q243 423 227 404T208 359H35Q38 408 58 444T112 505T192 541T293 553Q348
553 393 541T470 505T519 442T536 349V0H357V63Q347 48 333 35T300 11T255 -6T197 -12ZM261 112Q300 112 326 132T353 188V221H304Q248 221 223 209T197 163Q197 140 213 126T261 112ZM275 750H449L344 585H222L275 750Z" />
<glyph unicode="&#xe2;" glyph-name="acircumflex" horiz-adv-x="575" d="M197 -12Q161 -12 128 -3T70 25T30 75T15 149Q15 197 34 230T91 285T181 315T301 325H353V338Q353 376 339 399T281 423Q243 423 227 404T208 359H35Q38 408 58 444T112 505T192 541T293
553Q348 553 393 541T470 505T519 442T536 349V0H357V63Q347 48 333 35T300 11T255 -6T197 -12ZM261 112Q300 112 326 132T353 188V221H304Q248 221 223 209T197 163Q197 140 213 126T261 112ZM236 749H360L477 587H357L294 645L232 587H114L236 749Z" />
<glyph unicode="&#xe3;" glyph-name="atilde" horiz-adv-x="575" d="M197 -12Q161 -12 128 -3T70 25T30 75T15 149Q15 197 34 230T91 285T181 315T301 325H353V338Q353 376 339 399T281 423Q243 423 227 404T208 359H35Q38 408 58 444T112 505T192 541T293 553Q348
553 393 541T470 505T519 442T536 349V0H357V63Q347 48 333 35T300 11T255 -6T197 -12ZM261 112Q300 112 326 132T353 188V221H304Q248 221 223 209T197 163Q197 140 213 126T261 112ZM357 590Q336 590 320 595T290 606T265 618T241 623Q229 623 220 614T209 590H115Q120
668 151 705T229 743Q249 743 265 738T295 726T322 714T347 708Q361 708 369 717T380 741H474Q468 665 435 628T357 590Z" />
<glyph unicode="&#xe4;" glyph-name="adieresis" horiz-adv-x="575" d="M197 -12Q161 -12 128 -3T70 25T30 75T15 149Q15 197 34 230T91 285T181 315T301 325H353V338Q353 376 339 399T281 423Q243 423 227 404T208 359H35Q38 408 58 444T112 505T192 541T293
553Q348 553 393 541T470 505T519 442T536 349V0H357V63Q347 48 333 35T300 11T255 -6T197 -12ZM261 112Q300 112 326 132T353 188V221H304Q248 221 223 209T197 163Q197 140 213 126T261 112ZM188 584Q153 584 130 607T106 665Q106 699 129 722T188 746Q223 746
247 723T271 665Q271 631 247 608T188 584ZM399 584Q364 584 341 607T317 665Q317 699 340 722T399 746Q434 746 458 723T482 665Q482 631 458 608T399 584Z" />
<glyph unicode="&#xe5;" glyph-name="aring" horiz-adv-x="575" d="M197 -12Q161 -12 128 -3T70 25T30 75T15 149Q15 197 34 230T91 285T181 315T301 325H353V338Q353 376 339 399T281 423Q243 423 227 404T208 359H35Q38 408 58 444T112 505T192 541T293 553Q348
553 393 541T470 505T519 442T536 349V0H357V63Q347 48 333 35T300 11T255 -6T197 -12ZM261 112Q300 112 326 132T353 188V221H304Q248 221 223 209T197 163Q197 140 213 126T261 112ZM294 642Q314 642 327 656T341 693Q341 715 328 729T294 743Q274 743 261 729T247
693Q247 670 260 656T294 642ZM294 580Q270 580 249 589T211 613T186 648T177 693Q177 716 186 737T211 773T248 798T294 807Q318 807 339 798T377 774T402 737T411 693Q411 669 402 649T377 613T340 589T294 580Z" />
<glyph unicode="&#xe6;" glyph-name="ae" horiz-adv-x="918" d="M637 -12Q492 -12 428 81Q394 37 344 13T215 -12Q174 -12 138 -3T74 25T31 75T15 149Q15 197 34 231T90 286T180 318T300 329H355V338Q355 377 341 400T282 423Q244 423 228 406T208 359H35Q38 408
58 444T112 505T189 541T286 553Q348 553 391 538T460 489Q492 520 535 536T632 553Q686 553 735 537T821 487T880 401T902 275V228H531Q535 173 562 144T638 114Q683 114 703 132T730 178H902Q889 87 822 38T637 -12ZM723 329Q717 432 632 432Q590 432 564 405T532
329H723ZM262 112Q305 112 330 132T355 188V225H303Q250 225 224 213T197 167Q197 112 262 112Z" />
<glyph unicode="&#xe7;" glyph-name="ccedilla" horiz-adv-x="582" d="M282 -225Q228 -225 196 -202T157 -133H239Q242 -144 250 -152T276 -161Q291 -161 299 -153T308 -131Q308 -117 300 -109T275 -100Q263 -100 256 -103T243 -110L205 -73L247 -8Q197 -1 155
19T82 74T34 155T17 263V271Q17 338 39 390T101 479T192 534T304 553Q353 553 399 542T482 504T541 435T568 332H395Q389 370 369 390T308 410Q259 410 232 376T205 273V265Q205 123 311 123Q350 123 375 145T405 212H571Q567 112 503 52T315 -12L292 -46Q313 -44
333 -48T368 -62T393 -90T402 -131Q402 -176 369 -200T282 -225Z" />
<glyph unicode="&#xe8;" glyph-name="egrave" horiz-adv-x="598" d="M309 -12Q246 -12 193 6T100 59T39 146T17 263V271Q17 336 39 388T101 477T194 533T308 553Q363 553 413 537T500 487T560 401T582 275V227H203Q207 173 236 144T315 114Q361 114 382 132T409
178H582Q570 87 501 38T309 -12ZM403 331Q401 380 377 406T308 432Q266 432 240 406T205 331H403ZM153 750H327L380 585H258L153 750Z" />
<glyph unicode="&#xe9;" glyph-name="eacute" horiz-adv-x="598" d="M309 -12Q246 -12 193 6T100 59T39 146T17 263V271Q17 336 39 388T101 477T194 533T308 553Q363 553 413 537T500 487T560 401T582 275V227H203Q207 173 236 144T315 114Q361 114 382 132T409
178H582Q570 87 501 38T309 -12ZM403 331Q401 380 377 406T308 432Q266 432 240 406T205 331H403ZM286 750H460L355 585H233L286 750Z" />
<glyph unicode="&#xea;" glyph-name="ecircumflex" horiz-adv-x="598" d="M309 -12Q246 -12 193 6T100 59T39 146T17 263V271Q17 336 39 388T101 477T194 533T308 553Q363 553 413 537T500 487T560 401T582 275V227H203Q207 173 236 144T315 114Q361 114 382 132T409
178H582Q570 87 501 38T309 -12ZM403 331Q401 380 377 406T308 432Q266 432 240 406T205 331H403ZM247 749H371L488 587H368L305 645L243 587H125L247 749Z" />
<glyph unicode="&#xeb;" glyph-name="edieresis" horiz-adv-x="598" d="M309 -12Q246 -12 193 6T100 59T39 146T17 263V271Q17 336 39 388T101 477T194 533T308 553Q363 553 413 537T500 487T560 401T582 275V227H203Q207 173 236 144T315 114Q361 114 382 132T409
178H582Q570 87 501 38T309 -12ZM403 331Q401 380 377 406T308 432Q266 432 240 406T205 331H403ZM199 584Q164 584 141 607T117 665Q117 699 140 722T199 746Q234 746 258 723T282 665Q282 631 258 608T199 584ZM410 584Q375 584 352 607T328 665Q328 699 351
722T410 746Q445 746 469 723T493 665Q493 631 469 608T410 584Z" />
<glyph unicode="&#xec;" glyph-name="igrave" horiz-adv-x="282" d="M49 539H233V0H49V539ZM245 750H419L472 585H350L245 750Z" />
<glyph unicode="&#xed;" glyph-name="iacute" horiz-adv-x="282" d="M49 539H233V0H49V539ZM378 750H552L447 585H325L378 750Z" />
<glyph unicode="&#xee;" glyph-name="icircumflex" horiz-adv-x="282" d="M49 539H233V0H49V539ZM339 749H463L580 587H460L397 645L335 587H217L339 749Z" />
<glyph unicode="&#xef;" glyph-name="idieresis" horiz-adv-x="282" d="M45 584Q10 584 -13 607T-37 665Q-37 699 -14 722T45 746Q80 746 104 723T128 665Q128 631 104 608T45 584ZM236 584Q201 584 178 607T154 665Q154 699 177 722T236 746Q271 746 295 723T319
665Q319 631 295 608T236 584ZM49 539H233V0H49V539Z" />
<glyph unicode="&#xf0;" glyph-name="eth" horiz-adv-x="624" d="M112 637L224 678Q192 706 161 730T100 776H304Q319 766 335 756T369 732L478 773L503 708L431 681Q465 649 496 610T552 525T591 427T606 314V291Q606 220 585 164T524 69T430 9T308 -12Q246 -12
193 7T100 62T39 151T17 271V282Q17 344 37 393T92 475T169 527T258 545Q297 545 321 535T369 500Q353 533 330 564T279 625L136 573L112 637ZM312 125Q364 125 391 161T418 266V274Q418 343 392 379T312 415Q261 415 233 380T205 276V268Q205 198 231 162T312
125Z" />
<glyph unicode="&#xf1;" glyph-name="ntilde" horiz-adv-x="621" d="M44 539H228V452Q250 494 294 523T405 553Q483 553 532 504T581 350V0H397V313Q397 404 320 404Q278 404 253 379T228 302V0H44V539ZM379 590Q358 590 342 595T312 606T287 618T263 623Q251
623 242 614T231 590H137Q142 668 173 705T251 743Q271 743 287 738T317 726T344 714T369 708Q383 708 391 717T402 741H496Q490 665 457 628T379 590Z" />
<glyph unicode="&#xf2;" glyph-name="ograve" horiz-adv-x="623" d="M312 125Q364 125 391 161T418 266V274Q418 343 392 379T312 415Q260 415 233 380T205 276V268Q205 198 231 162T312 125ZM311 -12Q249 -12 196 6T102 60T40 146T17 263V271Q17 336 39 388T102
477T196 533T312 553Q374 553 428 534T521 479T583 392T606 276V268Q606 202 583 150T521 62T427 7T311 -12ZM159 750H333L386 585H264L159 750Z" />
<glyph unicode="&#xf3;" glyph-name="oacute" horiz-adv-x="623" d="M312 125Q364 125 391 161T418 266V274Q418 343 392 379T312 415Q260 415 233 380T205 276V268Q205 198 231 162T312 125ZM311 -12Q249 -12 196 6T102 60T40 146T17 263V271Q17 336 39 388T102
477T196 533T312 553Q374 553 428 534T521 479T583 392T606 276V268Q606 202 583 150T521 62T427 7T311 -12ZM292 750H466L361 585H239L292 750Z" />
<glyph unicode="&#xf4;" glyph-name="ocircumflex" horiz-adv-x="623" d="M312 125Q364 125 391 161T418 266V274Q418 343 392 379T312 415Q260 415 233 380T205 276V268Q205 198 231 162T312 125ZM311 -12Q249 -12 196 6T102 60T40 146T17 263V271Q17 336 39
388T102 477T196 533T312 553Q374 553 428 534T521 479T583 392T606 276V268Q606 202 583 150T521 62T427 7T311 -12ZM253 749H377L494 587H374L311 645L249 587H131L253 749Z" />
<glyph unicode="&#xf5;" glyph-name="otilde" horiz-adv-x="623" d="M312 125Q364 125 391 161T418 266V274Q418 343 392 379T312 415Q260 415 233 380T205 276V268Q205 198 231 162T312 125ZM311 -12Q249 -12 196 6T102 60T40 146T17 263V271Q17 336 39 388T102
477T196 533T312 553Q374 553 428 534T521 479T583 392T606 276V268Q606 202 583 150T521 62T427 7T311 -12ZM374 590Q353 590 337 595T307 606T282 618T258 623Q246 623 237 614T226 590H132Q137 668 168 705T246 743Q266 743 282 738T312 726T339 714T364 708Q378
708 386 717T397 741H491Q485 665 452 628T374 590Z" />
<glyph unicode="&#xf6;" glyph-name="odieresis" horiz-adv-x="623" d="M312 125Q364 125 391 161T418 266V274Q418 343 392 379T312 415Q260 415 233 380T205 276V268Q205 198 231 162T312 125ZM311 -12Q249 -12 196 6T102 60T40 146T17 263V271Q17 336 39 388T102
477T196 533T312 553Q374 553 428 534T521 479T583 392T606 276V268Q606 202 583 150T521 62T427 7T311 -12ZM205 584Q170 584 147 607T123 665Q123 699 146 722T205 746Q240 746 264 723T288 665Q288 631 264 608T205 584ZM416 584Q381 584 358 607T334 665Q334
699 357 722T416 746Q451 746 475 723T499 665Q499 631 475 608T416 584Z" />
<glyph unicode="&#xf7;" glyph-name="divide" horiz-adv-x="545" d="M273 47Q254 47 237 54T208 73T188 101T181 136Q181 155 188 171T207 200T237 220T273 227Q311 227 337 201T364 136Q364 98 338 73T273 47ZM26 400H520V280H26V400ZM273 453Q254 453 237 460T208
479T188 508T181 544Q181 582 208 608T273 634Q292 634 308 627T337 608T357 580T364 544Q364 506 338 480T273 453Z" />
<glyph unicode="&#xf8;" glyph-name="oslash" horiz-adv-x="623" d="M13 9L81 81Q50 116 34 161T17 263V271Q17 336 39 388T102 477T196 533T312 553Q409 553 480 509L547 580L601 530L537 462Q569 427 587 380T606 276V268Q606 202 583 150T521 62T427 7T311
-12Q211 -12 136 34L66 -40L13 9ZM312 124Q366 124 393 160T421 266V274Q421 290 419 304T414 331L242 147Q270 124 312 124ZM203 268Q203 237 207 217L375 397Q352 416 312 416Q259 416 231 381T203 276V268Z" />
<glyph unicode="&#xf9;" glyph-name="ugrave" horiz-adv-x="620" d="M221 -12Q182 -12 149 0T91 37T53 99T39 187V539H224V217Q224 127 300 127Q342 127 367 152T392 229V539H576V0H392V83Q370 41 329 15T221 -12ZM156 750H330L383 585H261L156 750Z" />
<glyph unicode="&#xfa;" glyph-name="uacute" horiz-adv-x="620" d="M221 -12Q182 -12 149 0T91 37T53 99T39 187V539H224V217Q224 127 300 127Q342 127 367 152T392 229V539H576V0H392V83Q370 41 329 15T221 -12ZM289 750H463L358 585H236L289 750Z" />
<glyph unicode="&#xfb;" glyph-name="ucircumflex" horiz-adv-x="620" d="M221 -12Q182 -12 149 0T91 37T53 99T39 187V539H224V217Q224 127 300 127Q342 127 367 152T392 229V539H576V0H392V83Q370 41 329 15T221 -12ZM250 749H374L491 587H371L308 645L246 587H128L250
749Z" />
<glyph unicode="&#xfc;" glyph-name="udieresis" horiz-adv-x="620" d="M221 -12Q182 -12 149 0T91 37T53 99T39 187V539H224V217Q224 127 300 127Q342 127 367 152T392 229V539H576V0H392V83Q370 41 329 15T221 -12ZM202 584Q167 584 144 607T120 665Q120 699
143 722T202 746Q237 746 261 723T285 665Q285 631 261 608T202 584ZM413 584Q378 584 355 607T331 665Q331 699 354 722T413 746Q448 746 472 723T496 665Q496 631 472 608T413 584Z" />
<glyph unicode="&#xfd;" glyph-name="yacute" horiz-adv-x="585" d="M213 55L-3 539H197L308 251L411 539H587L300 -177H124L213 55ZM287 750H461L356 585H234L287 750Z" />
<glyph unicode="&#xfe;" glyph-name="thorn" horiz-adv-x="642" d="M44 776H228V458Q251 497 292 525T396 553Q443 553 484 536T556 483T605 395T623 274V266Q623 196 605 144T557 58T485 6T395 -12Q333 -12 291 13T228 79V-180H44V776ZM330 129Q382 129 409 164T436
266V274Q436 346 408 380T330 414Q279 414 251 379T223 275V267Q223 198 251 164T330 129Z" />
<glyph unicode="&#xff;" glyph-name="ydieresis" horiz-adv-x="585" d="M213 55L-3 539H197L308 251L411 539H587L300 -177H124L213 55ZM200 584Q165 584 142 607T118 665Q118 699 141 722T200 746Q235 746 259 723T283 665Q283 631 259 608T200 584ZM411 584Q376
584 353 607T329 665Q329 699 352 722T411 746Q446 746 470 723T494 665Q494 631 470 608T411 584Z" />
<glyph unicode="&#x100;" glyph-name="Amacron" horiz-adv-x="719" d="M234 715H487L715 0H509L468 139H226L186 0H4L234 715ZM265 274H429L348 557L265 274ZM198 876H516V772H198V876Z" />
<glyph unicode="&#x101;" glyph-name="amacron" horiz-adv-x="575" d="M197 -12Q161 -12 128 -3T70 25T30 75T15 149Q15 197 34 230T91 285T181 315T301 325H353V338Q353 376 339 399T281 423Q243 423 227 404T208 359H35Q38 408 58 444T112 505T192 541T293 553Q348
553 393 541T470 505T519 442T536 349V0H357V63Q347 48 333 35T300 11T255 -6T197 -12ZM261 112Q300 112 326 132T353 188V221H304Q248 221 223 209T197 163Q197 140 213 126T261 112ZM143 712H446V615H143V712Z" />
<glyph unicode="&#x102;" glyph-name="Abreve" horiz-adv-x="719" d="M234 715H487L715 0H509L468 139H226L186 0H4L234 715ZM265 274H429L348 557L265 274ZM356 753Q284 753 241 793T194 905H306Q308 883 320 870T356 857Q379 857 392 870T410 905H520Q515 834
471 794T356 753Z" />
<glyph unicode="&#x103;" glyph-name="abreve" horiz-adv-x="575" d="M197 -12Q161 -12 128 -3T70 25T30 75T15 149Q15 197 34 230T91 285T181 315T301 325H353V338Q353 376 339 399T281 423Q243 423 227 404T208 359H35Q38 408 58 444T112 505T192 541T293 553Q348
553 393 541T470 505T519 442T536 349V0H357V63Q347 48 333 35T300 11T255 -6T197 -12ZM261 112Q300 112 326 132T353 188V221H304Q248 221 223 209T197 163Q197 140 213 126T261 112ZM293 590Q223 590 180 630T132 745H240Q242 722 255 709T293 696Q318 696 332
709T348 745H456Q451 670 407 630T293 590Z" />
<glyph unicode="&#x104;" glyph-name="Aogonek" horiz-adv-x="719" d="M234 715H487L715 0H509L468 139H226L186 0H4L234 715ZM265 274H429L348 557L265 274ZM628 -182Q579 -182 546 -162T512 -103Q512 -84 519 -69T538 -41T565 -18T597 0H697Q674 -17 664 -32T653
-65Q653 -79 661 -86T683 -93Q700 -93 715 -88V-166Q701 -172 679 -177T628 -182Z" />
<glyph unicode="&#x105;" glyph-name="aogonek" horiz-adv-x="575" d="M197 -12Q161 -12 128 -3T70 25T30 75T15 149Q15 197 34 230T91 285T181 315T301 325H353V338Q353 376 339 399T281 423Q243 423 227 404T208 359H35Q38 408 58 444T112 505T192 541T293 553Q348
553 393 541T470 505T519 442T536 349V0H357V63Q347 48 333 35T300 11T255 -6T197 -12ZM261 112Q300 112 326 132T353 188V221H304Q248 221 223 209T197 163Q197 140 213 126T261 112ZM452 -182Q403 -182 370 -162T336 -103Q336 -84 343 -69T362 -41T389 -18T421
0H521Q498 -17 488 -32T477 -65Q477 -79 485 -86T507 -93Q524 -93 539 -88V-166Q525 -172 503 -177T452 -182Z" />
<glyph unicode="&#x106;" glyph-name="Cacute" horiz-adv-x="738" d="M395 -12Q303 -12 234 14T118 88T48 203T25 353V361Q25 443 52 510T128 626T243 700T388 726Q457 726 514 710T615 661T684 576T717 454H516Q509 511 478 541T389 571Q316 571 274 517T231
362V354Q231 254 272 200T392 145Q449 145 486 174T531 266H725Q720 197 694 145T624 58T522 6T395 -12ZM363 904H543L440 760H311L363 904Z" />
<glyph unicode="&#x107;" glyph-name="cacute" horiz-adv-x="582" d="M300 -12Q240 -12 188 5T98 57T39 143T17 263V271Q17 338 39 390T101 479T192 534T304 553Q353 553 399 542T482 504T541 435T568 332H395Q389 370 369 390T308 410Q259 410 232 376T205 273V265Q205
123 311 123Q350 123 375 145T405 212H571Q567 110 499 49T300 -12ZM286 750H460L355 585H233L286 750Z" />
<glyph unicode="&#x108;" glyph-name="Ccircumflex" horiz-adv-x="738" d="M314 904H458L568 760H443L382 810L322 760H200L314 904ZM395 -12Q303 -12 234 14T118 88T48 203T25 353V361Q25 443 52 510T128 626T243 700T388 726Q457 726 514 710T615 661T684 576T717
454H516Q509 511 478 541T389 571Q316 571 274 517T231 362V354Q231 254 272 200T392 145Q449 145 486 174T531 266H725Q720 197 694 145T624 58T522 6T395 -12Z" />
<glyph unicode="&#x109;" glyph-name="ccircumflex" horiz-adv-x="582" d="M300 -12Q240 -12 188 5T98 57T39 143T17 263V271Q17 338 39 390T101 479T192 534T304 553Q353 553 399 542T482 504T541 435T568 332H395Q389 370 369 390T308 410Q259 410 232 376T205
273V265Q205 123 311 123Q350 123 375 145T405 212H571Q567 110 499 49T300 -12ZM247 749H371L488 587H368L305 645L243 587H125L247 749Z" />
<glyph unicode="&#x10a;" glyph-name="Cdotaccent" horiz-adv-x="738" d="M395 -12Q303 -12 234 14T118 88T48 203T25 353V361Q25 443 52 510T128 626T243 700T388 726Q457 726 514 710T615 661T684 576T717 454H516Q509 511 478 541T389 571Q316 571 274 517T231
362V354Q231 254 272 200T392 145Q449 145 486 174T531 266H725Q720 197 694 145T624 58T522 6T395 -12ZM382 759Q343 759 317 784T290 847Q290 884 316 908T382 933Q421 933 447 909T474 847Q474 809 448 784T382 759Z" />
<glyph unicode="&#x10b;" glyph-name="cdotaccent" horiz-adv-x="582" d="M300 -12Q240 -12 188 5T98 57T39 143T17 263V271Q17 338 39 390T101 479T192 534T304 553Q353 553 399 542T482 504T541 435T568 332H395Q389 370 369 390T308 410Q259 410 232 376T205
273V265Q205 123 311 123Q350 123 375 145T405 212H571Q567 110 499 49T300 -12ZM306 583Q266 583 240 607T213 670Q213 708 239 732T306 757Q345 757 371 733T398 670Q398 632 372 608T306 583Z" />
<glyph unicode="&#x10c;" glyph-name="Ccaron" horiz-adv-x="738" d="M199 904H324L384 855L445 904H567L453 760H309L199 904ZM395 -12Q303 -12 234 14T118 88T48 203T25 353V361Q25 443 52 510T128 626T243 700T388 726Q457 726 514 710T615 661T684 576T717
454H516Q509 511 478 541T389 571Q316 571 274 517T231 362V354Q231 254 272 200T392 145Q449 145 486 174T531 266H725Q720 197 694 145T624 58T522 6T395 -12Z" />
<glyph unicode="&#x10d;" glyph-name="ccaron" horiz-adv-x="582" d="M300 -12Q240 -12 188 5T98 57T39 143T17 263V271Q17 338 39 390T101 479T192 534T304 553Q353 553 399 542T482 504T541 435T568 332H395Q389 370 369 390T308 410Q259 410 232 376T205 273V265Q205
123 311 123Q350 123 375 145T405 212H571Q567 110 499 49T300 -12ZM124 749H244L307 691L370 749H487L365 587H242L124 749Z" />
<glyph unicode="&#x10e;" glyph-name="Dcaron" horiz-adv-x="719" d="M139 904H264L324 855L385 904H507L393 760H249L139 904ZM307 151Q403 151 447 201T491 355V363Q491 467 447 515T305 564H256V151H307ZM59 715H314Q504 715 599 623T695 366V358Q695 275 671
209T598 97T479 25T313 0H59V715Z" />
<glyph unicode="&#x10f;" glyph-name="dcaron" horiz-adv-x="641" d="M245 -12Q198 -12 157 5T86 56T37 142T19 264V272Q19 341 37 393T85 481T157 535T247 553Q311 553 350 529T413 462V746H598V0H413V88Q393 46 350 17T245 -12ZM310 129Q361 129 389 163T418
267V275Q418 344 391 379T312 414Q206 414 206 274V266Q206 197 234 163T310 129ZM637 746H767L718 581H628L637 746Z" />
<glyph unicode="&#x110;" glyph-name="Dcroat" horiz-adv-x="747" d="M18 425H79V715H332Q522 715 617 623T713 366V358Q713 275 689 209T617 97T498 25T332 0H79V293H18V425ZM326 151Q421 151 465 201T509 355V363Q509 467 466 515T324 564H270V425H397V293H270V151H326Z"
/>
<glyph unicode="&#x111;" glyph-name="dcroat" horiz-adv-x="641" d="M254 703H413V776H598V703H656V605H598V0H413V88Q393 46 350 17T245 -12Q198 -12 157 5T86 56T37 142T19 264V272Q19 341 37 393T85 481T157 535T247 553Q311 553 350 529T413 462V605H254V703ZM310
129Q361 129 389 163T418 267V275Q418 344 391 379T312 414Q206 414 206 274V266Q206 197 234 163T310 129Z" />
<glyph unicode="&#x112;" glyph-name="Emacron" horiz-adv-x="586" d="M59 715H547V564H254V431H488V291H254V151H563V0H59V715ZM151 876H469V772H151V876Z" />
<glyph unicode="&#x113;" glyph-name="emacron" horiz-adv-x="598" d="M309 -12Q246 -12 193 6T100 59T39 146T17 263V271Q17 336 39 388T101 477T194 533T308 553Q363 553 413 537T500 487T560 401T582 275V227H203Q207 173 236 144T315 114Q361 114 382 132T409
178H582Q570 87 501 38T309 -12ZM403 331Q401 380 377 406T308 432Q266 432 240 406T205 331H403ZM154 712H457V615H154V712Z" />
<glyph unicode="&#x114;" glyph-name="Ebreve" horiz-adv-x="586" d="M59 715H547V564H254V431H488V291H254V151H563V0H59V715ZM310 753Q238 753 195 793T148 905H260Q262 883 274 870T310 857Q333 857 346 870T364 905H474Q469 834 425 794T310 753Z" />
<glyph unicode="&#x115;" glyph-name="ebreve" horiz-adv-x="598" d="M309 -12Q246 -12 193 6T100 59T39 146T17 263V271Q17 336 39 388T101 477T194 533T308 553Q363 553 413 537T500 487T560 401T582 275V227H203Q207 173 236 144T315 114Q361 114 382 132T409
178H582Q570 87 501 38T309 -12ZM403 331Q401 380 377 406T308 432Q266 432 240 406T205 331H403ZM304 590Q234 590 191 630T143 745H251Q253 722 266 709T304 696Q329 696 343 709T359 745H467Q462 670 418 630T304 590Z" />
<glyph unicode="&#x116;" glyph-name="Edotaccent" horiz-adv-x="586" d="M311 759Q272 759 246 784T219 847Q219 884 245 908T311 933Q350 933 376 909T403 847Q403 809 377 784T311 759ZM59 715H547V564H254V431H488V291H254V151H563V0H59V715Z" />
<glyph unicode="&#x117;" glyph-name="edotaccent" horiz-adv-x="598" d="M309 -12Q246 -12 193 6T100 59T39 146T17 263V271Q17 336 39 388T101 477T194 533T308 553Q363 553 413 537T500 487T560 401T582 275V227H203Q207 173 236 144T315 114Q361 114 382 132T409
178H582Q570 87 501 38T309 -12ZM403 331Q401 380 377 406T308 432Q266 432 240 406T205 331H403ZM306 583Q266 583 240 607T213 670Q213 708 239 732T306 757Q345 757 371 733T398 670Q398 632 372 608T306 583Z" />
<glyph unicode="&#x118;" glyph-name="Eogonek" horiz-adv-x="586" d="M59 715H547V564H254V431H488V291H254V151H563V0H59V715ZM417 -182Q368 -182 335 -162T301 -103Q301 -84 308 -69T327 -41T354 -18T386 0H486Q463 -17 453 -32T442 -65Q442 -79 450 -86T472
-93Q489 -93 504 -88V-166Q490 -172 468 -177T417 -182Z" />
<glyph unicode="&#x119;" glyph-name="eogonek" horiz-adv-x="598" d="M367 -182Q318 -182 285 -162T251 -103Q251 -72 269 -50T313 -12H309Q246 -12 193 6T100 59T39 146T17 263V271Q17 336 39 388T101 477T194 533T308 553Q363 553 413 537T500 487T560 401T582
275V227H203Q207 173 236 144T315 114Q361 114 382 132T409 178H582Q575 127 549 88T473 19Q431 -5 412 -22T392 -65Q392 -79 400 -86T422 -93Q439 -93 454 -88V-166Q440 -172 418 -177T367 -182ZM403 331Q401 380 377 406T308 432Q266 432 240 406T205 331H403Z"
/>
<glyph unicode="&#x11a;" glyph-name="Ecaron" horiz-adv-x="586" d="M128 904H253L313 855L374 904H496L382 760H238L128 904ZM59 715H547V564H254V431H488V291H254V151H563V0H59V715Z" />
<glyph unicode="&#x11b;" glyph-name="ecaron" horiz-adv-x="598" d="M309 -12Q246 -12 193 6T100 59T39 146T17 263V271Q17 336 39 388T101 477T194 533T308 553Q363 553 413 537T500 487T560 401T582 275V227H203Q207 173 236 144T315 114Q361 114 382 132T409
178H582Q570 87 501 38T309 -12ZM403 331Q401 380 377 406T308 432Q266 432 240 406T205 331H403ZM124 749H244L307 691L370 749H487L365 587H242L124 749Z" />
<glyph unicode="&#x11c;" glyph-name="Gcircumflex" horiz-adv-x="768" d="M321 904H465L575 760H450L389 810L329 760H207L321 904ZM397 -12Q307 -12 237 15T120 90T49 206T24 353V361Q24 442 52 509T130 625T248 699T397 726Q460 726 517 711T619 665T692 584T727
466H533Q517 572 398 572Q318 572 273 515T228 358V350Q228 305 237 266T267 199T321 154T403 137Q442 137 469 146T514 172T540 210T551 255H411V392H744V307Q744 238 722 180T656 79T547 12T397 -12Z" />
<glyph unicode="&#x11d;" glyph-name="gcircumflex" horiz-adv-x="640" d="M298 -186Q229 -186 179 -172T94 -132T40 -73T16 0H199Q204 -23 226 -39T298 -56Q359 -56 385 -27T412 54V126Q391 87 349 57T245 27Q198 27 157 44T84 94T35 175T17 285V294Q17 353 35
401T84 482T156 534T245 553Q310 553 349 529T412 462V539H597V56Q597 -65 521 -125T298 -186ZM310 163Q360 163 388 196T417 286V294Q417 350 390 382T311 415Q259 415 232 382T205 293V284Q205 228 232 196T310 163ZM247 749H371L488 587H368L305 645L243 587H125L247
749Z" />
<glyph unicode="&#x11e;" glyph-name="Gbreve" horiz-adv-x="768" d="M390 753Q318 753 275 793T228 905H340Q342 883 354 870T390 857Q413 857 426 870T444 905H554Q549 834 505 794T390 753ZM397 -12Q307 -12 237 15T120 90T49 206T24 353V361Q24 442 52 509T130
625T248 699T397 726Q460 726 517 711T619 665T692 584T727 466H533Q517 572 398 572Q318 572 273 515T228 358V350Q228 305 237 266T267 199T321 154T403 137Q442 137 469 146T514 172T540 210T551 255H411V392H744V307Q744 238 722 180T656 79T547 12T397 -12Z"
/>
<glyph unicode="&#x11f;" glyph-name="gbreve" horiz-adv-x="640" d="M298 -186Q229 -186 179 -172T94 -132T40 -73T16 0H199Q204 -23 226 -39T298 -56Q359 -56 385 -27T412 54V126Q391 87 349 57T245 27Q198 27 157 44T84 94T35 175T17 285V294Q17 353 35 401T84
482T156 534T245 553Q310 553 349 529T412 462V539H597V56Q597 -65 521 -125T298 -186ZM310 163Q360 163 388 196T417 286V294Q417 350 390 382T311 415Q259 415 232 382T205 293V284Q205 228 232 196T310 163ZM304 590Q234 590 191 630T143 745H251Q253 722 266
709T304 696Q329 696 343 709T359 745H467Q462 670 418 630T304 590Z" />
<glyph unicode="&#x120;" glyph-name="Gdotaccent" horiz-adv-x="768" d="M392 759Q353 759 327 784T300 847Q300 884 326 908T392 933Q431 933 457 909T484 847Q484 809 458 784T392 759ZM397 -12Q307 -12 237 15T120 90T49 206T24 353V361Q24 442 52 509T130
625T248 699T397 726Q460 726 517 711T619 665T692 584T727 466H533Q517 572 398 572Q318 572 273 515T228 358V350Q228 305 237 266T267 199T321 154T403 137Q442 137 469 146T514 172T540 210T551 255H411V392H744V307Q744 238 722 180T656 79T547 12T397 -12Z"
/>
<glyph unicode="&#x121;" glyph-name="gdotaccent" horiz-adv-x="640" d="M298 -186Q229 -186 179 -172T94 -132T40 -73T16 0H199Q204 -23 226 -39T298 -56Q359 -56 385 -27T412 54V126Q391 87 349 57T245 27Q198 27 157 44T84 94T35 175T17 285V294Q17 353 35
401T84 482T156 534T245 553Q310 553 349 529T412 462V539H597V56Q597 -65 521 -125T298 -186ZM310 163Q360 163 388 196T417 286V294Q417 350 390 382T311 415Q259 415 232 382T205 293V284Q205 228 232 196T310 163ZM306 583Q266 583 240 607T213 670Q213 708
239 732T306 757Q345 757 371 733T398 670Q398 632 372 608T306 583Z" />
<glyph unicode="&#x122;" glyph-name="Gcommaaccent" horiz-adv-x="768" d="M322 -178Q353 -176 370 -167T389 -139Q355 -141 336 -127T317 -86Q317 -62 336 -48T385 -33Q420 -33 441 -51T463 -106V-113Q463 -165 429 -194T322 -225V-178ZM397 -12Q307 -12 237
15T120 90T49 206T24 353V361Q24 442 52 509T130 625T248 699T397 726Q460 726 517 711T619 665T692 584T727 466H533Q517 572 398 572Q318 572 273 515T228 358V350Q228 305 237 266T267 199T321 154T403 137Q442 137 469 146T514 172T540 210T551 255H411V392H744V307Q744
238 722 180T656 79T547 12T397 -12Z" />
<glyph unicode="&#x123;" glyph-name="gcommaaccent" horiz-adv-x="640" d="M298 -186Q229 -186 179 -172T94 -132T40 -73T16 0H199Q204 -23 226 -39T298 -56Q359 -56 385 -27T412 54V126Q391 87 349 57T245 27Q198 27 157 44T84 94T35 175T17 285V294Q17 353
35 401T84 482T156 534T245 553Q310 553 349 529T412 462V539H597V56Q597 -65 521 -125T298 -186ZM310 163Q360 163 388 196T417 286V294Q417 350 390 382T311 415Q259 415 232 382T205 293V284Q205 228 232 196T310 163ZM311 582Q276 582 255 600T234 654V661Q234
714 268 742T375 773V726Q344 724 327 715T307 688Q342 690 361 676T380 635Q380 611 361 597T311 582Z" />
<glyph unicode="&#x124;" glyph-name="Hcircumflex" horiz-adv-x="757" d="M59 715H256V438H502V715H698V0H502V285H256V0H59V715ZM309 904H453L563 760H438L377 810L317 760H195L309 904Z" />
<glyph unicode="&#x125;" glyph-name="hcircumflex" horiz-adv-x="621" d="M44 746H228V452Q250 494 294 523T405 553Q483 553 532 504T581 350V0H397V313Q397 404 320 404Q278 404 253 379T228 302V0H44V746ZM246 914H390L500 770H375L314 820L254 770H132L246 914Z" />
<glyph unicode="&#x126;" glyph-name="Hbar" horiz-adv-x="757" d="M-1 612H59V715H256V612H502V715H698V612H759V519H698V0H502V285H256V0H59V519H-1V612ZM502 438V519H256V438H502Z" />
<glyph unicode="&#x127;" glyph-name="hbar" horiz-adv-x="621" d="M-15 703H44V776H228V703H388V605H228V452Q250 494 294 523T405 553Q483 553 532 504T581 350V0H397V313Q397 404 320 404Q278 404 253 379T228 302V0H44V605H-15V703Z" />
<glyph unicode="&#x128;" glyph-name="Itilde" horiz-adv-x="324" d="M64 715H261V0H64V715ZM483 759Q462 759 445 764T414 776T388 788T364 794Q352 794 344 785T332 760H234Q239 836 273 873T354 910Q374 910 390 905T421 893T449 882T474 876Q488 876 495 885T507
909H604Q601 871 590 843T563 796T526 768T483 759Z" />
<glyph unicode="&#x129;" glyph-name="itilde" horiz-adv-x="282" d="M49 539H233V0H49V539ZM460 590Q439 590 423 595T393 606T368 618T344 623Q332 623 323 614T312 590H218Q223 668 254 705T332 743Q352 743 368 738T398 726T425 714T450 708Q464 708 472 717T483
741H577Q571 665 538 628T460 590Z" />
<glyph unicode="&#x12a;" glyph-name="Imacron" horiz-adv-x="324" d="M64 715H261V0H64V715ZM259 876H577V772H259V876Z" />
<glyph unicode="&#x12b;" glyph-name="imacron" horiz-adv-x="282" d="M13 712H269V615H13V712ZM49 539H233V0H49V539Z" />
<glyph unicode="&#x12c;" glyph-name="Ibreve" horiz-adv-x="324" d="M64 715H261V0H64V715ZM418 753Q346 753 303 793T256 905H368Q370 883 382 870T418 857Q441 857 454 870T472 905H582Q577 834 533 794T418 753Z" />
<glyph unicode="&#x12d;" glyph-name="ibreve" horiz-adv-x="282" d="M49 539H233V0H49V539ZM396 590Q326 590 283 630T235 745H343Q345 722 358 709T396 696Q421 696 435 709T451 745H559Q554 670 510 630T396 590Z" />
<glyph unicode="&#x12e;" glyph-name="Iogonek" horiz-adv-x="324" d="M64 715H261V0H64V715ZM428 -182Q379 -182 346 -162T312 -103Q312 -84 319 -69T338 -41T365 -18T397 0H497Q474 -17 464 -32T453 -65Q453 -79 461 -86T483 -93Q500 -93 515 -88V-166Q501 -172
479 -177T428 -182Z" />
<glyph unicode="&#x12f;" glyph-name="iogonek" horiz-adv-x="282" d="M49 539H233V0H49V539ZM140 574Q98 574 70 600T42 667Q42 708 70 734T140 761Q183 761 211 735T240 667Q240 626 212 600T140 574ZM405 -182Q356 -182 323 -162T289 -103Q289 -84 296 -69T315
-41T342 -18T374 0H474Q451 -17 441 -32T430 -65Q430 -79 438 -86T460 -93Q477 -93 492 -88V-166Q478 -172 456 -177T405 -182Z" />
<glyph unicode="&#x130;" glyph-name="Idotaccent" horiz-adv-x="324" d="M64 715H261V0H64V715ZM419 759Q380 759 354 784T327 847Q327 884 353 908T419 933Q458 933 484 909T511 847Q511 809 485 784T419 759Z" />
<glyph unicode="&#x131;" glyph-name="dotlessi" horiz-adv-x="282" d="M49 539H233V0H49V539Z" />
<glyph unicode="&#x132;" glyph-name="IJ" horiz-adv-x="759" d="M64 715H261V0H64V715ZM458 -9Q408 -9 380 -3T330 15V161Q348 155 367 151T418 147Q461 147 487 169T513 249V715H709V246Q709 118 645 55T458 -9Z" />
<glyph unicode="&#x133;" glyph-name="ij" horiz-adv-x="564" d="M49 539H233V0H49V539ZM140 574Q98 574 70 600T42 667Q42 708 70 734T140 761Q183 761 211 735T240 667Q240 626 212 600T140 574ZM422 574Q380 574 352 600T324 667Q324 708 352 734T422 761Q465
761 493 735T522 667Q522 626 494 600T422 574ZM265 -46Q299 -44 315 -29T331 18V539H514V14Q514 -30 503 -65T463 -126T386 -166T265 -180V-46Z" />
<glyph unicode="&#x134;" glyph-name="Jcircumflex" horiz-adv-x="451" d="M232 904H376L486 760H361L300 810L240 760H118L232 904ZM150 -9Q100 -9 72 -3T22 15V161Q40 155 59 151T110 147Q153 147 179 169T205 249V715H401V246Q401 118 337 55T150 -9Z" />
<glyph unicode="&#x135;" glyph-name="jcircumflex" horiz-adv-x="282" d="M-17 -46Q17 -44 33 -29T49 18V539H232V14Q232 -30 221 -65T181 -126T104 -166T-17 -180V-46ZM339 749H463L580 587H460L397 645L335 587H217L339 749Z" />
<glyph unicode="&#x136;" glyph-name="Kcommaaccent" horiz-adv-x="695" d="M59 715H256V427L479 715H683L417 382L697 0H471L256 303V0H59V715ZM288 -178Q319 -176 336 -167T355 -139Q321 -141 302 -127T283 -86Q283 -62 302 -48T351 -33Q386 -33 407 -51T429
-106V-113Q429 -165 395 -194T288 -225V-178Z" />
<glyph unicode="&#x137;" glyph-name="kcommaaccent" horiz-adv-x="572" d="M228 325L373 539H565L389 297L579 0H373L228 236V0H44V746H228V325ZM226 -178Q257 -176 274 -167T293 -139Q259 -141 240 -127T221 -86Q221 -62 240 -48T289 -33Q324 -33 345 -51T367
-106V-113Q367 -165 333 -194T226 -225V-178Z" />
<glyph unicode="&#x139;" glyph-name="Lacute" horiz-adv-x="549" d="M396 904H576L473 760H344L396 904ZM59 715H256V152H530V0H59V715Z" />
<glyph unicode="&#x13a;" glyph-name="lacute" horiz-adv-x="281" d="M49 746H232V0H49V746ZM373 914H553L450 770H321L373 914Z" />
<glyph unicode="&#x13b;" glyph-name="Lcommaaccent" horiz-adv-x="549" d="M234 -178Q265 -176 282 -167T301 -139Q267 -141 248 -127T229 -86Q229 -62 248 -48T297 -33Q332 -33 353 -51T375 -106V-113Q375 -165 341 -194T234 -225V-178ZM59 715H256V152H530V0H59V715Z" />
<glyph unicode="&#x13c;" glyph-name="lcommaaccent" horiz-adv-x="281" d="M49 746H232V0H49V746ZM326 -178Q357 -176 374 -167T393 -139Q359 -141 340 -127T321 -86Q321 -62 340 -48T389 -33Q424 -33 445 -51T467 -106V-113Q467 -165 433 -194T326 -225V-178Z" />
<glyph unicode="&#x13d;" glyph-name="Lcaron" horiz-adv-x="549" d="M309 715H453L392 541H293L309 715ZM59 715H256V152H530V0H59V715Z" />
<glyph unicode="&#x13e;" glyph-name="lcaron" horiz-adv-x="281" d="M49 746H232V0H49V746ZM271 746H401L352 581H262L271 746Z" />
<glyph unicode="&#x13f;" glyph-name="Ldot" horiz-adv-x="562" d="M59 715H256V152H530V0H59V715ZM457 301Q414 301 386 329T358 399Q358 440 386 468T457 497Q501 497 530 469T559 399Q559 358 530 330T457 301Z" />
<glyph unicode="&#x140;" glyph-name="ldot" horiz-adv-x="436" d="M49 746H232V0H49V746ZM357 282Q314 282 286 310T258 380Q258 421 286 449T357 478Q401 478 430 450T459 380Q459 339 430 311T357 282Z" />
<glyph unicode="&#x141;" glyph-name="Lslash" horiz-adv-x="567" d="M15 336L79 358V715H274V426L456 489V384L274 321V152H550V0H79V253L15 231V336Z" />
<glyph unicode="&#x142;" glyph-name="lslash" horiz-adv-x="321" d="M7 387L69 417V776H253V507L319 539V419L253 387V0H69V299L7 269V387Z" />
<glyph unicode="&#x143;" glyph-name="Nacute" horiz-adv-x="750" d="M371 904H551L448 760H319L371 904ZM59 715H281L520 297V715H691V0H501L232 462V0H59V715Z" />
<glyph unicode="&#x144;" glyph-name="nacute" horiz-adv-x="621" d="M44 539H228V452Q250 494 294 523T405 553Q483 553 532 504T581 350V0H397V313Q397 404 320 404Q278 404 253 379T228 302V0H44V539ZM297 750H471L366 585H244L297 750Z" />
<glyph unicode="&#x145;" glyph-name="Ncommaaccent" horiz-adv-x="750" d="M300 -178Q331 -176 348 -167T367 -139Q333 -141 314 -127T295 -86Q295 -62 314 -48T363 -33Q398 -33 419 -51T441 -106V-113Q441 -165 407 -194T300 -225V-178ZM59 715H281L520 297V715H691V0H501L232
462V0H59V715Z" />
<glyph unicode="&#x146;" glyph-name="ncommaaccent" horiz-adv-x="621" d="M44 539H228V452Q250 494 294 523T405 553Q483 553 532 504T581 350V0H397V313Q397 404 320 404Q278 404 253 379T228 302V0H44V539ZM246 -178Q277 -176 294 -167T313 -139Q279 -141
260 -127T241 -86Q241 -62 260 -48T309 -33Q344 -33 365 -51T387 -106V-113Q387 -165 353 -194T246 -225V-178Z" />
<glyph unicode="&#x147;" glyph-name="Ncaron" horiz-adv-x="750" d="M207 904H332L392 855L453 904H575L461 760H317L207 904ZM59 715H281L520 297V715H691V0H501L232 462V0H59V715Z" />
<glyph unicode="&#x148;" glyph-name="ncaron" horiz-adv-x="621" d="M44 539H228V452Q250 494 294 523T405 553Q483 553 532 504T581 350V0H397V313Q397 404 320 404Q278 404 253 379T228 302V0H44V539ZM135 749H255L318 691L381 749H498L376 587H253L135 749Z" />
<glyph unicode="&#x149;" glyph-name="napostrophe" horiz-adv-x="730" d="M213 513Q284 519 287 561Q247 563 226 584T205 641Q205 679 231 700T294 722Q336 722 363 695T391 619V605Q391 531 345 491T213 448V513ZM153 539H337V452Q359 494 403 523T514 553Q592
553 641 504T690 350V0H506V313Q506 404 429 404Q387 404 362 379T337 302V0H153V539Z" />
<glyph unicode="&#x14a;" glyph-name="Eng" horiz-adv-x="750" d="M453 -192Q406 -192 380 -186T332 -169V-30Q349 -36 366 -40T411 -45Q446 -45 468 -31T495 15L236 478V0H59V715H284L515 291V715H691V22Q691 -77 631 -134T453 -192Z" />
<glyph unicode="&#x14b;" glyph-name="eng" horiz-adv-x="621" d="M332 -56Q366 -54 381 -39T397 8V313Q397 404 320 404Q278 404 253 379T228 302V0H44V539H228V452Q250 494 294 523T405 553Q483 553 532 504T581 350V4Q581 -40 570 -75T530 -136T453 -176T332
-190V-56Z" />
<glyph unicode="&#x14c;" glyph-name="Omacron" horiz-adv-x="801" d="M238 876H556V772H238V876ZM401 142Q481 142 527 198T573 355V363Q573 461 527 516T400 572Q320 572 274 517T228 362V354Q228 304 240 265T276 198T330 157T401 142ZM398 -12Q312 -12 243
15T125 90T50 206T24 353V361Q24 442 53 509T132 624T251 698T400 725Q482 725 551 700T670 628T748 515T777 366V358Q777 276 750 208T674 91T554 15T398 -12Z" />
<glyph unicode="&#x14d;" glyph-name="omacron" horiz-adv-x="623" d="M312 125Q364 125 391 161T418 266V274Q418 343 392 379T312 415Q260 415 233 380T205 276V268Q205 198 231 162T312 125ZM311 -12Q249 -12 196 6T102 60T40 146T17 263V271Q17 336 39 388T102
477T196 533T312 553Q374 553 428 534T521 479T583 392T606 276V268Q606 202 583 150T521 62T427 7T311 -12ZM160 712H463V615H160V712Z" />
<glyph unicode="&#x14e;" glyph-name="Obreve" horiz-adv-x="801" d="M396 753Q324 753 281 793T234 905H346Q348 883 360 870T396 857Q419 857 432 870T450 905H560Q555 834 511 794T396 753ZM401 142Q481 142 527 198T573 355V363Q573 461 527 516T400 572Q320
572 274 517T228 362V354Q228 304 240 265T276 198T330 157T401 142ZM398 -12Q312 -12 243 15T125 90T50 206T24 353V361Q24 442 53 509T132 624T251 698T400 725Q482 725 551 700T670 628T748 515T777 366V358Q777 276 750 208T674 91T554 15T398 -12Z" />
<glyph unicode="&#x14f;" glyph-name="obreve" horiz-adv-x="623" d="M312 125Q364 125 391 161T418 266V274Q418 343 392 379T312 415Q260 415 233 380T205 276V268Q205 198 231 162T312 125ZM311 -12Q249 -12 196 6T102 60T40 146T17 263V271Q17 336 39 388T102
477T196 533T312 553Q374 553 428 534T521 479T583 392T606 276V268Q606 202 583 150T521 62T427 7T311 -12ZM310 590Q240 590 197 630T149 745H257Q259 722 272 709T310 696Q335 696 349 709T365 745H473Q468 670 424 630T310 590Z" />
<glyph unicode="&#x150;" glyph-name="Ohungarumlaut" horiz-adv-x="801" d="M273 904H422L348 760H233L273 904ZM464 904H613L539 760H423L464 904ZM401 142Q481 142 527 198T573 355V363Q573 461 527 516T400 572Q320 572 274 517T228 362V354Q228 304 240 265T276
198T330 157T401 142ZM398 -12Q312 -12 243 15T125 90T50 206T24 353V361Q24 442 53 509T132 624T251 698T400 725Q482 725 551 700T670 628T748 515T777 366V358Q777 276 750 208T674 91T554 15T398 -12Z" />
<glyph unicode="&#x151;" glyph-name="ohungarumlaut" horiz-adv-x="623" d="M312 125Q364 125 391 161T418 266V274Q418 343 392 379T312 415Q260 415 233 380T205 276V268Q205 198 231 162T312 125ZM311 -12Q249 -12 196 6T102 60T40 146T17 263V271Q17 336
39 388T102 477T196 533T312 553Q374 553 428 534T521 479T583 392T606 276V268Q606 202 583 150T521 62T427 7T311 -12ZM217 750H353L277 585H173L217 750ZM392 750H529L452 585H349L392 750Z" />
<glyph unicode="&#x152;" glyph-name="OE" horiz-adv-x="955" d="M22 357Q22 440 46 506T119 618T238 690T402 715H916V564H638V431H857V291H638V151H932V0H402Q214 0 118 92T22 349V357ZM409 564Q313 564 270 514T226 360V352Q226 248 269 200T410 151H444V564H409Z" />
<glyph unicode="&#x153;" glyph-name="oe" horiz-adv-x="997" d="M311 -12Q249 -12 196 6T102 60T40 146T17 263V271Q17 336 39 388T102 477T196 533T312 553Q375 553 425 532T511 472Q547 510 597 531T707 553Q762 553 812 537T899 487T959 401T981 275V227H602Q606
173 635 144T714 114Q760 114 781 132T808 178H981Q968 87 900 38T708 -12Q644 -12 593 7T507 66Q472 28 423 8T311 -12ZM312 125Q364 125 391 161T418 266V274Q418 343 392 379T312 415Q260 415 233 380T205 276V268Q205 198 231 162T312 125ZM802 331Q800 380
776 406T707 432Q665 432 638 406T604 331H802Z" />
<glyph unicode="&#x154;" glyph-name="Racute" horiz-adv-x="669" d="M303 904H483L380 760H251L303 904ZM59 715H334Q472 715 547 660T622 490V486Q622 409 585 364T489 298L664 0H457L307 260H254V0H59V715ZM326 388Q433 388 433 479V483Q433 529 406 548T326
568H254V388H326Z" />
<glyph unicode="&#x155;" glyph-name="racute" horiz-adv-x="423" d="M44 539H228V432Q254 492 296 519T402 546V374Q317 376 273 349T228 255V0H44V539ZM224 750H398L293 585H171L224 750Z" />
<glyph unicode="&#x156;" glyph-name="Rcommaaccent" horiz-adv-x="669" d="M59 715H334Q472 715 547 660T622 490V486Q622 409 585 364T489 298L664 0H457L307 260H254V0H59V715ZM326 388Q433 388 433 479V483Q433 529 406 548T326 568H254V388H326ZM285 -178Q316
-176 333 -167T352 -139Q318 -141 299 -127T280 -86Q280 -62 299 -48T348 -33Q383 -33 404 -51T426 -106V-113Q426 -165 392 -194T285 -225V-178Z" />
<glyph unicode="&#x157;" glyph-name="rcommaaccent" horiz-adv-x="423" d="M44 539H228V432Q254 492 296 519T402 546V374Q317 376 273 349T228 255V0H44V539ZM317 -178Q348 -176 365 -167T384 -139Q350 -141 331 -127T312 -86Q312 -62 331 -48T380 -33Q415 -33
436 -51T458 -106V-113Q458 -165 424 -194T317 -225V-178Z" />
<glyph unicode="&#x158;" glyph-name="Rcaron" horiz-adv-x="669" d="M139 904H264L324 855L385 904H507L393 760H249L139 904ZM59 715H334Q472 715 547 660T622 490V486Q622 409 585 364T489 298L664 0H457L307 260H254V0H59V715ZM326 388Q433 388 433 479V483Q433
529 406 548T326 568H254V388H326Z" />
<glyph unicode="&#x159;" glyph-name="rcaron" horiz-adv-x="423" d="M44 539H228V432Q254 492 296 519T402 546V374Q317 376 273 349T228 255V0H44V539ZM62 749H182L245 691L308 749H425L303 587H180L62 749Z" />
<glyph unicode="&#x15a;" glyph-name="Sacute" horiz-adv-x="623" d="M319 -12Q169 -12 94 49T14 226H200Q202 206 208 189T227 158T263 136T319 128Q366 128 391 149T417 204Q417 222 411 234T392 254T356 268T299 279Q225 288 174 304T91 347T45 412T31 504Q31
552 50 592T104 662T191 708T305 725Q433 725 503 671T584 504H403Q391 585 305 585Q260 585 238 567T216 520Q216 504 221 492T239 471T274 456T332 445Q399 437 450 424T535 385T586 320T604 224Q604 175 585 132T530 57T440 7T319 -12ZM287 904H467L364 760H235L287
904Z" />
<glyph unicode="&#x15b;" glyph-name="sacute" horiz-adv-x="511" d="M257 -12Q141 -12 77 34T10 171H179Q184 142 200 126T256 110Q290 110 306 122T322 155Q322 174 300 184T222 203Q168 210 129 222T66 254T29 304T17 376Q17 421 35 454T85 509T158 542T247
553Q297 553 338 544T411 515T461 461T485 379H319Q313 406 298 419T250 433Q219 433 204 421T189 390Q189 371 209 362T279 346Q335 339 377 328T446 296T487 246T501 173Q501 77 435 33T257 -12ZM231 750H405L300 585H178L231 750Z" />
<glyph unicode="&#x15c;" glyph-name="Scircumflex" horiz-adv-x="623" d="M238 904H382L492 760H367L306 810L246 760H124L238 904ZM319 -12Q169 -12 94 49T14 226H200Q202 206 208 189T227 158T263 136T319 128Q366 128 391 149T417 204Q417 222 411 234T392
254T356 268T299 279Q225 288 174 304T91 347T45 412T31 504Q31 552 50 592T104 662T191 708T305 725Q433 725 503 671T584 504H403Q391 585 305 585Q260 585 238 567T216 520Q216 504 221 492T239 471T274 456T332 445Q399 437 450 424T535 385T586 320T604 224Q604
175 585 132T530 57T440 7T319 -12Z" />
<glyph unicode="&#x15d;" glyph-name="scircumflex" horiz-adv-x="511" d="M257 -12Q141 -12 77 34T10 171H179Q184 142 200 126T256 110Q290 110 306 122T322 155Q322 174 300 184T222 203Q168 210 129 222T66 254T29 304T17 376Q17 421 35 454T85 509T158 542T247
553Q297 553 338 544T411 515T461 461T485 379H319Q313 406 298 419T250 433Q219 433 204 421T189 390Q189 371 209 362T279 346Q335 339 377 328T446 296T487 246T501 173Q501 77 435 33T257 -12ZM192 749H316L433 587H313L250 645L188 587H70L192 749Z" />
<glyph unicode="&#x15e;" glyph-name="Scedilla" horiz-adv-x="623" d="M293 -225Q239 -225 207 -202T168 -133H250Q253 -144 261 -152T287 -161Q302 -161 310 -153T319 -131Q319 -117 311 -109T286 -100Q274 -100 267 -103T254 -110L216 -73L257 -9Q138 4 78
64T14 226H200Q202 206 208 189T227 158T263 136T319 128Q366 128 391 149T417 204Q417 222 411 234T392 254T356 268T299 279Q225 288 174 304T91 347T45 412T31 504Q31 552 50 592T104 662T191 708T305 725Q433 725 503 671T584 504H403Q391 585 305 585Q260
585 238 567T216 520Q216 504 221 492T239 471T274 456T332 445Q399 437 450 424T535 385T586 320T604 224Q604 176 586 134T532 59T444 8T326 -12L303 -46Q324 -44 344 -48T379 -62T404 -90T413 -131Q413 -176 380 -200T293 -225Z" />
<glyph unicode="&#x15f;" glyph-name="scedilla" horiz-adv-x="511" d="M242 -225Q188 -225 156 -202T117 -133H199Q202 -144 210 -152T236 -161Q251 -161 259 -153T268 -131Q268 -117 260 -109T235 -100Q223 -100 216 -103T203 -110L165 -73L206 -9Q113 1 63
46T10 171H179Q184 142 200 126T256 110Q290 110 306 122T322 155Q322 174 300 184T222 203Q168 210 129 222T66 254T29 304T17 376Q17 421 35 454T85 509T158 542T247 553Q297 553 338 544T411 515T461 461T485 379H319Q313 406 298 419T250 433Q219 433 204 421T189
390Q189 371 209 362T279 346Q335 339 377 328T446 296T487 246T501 173Q501 127 485 93T440 37T369 2T275 -12L252 -46Q273 -44 293 -48T328 -62T353 -90T362 -131Q362 -176 329 -200T242 -225Z" />
<glyph unicode="&#x160;" glyph-name="Scaron" horiz-adv-x="623" d="M123 904H248L308 855L369 904H491L377 760H233L123 904ZM319 -12Q169 -12 94 49T14 226H200Q202 206 208 189T227 158T263 136T319 128Q366 128 391 149T417 204Q417 222 411 234T392 254T356
268T299 279Q225 288 174 304T91 347T45 412T31 504Q31 552 50 592T104 662T191 708T305 725Q433 725 503 671T584 504H403Q391 585 305 585Q260 585 238 567T216 520Q216 504 221 492T239 471T274 456T332 445Q399 437 450 424T535 385T586 320T604 224Q604 175
585 132T530 57T440 7T319 -12Z" />
<glyph unicode="&#x161;" glyph-name="scaron" horiz-adv-x="511" d="M257 -12Q141 -12 77 34T10 171H179Q184 142 200 126T256 110Q290 110 306 122T322 155Q322 174 300 184T222 203Q168 210 129 222T66 254T29 304T17 376Q17 421 35 454T85 509T158 542T247
553Q297 553 338 544T411 515T461 461T485 379H319Q313 406 298 419T250 433Q219 433 204 421T189 390Q189 371 209 362T279 346Q335 339 377 328T446 296T487 246T501 173Q501 77 435 33T257 -12ZM69 749H189L252 691L315 749H432L310 587H187L69 749Z" />
<glyph unicode="&#x162;" glyph-name="Tcommaaccent" horiz-adv-x="591" d="M224 -178Q255 -176 272 -167T291 -139Q257 -141 238 -127T219 -86Q219 -62 238 -48T287 -33Q322 -33 343 -51T365 -106V-113Q365 -165 331 -194T224 -225V-178ZM197 564H10V715H581V564H394V0H197V564Z"
/>
<glyph unicode="&#x163;" glyph-name="tcommaaccent" horiz-adv-x="381" d="M260 -12Q168 -12 119 32T70 173V413H5V539H70V671H255V539H361V413H255V191Q255 161 269 148T309 134Q325 134 337 136T362 143V3Q344 -2 318 -7T260 -12ZM139 -178Q170 -176 187 -167T206
-139Q172 -141 153 -127T134 -86Q134 -62 153 -48T202 -33Q237 -33 258 -51T280 -106V-113Q280 -165 246 -194T139 -225V-178Z" />
<glyph unicode="&#x164;" glyph-name="Tcaron" horiz-adv-x="591" d="M110 904H235L295 855L356 904H478L364 760H220L110 904ZM197 564H10V715H581V564H394V0H197V564Z" />
<glyph unicode="&#x165;" glyph-name="tcaron" horiz-adv-x="381" d="M260 -12Q168 -12 119 32T70 173V413H5V539H70V671H255V539H361V413H255V191Q255 161 269 148T309 134Q325 134 337 136T362 143V3Q344 -2 318 -7T260 -12ZM291 746H421L372 581H282L291 746Z" />
<glyph unicode="&#x166;" glyph-name="Tbar" horiz-adv-x="591" d="M70 407H197V564H10V715H581V564H394V407H521V284H394V0H197V284H70V407Z" />
<glyph unicode="&#x167;" glyph-name="tbar" horiz-adv-x="379" d="M3 342H68V413H3V539H68V671H253V539H359V413H253V342H359V240H253V191Q253 161 267 148T307 134Q323 134 335 136T360 143V3Q342 -2 316 -7T258 -12Q166 -12 117 32T68 173V240H3V342Z" />
<glyph unicode="&#x168;" glyph-name="Utilde" horiz-adv-x="736" d="M367 -12Q217 -12 136 63T54 288V715H250V297Q250 258 255 229T274 180T310 152T367 142Q432 142 458 179T484 301V715H682V291Q682 137 598 63T367 -12ZM430 759Q409 759 392 764T361 776T335
788T311 794Q299 794 291 785T279 760H181Q186 836 220 873T301 910Q321 910 337 905T368 893T396 882T421 876Q435 876 442 885T454 909H551Q548 871 537 843T510 796T473 768T430 759Z" />
<glyph unicode="&#x169;" glyph-name="utilde" horiz-adv-x="620" d="M221 -12Q182 -12 149 0T91 37T53 99T39 187V539H224V217Q224 127 300 127Q342 127 367 152T392 229V539H576V0H392V83Q370 41 329 15T221 -12ZM371 590Q350 590 334 595T304 606T279 618T255
623Q243 623 234 614T223 590H129Q134 668 165 705T243 743Q263 743 279 738T309 726T336 714T361 708Q375 708 383 717T394 741H488Q482 665 449 628T371 590Z" />
<glyph unicode="&#x16a;" glyph-name="Umacron" horiz-adv-x="736" d="M367 -12Q217 -12 136 63T54 288V715H250V297Q250 258 255 229T274 180T310 152T367 142Q432 142 458 179T484 301V715H682V291Q682 137 598 63T367 -12ZM207 876H525V772H207V876Z" />
<glyph unicode="&#x16b;" glyph-name="umacron" horiz-adv-x="620" d="M221 -12Q182 -12 149 0T91 37T53 99T39 187V539H224V217Q224 127 300 127Q342 127 367 152T392 229V539H576V0H392V83Q370 41 329 15T221 -12ZM157 712H460V615H157V712Z" />
<glyph unicode="&#x16c;" glyph-name="Ubreve" horiz-adv-x="736" d="M367 -12Q217 -12 136 63T54 288V715H250V297Q250 258 255 229T274 180T310 152T367 142Q432 142 458 179T484 301V715H682V291Q682 137 598 63T367 -12ZM365 753Q293 753 250 793T203 905H315Q317
883 329 870T365 857Q388 857 401 870T419 905H529Q524 834 480 794T365 753Z" />
<glyph unicode="&#x16d;" glyph-name="ubreve" horiz-adv-x="620" d="M221 -12Q182 -12 149 0T91 37T53 99T39 187V539H224V217Q224 127 300 127Q342 127 367 152T392 229V539H576V0H392V83Q370 41 329 15T221 -12ZM307 590Q237 590 194 630T146 745H254Q256 722
269 709T307 696Q332 696 346 709T362 745H470Q465 670 421 630T307 590Z" />
<glyph unicode="&#x16e;" glyph-name="Uring" horiz-adv-x="736" d="M367 -12Q217 -12 136 63T54 288V715H250V297Q250 258 255 229T274 180T310 152T367 142Q432 142 458 179T484 301V715H682V291Q682 137 598 63T367 -12ZM366 790Q386 790 399 804T413 840Q413
863 400 877T366 892Q345 892 332 878T319 840Q319 818 332 804T366 790ZM366 725Q342 725 320 734T282 759T257 796T247 840Q247 864 256 885T282 921T320 946T366 955Q390 955 412 946T450 922T475 885T485 840Q485 817 476 796T450 759T412 734T366 725Z" />
<glyph unicode="&#x16f;" glyph-name="uring" horiz-adv-x="620" d="M221 -12Q182 -12 149 0T91 37T53 99T39 187V539H224V217Q224 127 300 127Q342 127 367 152T392 229V539H576V0H392V83Q370 41 329 15T221 -12ZM308 642Q328 642 341 656T355 693Q355 715 342
729T308 743Q288 743 275 729T261 693Q261 670 274 656T308 642ZM308 580Q284 580 263 589T225 613T200 648T191 693Q191 716 200 737T225 773T262 798T308 807Q332 807 353 798T391 774T416 737T425 693Q425 669 416 649T391 613T354 589T308 580Z" />
<glyph unicode="&#x170;" glyph-name="Uhungarumlaut" horiz-adv-x="736" d="M242 904H391L317 760H202L242 904ZM433 904H582L508 760H392L433 904ZM367 -12Q217 -12 136 63T54 288V715H250V297Q250 258 255 229T274 180T310 152T367 142Q432 142 458 179T484
301V715H682V291Q682 137 598 63T367 -12Z" />
<glyph unicode="&#x171;" glyph-name="uhungarumlaut" horiz-adv-x="620" d="M221 -12Q182 -12 149 0T91 37T53 99T39 187V539H224V217Q224 127 300 127Q342 127 367 152T392 229V539H576V0H392V83Q370 41 329 15T221 -12ZM214 750H350L274 585H170L214 750ZM389
750H526L449 585H346L389 750Z" />
<glyph unicode="&#x172;" glyph-name="Uogonek" horiz-adv-x="736" d="M406 -182Q357 -182 324 -162T290 -103Q290 -72 308 -50T353 -12Q210 -8 132 67T54 288V715H250V297Q250 258 255 229T274 180T310 152T367 142Q432 142 458 179T484 301V715H682V291Q682
189 645 123T539 23Q517 12 498 3T463 -17T440 -39T431 -65Q431 -79 439 -86T461 -93Q478 -93 493 -88V-166Q479 -172 457 -177T406 -182Z" />
<glyph unicode="&#x173;" glyph-name="uogonek" horiz-adv-x="620" d="M221 -12Q182 -12 149 0T91 37T53 99T39 187V539H224V217Q224 127 300 127Q342 127 367 152T392 229V539H576V0H392V83Q370 41 329 15T221 -12ZM494 -182Q445 -182 412 -162T378 -103Q378
-84 385 -69T404 -41T431 -18T463 0H563Q540 -17 530 -32T519 -65Q519 -79 527 -86T549 -93Q566 -93 581 -88V-166Q567 -172 545 -177T494 -182Z" />
<glyph unicode="&#x174;" glyph-name="Wcircumflex" horiz-adv-x="968" d="M415 904H559L669 760H544L483 810L423 760H301L415 904ZM4 715H202L298 259L400 715H572L681 255L782 715H964L795 0H592L478 463L362 0H172L4 715Z" />
<glyph unicode="&#x175;" glyph-name="wcircumflex" horiz-adv-x="848" d="M-2 539H191L269 216L360 539H508L588 216L676 539H851L680 0H504L424 301L340 0H161L-2 539ZM371 749H495L612 587H492L429 645L367 587H249L371 749Z" />
<glyph unicode="&#x176;" glyph-name="Ycircumflex" horiz-adv-x="648" d="M231 306L-2 715H211L337 467L463 715H650L428 306V0H231V306ZM260 904H404L514 760H389L328 810L268 760H146L260 904Z" />
<glyph unicode="&#x177;" glyph-name="ycircumflex" horiz-adv-x="585" d="M213 55L-3 539H197L308 251L411 539H587L300 -177H124L213 55ZM248 749H372L489 587H369L306 645L244 587H126L248 749Z" />
<glyph unicode="&#x178;" glyph-name="Ydieresis" horiz-adv-x="648" d="M231 306L-2 715H211L337 467L463 715H650L428 306V0H231V306ZM219 760Q184 760 160 783T136 841Q136 876 160 899T219 923Q254 923 278 900T302 841Q302 807 278 784T219 760ZM440 760Q405
760 382 783T358 841Q358 876 381 899T440 923Q475 923 499 900T524 841Q524 807 500 784T440 760Z" />
<glyph unicode="&#x179;" glyph-name="Zacute" horiz-adv-x="602" d="M287 904H467L364 760H235L287 904ZM3 22L315 565H42V715H592V694L285 151H578V0H3V22Z" />
<glyph unicode="&#x17a;" glyph-name="zacute" horiz-adv-x="501" d="M-1 19L235 400H24V539H499V519L257 139H486V0H-1V19ZM248 750H422L317 585H195L248 750Z" />
<glyph unicode="&#x17b;" glyph-name="Zdotaccent" horiz-adv-x="602" d="M3 22L315 565H42V715H592V694L285 151H578V0H3V22ZM309 759Q270 759 244 784T217 847Q217 884 243 908T309 933Q348 933 374 909T401 847Q401 809 375 784T309 759Z" />
<glyph unicode="&#x17c;" glyph-name="zdotaccent" horiz-adv-x="501" d="M-1 19L235 400H24V539H499V519L257 139H486V0H-1V19ZM268 583Q228 583 202 607T175 670Q175 708 201 732T268 757Q307 757 333 733T360 670Q360 632 334 608T268 583Z" />
<glyph unicode="&#x17d;" glyph-name="Zcaron" horiz-adv-x="602" d="M123 904H248L308 855L369 904H491L377 760H233L123 904ZM3 22L315 565H42V715H592V694L285 151H578V0H3V22Z" />
<glyph unicode="&#x17e;" glyph-name="zcaron" horiz-adv-x="501" d="M-1 19L235 400H24V539H499V519L257 139H486V0H-1V19ZM86 749H206L269 691L332 749H449L327 587H204L86 749Z" />
<glyph unicode="&#x192;" glyph-name="florin" horiz-adv-x="438" d="M13 426H105L124 555Q139 658 199 702T352 747Q378 747 395 744T432 735V597Q421 601 409 603T379 605Q315 605 306 540L290 426H406V302H272L202 -187H19L88 302H13V426Z" />
<glyph unicode="&#x1fa;" glyph-name="Aringacute" horiz-adv-x="719" d="M234 715H487L715 0H509L468 139H226L186 0H4L234 715ZM265 274H429L348 557L265 274ZM347 1135H527L424 991H295L347 1135ZM361 806Q381 806 394 820T408 856Q408 879 395 893T361 908Q340
908 327 894T314 856Q314 834 327 820T361 806ZM361 741Q337 741 315 750T277 775T252 812T242 856Q242 880 251 901T277 937T315 962T361 971Q385 971 407 962T445 938T470 901T480 856Q480 833 471 812T445 775T407 750T361 741Z" />
<glyph unicode="&#x1fb;" glyph-name="aringacute" horiz-adv-x="575" d="M197 -12Q161 -12 128 -3T70 25T30 75T15 149Q15 197 34 230T91 285T181 315T301 325H353V338Q353 376 339 399T281 423Q243 423 227 404T208 359H35Q38 408 58 444T112 505T192 541T293
553Q348 553 393 541T470 505T519 442T536 349V0H357V63Q347 48 333 35T300 11T255 -6T197 -12ZM261 112Q300 112 326 132T353 188V221H304Q248 221 223 209T197 163Q197 140 213 126T261 112ZM294 642Q314 642 327 656T341 693Q341 715 328 729T294 743Q274 743
261 729T247 693Q247 670 260 656T294 642ZM294 580Q270 580 249 589T211 613T186 648T177 693Q177 716 186 737T211 773T248 798T294 807Q318 807 339 798T377 774T402 737T411 693Q411 669 402 649T377 613T340 589T294 580ZM283 974H463L360 830H231L283 974Z"
/>
<glyph unicode="&#x1fc;" glyph-name="AEacute" horiz-adv-x="975" d="M581 904H761L658 760H529L581 904ZM326 715H938V564H651V431H877V291H651V151H954V0H455V151H254L188 0H1L326 715ZM311 283H455V564H435L311 283Z" />
<glyph unicode="&#x1fd;" glyph-name="aeacute" horiz-adv-x="918" d="M637 -12Q492 -12 428 81Q394 37 344 13T215 -12Q174 -12 138 -3T74 25T31 75T15 149Q15 197 34 231T90 286T180 318T300 329H355V338Q355 377 341 400T282 423Q244 423 228 406T208 359H35Q38
408 58 444T112 505T189 541T286 553Q348 553 391 538T460 489Q492 520 535 536T632 553Q686 553 735 537T821 487T880 401T902 275V228H531Q535 173 562 144T638 114Q683 114 703 132T730 178H902Q889 87 822 38T637 -12ZM723 329Q717 432 632 432Q590 432 564
405T532 329H723ZM262 112Q305 112 330 132T355 188V225H303Q250 225 224 213T197 167Q197 112 262 112ZM457 750H631L526 585H404L457 750Z" />
<glyph unicode="&#x1fe;" glyph-name="Oslashacute" horiz-adv-x="801" d="M24 25L105 112Q66 159 45 220T24 353V361Q24 442 53 509T132 624T251 698T400 725Q466 725 523 709T626 662L700 740L758 683L688 609Q730 564 753 503T777 366V358Q777 276 750 208T674
91T554 15T398 -12Q328 -12 270 6T165 56L82 -32L24 25ZM401 142Q482 142 528 198T575 355V363Q575 394 570 420T556 469L286 184Q331 142 401 142ZM227 354Q227 296 242 256L507 537Q464 572 400 572Q319 572 273 517T227 362V354ZM377 904H557L454 760H325L377
904Z" />
<glyph unicode="&#x1ff;" glyph-name="oslashacute" horiz-adv-x="623" d="M13 9L81 81Q50 116 34 161T17 263V271Q17 336 39 388T102 477T196 533T312 553Q409 553 480 509L547 580L601 530L537 462Q569 427 587 380T606 276V268Q606 202 583 150T521 62T427
7T311 -12Q211 -12 136 34L66 -40L13 9ZM312 124Q366 124 393 160T421 266V274Q421 290 419 304T414 331L242 147Q270 124 312 124ZM203 268Q203 237 207 217L375 397Q352 416 312 416Q259 416 231 381T203 276V268ZM292 750H466L361 585H239L292 750Z" />
<glyph unicode="&#x218;" glyph-name="Scommaaccent" horiz-adv-x="623" d="M319 -12Q169 -12 94 49T14 226H200Q202 206 208 189T227 158T263 136T319 128Q366 128 391 149T417 204Q417 222 411 234T392 254T356 268T299 279Q225 288 174 304T91 347T45 412T31
504Q31 552 50 592T104 662T191 708T305 725Q433 725 503 671T584 504H403Q391 585 305 585Q260 585 238 567T216 520Q216 504 221 492T239 471T274 456T332 445Q399 437 450 424T535 385T586 320T604 224Q604 175 585 132T530 57T440 7T319 -12ZM239 -178Q270
-176 287 -167T306 -139Q272 -141 253 -127T234 -86Q234 -62 253 -48T302 -33Q337 -33 358 -51T380 -106V-113Q380 -165 346 -194T239 -225V-178Z" />
<glyph unicode="&#x219;" glyph-name="scommaaccent" horiz-adv-x="511" d="M257 -12Q141 -12 77 34T10 171H179Q184 142 200 126T256 110Q290 110 306 122T322 155Q322 174 300 184T222 203Q168 210 129 222T66 254T29 304T17 376Q17 421 35 454T85 509T158 542T247
553Q297 553 338 544T411 515T461 461T485 379H319Q313 406 298 419T250 433Q219 433 204 421T189 390Q189 371 209 362T279 346Q335 339 377 328T446 296T487 246T501 173Q501 77 435 33T257 -12ZM180 -178Q211 -176 228 -167T247 -139Q213 -141 194 -127T175
-86Q175 -62 194 -48T243 -33Q278 -33 299 -51T321 -106V-113Q321 -165 287 -194T180 -225V-178Z" />
<glyph unicode="&#x21a;" glyph-name="uni021A" horiz-adv-x="591" d="M224 -178Q255 -176 272 -167T291 -139Q257 -141 238 -127T219 -86Q219 -62 238 -48T287 -33Q322 -33 343 -51T365 -106V-113Q365 -165 331 -194T224 -225V-178ZM197 564H10V715H581V564H394V0H197V564Z"
/>
<glyph unicode="&#x21b;" glyph-name="uni021B" horiz-adv-x="381" d="M260 -12Q168 -12 119 32T70 173V413H5V539H70V671H255V539H361V413H255V191Q255 161 269 148T309 134Q325 134 337 136T362 143V3Q344 -2 318 -7T260 -12ZM139 -178Q170 -176 187 -167T206
-139Q172 -141 153 -127T134 -86Q134 -62 153 -48T202 -33Q237 -33 258 -51T280 -106V-113Q280 -165 246 -194T139 -225V-178Z" />
<glyph unicode="&#x237;" glyph-name="uni0237" horiz-adv-x="282" d="M-17 -46Q17 -44 33 -29T49 18V539H232V14Q232 -30 221 -65T181 -126T104 -166T-17 -180V-46Z" />
<glyph unicode="&#x2c6;" glyph-name="circumflex" horiz-adv-x="400" d="M140 749H264L381 587H261L198 645L136 587H18L140 749Z" />
<glyph unicode="&#x2c7;" glyph-name="caron" horiz-adv-x="400" d="M18 749H138L201 691L264 749H381L259 587H136L18 749Z" />
<glyph unicode="&#x2d8;" glyph-name="breve" horiz-adv-x="400" d="M199 590Q129 590 86 630T38 745H146Q148 722 161 709T199 696Q224 696 238 709T254 745H362Q357 670 313 630T199 590Z" />
<glyph unicode="&#x2d9;" glyph-name="dotaccent" horiz-adv-x="400" d="M200 583Q160 583 134 607T107 670Q107 708 133 732T200 757Q239 757 265 733T292 670Q292 632 266 608T200 583Z" />
<glyph unicode="&#x2da;" glyph-name="ring" horiz-adv-x="400" d="M200 642Q220 642 233 656T247 693Q247 715 234 729T200 743Q180 743 167 729T153 693Q153 670 166 656T200 642ZM200 580Q176 580 155 589T117 613T92 648T83 693Q83 716 92 737T117 773T154
798T200 807Q224 807 245 798T283 774T308 737T317 693Q317 669 308 649T283 613T246 589T200 580Z" />
<glyph unicode="&#x2db;" glyph-name="ogonek" horiz-adv-x="400" d="M201 -182Q152 -182 119 -162T85 -103Q85 -84 92 -69T111 -41T138 -18T170 0H270Q247 -17 237 -32T226 -65Q226 -79 234 -86T256 -93Q273 -93 288 -88V-166Q274 -172 252 -177T201 -182Z" />
<glyph unicode="&#x2dc;" glyph-name="tilde" horiz-adv-x="400" d="M263 590Q242 590 226 595T196 606T171 618T147 623Q135 623 126 614T115 590H21Q26 668 57 705T135 743Q155 743 171 738T201 726T228 714T253 708Q267 708 275 717T286 741H380Q374 665 341
628T263 590Z" />
<glyph unicode="&#x2dd;" glyph-name="hungarumlaut" horiz-adv-x="400" d="M101 750H237L161 585H57L101 750ZM276 750H413L336 585H233L276 750Z" />
</font>
</defs>
</svg>
