<svg xmlns="http://www.w3.org/2000/svg" width="13.769" height="13.319"><path d="M8.527 3.678c-1.014 0-1.839-.825-1.839-1.839s.825-1.839 1.839-1.839 1.839.825 1.839 1.839-.825 1.839-1.839 1.839zm0-2.678c-.463 0-.839.376-.839.839 0 .462.376.839.839.839.462 0 .839-.376.839-.839 0-.463-.377-.839-.839-.839z"/><path d="M7.598 10.1h-3.528l1.976-5.789h3.756l-2.204 5.789zm-2.132-1h1.437l1.459-3.789h-1.6l-1.296 3.789z"/><polygon points="9.638,13.319 8.552,13.296 9.758,10.132 7.237,10.121 7.242,9.121 11.192,9.139"/><polygon points="11.908,5.311 8.886,5.311 8.886,4.311 11.311,4.311 12.602,1.868 13.769,1.847"/><polygon points="2.782,7.519 1.7,7.487 3.071,4.311 6.404,4.311 6.404,5.311 3.729,5.311"/><polygon points="3.87,13.301 0,13.301 0.383,12.301 3.185,12.301 4.302,9.419 5.234,9.781"/></svg>