<svg xmlns="http://www.w3.org/2000/svg" width="60.898" height="131.178"><path fill-rule="evenodd" clip-rule="evenodd" fill="#fff" d="M40.147 42.466h20.751c-.801 7.8-1.585 15.445-2.383 23.212h-18.413v65.5h-27.211v-65.492h-12.891v-23.206h12.831c0-.714-.006-1.294.001-1.873.07-5.545-.196-11.119.288-16.627.842-9.572 4.963-17.264 14.094-21.509 3.424-1.591 7.089-2.371 10.841-2.422 7.26-.096 14.521-.023 21.783-.017.191 0 .381.045.642.078v22.382h-4.25c-3.277 0-6.556-.038-9.833.011-4.084.062-6.111 1.927-6.222 5.977-.125 4.578-.028 9.161-.028 13.986z"/></svg>