<svg xmlns="http://www.w3.org/2000/svg" width="64" height="64"><path fill="#BF4B4B" d="M52.084 25.118l-.941-2.234c3.227-7.295 3.012-7.512 2.385-8.145l-4.123-4.028-.408-.345h-.479c-.25 0-1.002 0-7.271 2.843l-2.306-.93c-2.982-7.391-3.289-7.391-4.16-7.391h-5.817c-.872 0-1.211-.001-3.976 7.417l-2.297.933c-4.236-1.789-6.72-2.694-7.39-2.694l-.55.017-4.435 4.348c-.673.633-.908.856 2.505 8.038l-.939 2.227c-7.551 2.919-7.551 3.202-7.551 4.095v5.704c0 .895 0 1.209 7.576 3.924l.939 2.223c-3.227 7.291-3.01 7.509-2.383 8.136l4.123 4.034.41.352h.48c.248 0 .991 0 7.267-2.848l2.303.936c2.982 7.39 3.288 7.388 4.163 7.388h5.816c.891 0 1.205 0 3.979-7.414l2.31-.933c4.229 1.789 6.707 2.696 7.373 2.696l.555-.015 4.469-4.376c.637-.642.859-.863-2.535-8.015l.934-2.229c7.561-2.923 7.561-3.229 7.561-4.102v-5.697c-.002-.897-.002-1.211-7.587-3.915zm-20.085 16.371c-5.334 0-9.677-4.259-9.677-9.491 0-5.229 4.343-9.484 9.677-9.484 5.331 0 9.665 4.256 9.665 9.484-.001 5.232-4.335 9.491-9.665 9.491z"/></svg>