<svg xmlns="http://www.w3.org/2000/svg" width="111.762" height="46.818"><path d="M89.823 42.297h-.165v.462h.102c.236 0 .312-.139.312-.255-.001-.144-.069-.207-.249-.207m.26 1.258l-.413-.651h-.012v.651h-.241v-1.438h.415c.34 0 .476.144.476.356 0 .243-.154.391-.39.417l.139.21.317.456h-.291zm-.251-1.745c-.558 0-1.016.458-1.016 1.019 0 .566.458 1.049 1.016 1.049.561 0 1.013-.463 1.013-1.022 0-.56-.452-1.046-1.013-1.046m0 2.31c-.727 0-1.275-.559-1.275-1.277 0-.701.568-1.278 1.275-1.278.724 0 1.274.558 1.274 1.278 0 .689-.585 1.277-1.274 1.277"/><path d="M88.468 32.541c4.495-5.785 8.037-12.587 8.037-17.473 0-2.553-1.833-4.336-4.216-5.687.045 5.31-1.8 17.757-3.821 23.16"/><path d="M73.715 46.818c10.548-3.534 25.828-11.749 36.463-19.088.885-.618 1.584-1.185 1.584-2.182 0-1.732-3.186-4.053-4.719-4.982-8.364 8.69-25.013 21.714-33.328 26.252"/><path d="M83.496 39.426c6.5-4.495 15.943-12.951 19.144-17.548.748-1.082 1.302-1.712 1.302-2.842 0-1.855-2.15-3.218-3.715-4.163-3.731 8.796-12.112 19.752-16.731 24.553"/><path d="M89.417 26.961c.844-5.554.35-12.264-.724-16.469-.578-2.288-2.647-4.877-4.554-5.683 2.497 7.106 4.652 17.226 5.278 22.152"/><path d="M87.564 19.157c-1.971-5.312-6.876-16.412-14.09-19.157 4.698 5.187 11.664 15.487 14.09 19.157"/><path d="M4.6 37.224c-1.488 0-2.957-.176-4.143-.487l.188-3.137c1.154.431 2.77.773 4.262.773 2.252 0 4.078-.944 4.078-3.169-.001-4.323-8.985-2.498-8.985-9.139 0-3.529 2.771-5.994 7.551-5.994 1.223 0 2.471.153 3.715.365l-.182 2.953c-1.182-.358-2.494-.576-3.711-.576-2.558 0-3.87 1.186-3.87 2.889 0 4.114 8.982 2.593 8.982 9.014 0 3.779-2.979 6.508-7.885 6.508"/><path d="M20.492 37.139c-.846 0-1.488-.037-2.282-.181v6.598h-3.263v-21.762h3.081c0 .794-.035 2.012-.182 2.829l.057.007c.851-1.922 2.589-3.14 4.905-3.14 3.594 0 5.569 2.556 5.578 7.125.001 5.322-2.837 8.524-7.894 8.524m1.461-12.968c-2.434 0-3.743 2.864-3.743 5.453v4.661c.697.21 1.461.297 2.375.297 2.593 0 4.356-1.583 4.356-5.664 0-3.04-.95-4.747-2.988-4.747"/><path d="M38.829 24.689c-3.021-.546-4.475 1.557-4.475 6.087v6.153h-3.26v-15.135h3.104c0 .852-.089 2.193-.313 3.35h.073c.667-2.035 2.193-3.929 5.021-3.653l-.15 3.198z"/><path d="M43.48 19.54c-1.157 0-2.101-.917-2.101-2.031 0-1.135.943-2.046 2.101-2.046 1.123 0 2.071.882 2.071 2.046.001 1.114-.947 2.031-2.071 2.031m-1.65 2.254h3.267v15.136h-3.267v-15.136z"/><path d="M58.493 36.924v-9.74c0-1.889-.521-2.985-2.248-2.985-2.29 0-3.968 2.407-3.968 5.425v7.3h-3.251v-15.13h3.103c0 .792-.061 2.102-.209 2.956l.027.038c.879-1.961 2.714-3.297 5.267-3.297 3.438 0 4.504 2.164 4.504 4.841v10.593h-3.225z"/><path d="M70.697 37.196c-3.223-.001-4.202-1.243-4.197-4.625l-.005-8.249h-2.89v-2.528h2.89v-4.809l3.225-.887v5.696h3.995v2.528h-3.964v7.243c0 2.256.46 2.861 1.983 2.861.671 0 1.403-.083 1.98-.237v2.682c-.884.182-2.008.325-3.017.325"/></svg>