<svg xmlns="http://www.w3.org/2000/svg" width="34.886" height="32.908"><path fill-rule="evenodd" clip-rule="evenodd" fill="#F3CD14" stroke="#F3CD14" stroke-width="3" stroke-linecap="round" stroke-linejoin="round" stroke-miterlimit="10" d="M17.449 1.5l1.275 3.886c.702 2.141 1.405 4.283 2.106 6.425.092.284.192.567.263.857.055.239.169.314.419.313 1.842-.012 3.686-.007 5.529-.007h6.329l.015.059c-3.286 2.351-6.57 4.702-9.871 7.065 1.236 3.759 2.471 7.512 3.707 11.267l-.05.039c-3.24-2.3-6.48-4.601-9.723-6.902l-9.725 6.906-.048-.034.626-1.883c1.001-3.047 2.001-6.095 3.011-9.139.071-.213.015-.305-.151-.422-3.207-2.285-6.41-4.576-9.614-6.866l-.048-.091h.321c3.851 0 7.702-.002 11.554.006.244.001.35-.068.426-.303.842-2.605 1.695-5.205 2.546-7.807l1.103-3.369z"/></svg>