<svg xmlns="http://www.w3.org/2000/svg" width="33.219" height="33.219"><path d="M20.461 9.631v3.836c.7.863 1.117 1.951 1.117 3.125 0 2.74-2.229 4.969-4.969 4.969s-4.969-2.229-4.969-4.969c0-1.172.417-2.259 1.116-3.122v-3.838c-2.506 1.382-4.116 4.013-4.116 6.96 0 4.394 3.575 7.969 7.969 7.969s7.969-3.575 7.969-7.969c0-2.948-1.611-5.58-4.117-6.961z"/><rect x="15.109" y="7.452" width="3" height="8.382"/><path d="M16.609 33.219c-9.158 0-16.609-7.451-16.609-16.61s7.451-16.609 16.609-16.609 16.609 7.451 16.609 16.609-7.45 16.61-16.609 16.61zm0-30.219c-7.504 0-13.609 6.105-13.609 13.609s6.105 13.609 13.609 13.609 13.609-6.105 13.609-13.609-6.105-13.609-13.609-13.609z"/></svg>