<svg xmlns="http://www.w3.org/2000/svg" width="100.808" height="131.495"><path fill-rule="evenodd" clip-rule="evenodd" fill="#fff" d="M34.086 33.481h1.667c16.076 0 32.152-.002 48.229.001 8.147.002 15.286 5.896 16.587 13.923 1.355 8.359-3.104 15.905-12.162 18.091-1.712.414-3.529.547-5.298.551-15.857.041-31.714.025-47.571.025h-1.714v1.5c0 4.818-.105 9.64.021 14.455.212 8.043 5.065 14.354 13.408 15.519 4.257.594 8.615.524 12.93.626 5.903.14 11.809.184 17.713.212 1.915.01 3.834-.271 5.747-.228 8.717.201 15.26 5.331 16.507 14.322.731 5.279-.476 9.861-4.082 13.759-2.479 2.682-5.797 3.828-9.255 4.434-2.389.418-4.852.497-7.287.562-5.507.148-11.019.302-16.527.252-5.652-.051-11.306-.263-16.952-.543-10.425-.517-19.459-4.733-27.567-10.989-9.17-7.075-15.101-16.347-17.403-27.744-.684-3.389-.991-6.908-1.005-10.369-.088-21.551-.099-43.103-.013-64.653.03-7.688 3.979-14.03 11.58-16.396 9.916-3.085 20.413 3.179 22.18 13.301.216 1.238.248 2.52.255 3.78.029 4.688.012 9.374.012 14.062v1.547z"/></svg>