<?xml version="1.0" encoding="utf-8"?>
<!-- Generator: Adobe Illustrator 16.0.0, SVG Export Plug-In . SVG Version: 6.00 Build 0)  -->
<!DOCTYPE svg PUBLIC "-//W3C//DTD SVG 1.1//EN" "http://www.w3.org/Graphics/SVG/1.1/DTD/svg11.dtd">
<svg version="1.1" id="Layer_1" xmlns="http://www.w3.org/2000/svg" xmlns:xlink="http://www.w3.org/1999/xlink" x="0px" y="0px"
	 width="13.769px" height="13.319px" viewBox="0 0 13.769 13.319" enable-background="new 0 0 13.769 13.319" xml:space="preserve">
<g>
	<path d="M8.527,3.678c-1.014,0-1.839-0.825-1.839-1.839S7.513,0,8.527,0s1.839,0.825,1.839,1.839S9.541,3.678,8.527,3.678z
		 M8.527,1C8.064,1,7.688,1.376,7.688,1.839c0,0.462,0.376,0.839,0.839,0.839c0.462,0,0.839-0.376,0.839-0.839
		C9.366,1.376,8.989,1,8.527,1z"/>
</g>
<g>
	<path d="M7.598,10.1H4.07l1.976-5.789h3.756L7.598,10.1z M5.466,9.1h1.437l1.459-3.789H6.762L5.466,9.1z"/>
</g>
<g>
	<polygon points="9.638,13.319 8.552,13.296 9.758,10.132 7.237,10.121 7.242,9.121 11.192,9.139 	"/>
</g>
<g>
	<polygon points="11.908,5.311 8.886,5.311 8.886,4.311 11.311,4.311 12.602,1.868 13.769,1.847 	"/>
</g>
<g>
	<polygon points="2.782,7.519 1.7,7.487 3.071,4.311 6.404,4.311 6.404,5.311 3.729,5.311 	"/>
</g>
<g>
	<polygon points="3.87,13.301 0,13.301 0.383,12.301 3.185,12.301 4.302,9.419 5.234,9.781 	"/>
</g>
</svg>
