<?xml version="1.0" encoding="utf-8"?>
<!-- Generator: Adobe Illustrator 16.0.0, SVG Export Plug-In . SVG Version: 6.00 Build 0)  -->
<!DOCTYPE svg PUBLIC "-//W3C//DTD SVG 1.1//EN" "http://www.w3.org/Graphics/SVG/1.1/DTD/svg11.dtd">
<svg version="1.1" id="Layer_1" xmlns="http://www.w3.org/2000/svg" xmlns:xlink="http://www.w3.org/1999/xlink" x="0px" y="0px"
	 width="60.898px" height="131.178px" viewBox="0 0 60.898 131.178" enable-background="new 0 0 60.898 131.178"
	 xml:space="preserve">
<g>
	<path fill-rule="evenodd" clip-rule="evenodd" fill="#FFFFFF" d="M40.147,42.466c6.991,0,13.781,0,20.751,0
		c-0.801,7.8-1.585,15.445-2.383,23.212c-6.169,0-12.201,0-18.413,0c0,21.895,0,43.652,0,65.5c-9.133,0-18.084,0-27.211,0
		c0-21.807,0-43.561,0-65.492c-4.377,0-8.584,0-12.891,0c0-7.808,0-15.438,0-23.206c4.256,0,8.422,0,12.831,0
		c0-0.714-0.006-1.294,0.001-1.873c0.07-5.545-0.196-11.119,0.288-16.627c0.842-9.572,4.963-17.264,14.094-21.509
		C30.638,0.88,34.303,0.1,38.055,0.049c7.26-0.096,14.521-0.023,21.783-0.017c0.191,0,0.381,0.045,0.642,0.078
		c0,7.439,0,14.823,0,22.382c-1.458,0-2.854-0.001-4.25,0c-3.277,0-6.556-0.038-9.833,0.011c-4.084,0.062-6.111,1.927-6.222,5.977
		C40.05,33.058,40.147,37.641,40.147,42.466z"/>
</g>
</svg>
