<?xml version="1.0" encoding="utf-8"?>
<!-- Generator: Adobe Illustrator 15.0.2, SVG Export Plug-In . SVG Version: 6.00 Build 0)  -->
<!DOCTYPE svg PUBLIC "-//W3C//DTD SVG 1.1//EN" "http://www.w3.org/Graphics/SVG/1.1/DTD/svg11.dtd">
<svg version="1.1" id="Layer_1" xmlns="http://www.w3.org/2000/svg" xmlns:xlink="http://www.w3.org/1999/xlink" x="0px" y="0px"
	 width="58px" height="90.094px" viewBox="0 0 58 90.094" enable-background="new 0 0 58 90.094" xml:space="preserve">
<path fill="#BF4B4B" d="M58,29C58,12.984,45.016,0,29,0C12.984,0,0,12.984,0,29c0,4.043,0.83,7.892,2.324,11.388H2.292
	l26.609,49.706c0,0,26.154-48.203,26.916-50.049l0.113-0.208h-0.031C57.25,36.488,58,32.833,58,29z M29.021,52.03
	c-12.653,0-22.909-10.256-22.909-22.909c0-12.654,10.256-22.91,22.909-22.91S51.93,16.467,51.93,29.121
	C51.93,41.774,41.674,52.03,29.021,52.03z"/>
</svg>
