<?xml version="1.0" encoding="utf-8"?>
<!-- Generator: Adobe Illustrator 15.0.2, SVG Export Plug-In . SVG Version: 6.00 Build 0)  -->
<!DOCTYPE svg PUBLIC "-//W3C//DTD SVG 1.1//EN" "http://www.w3.org/Graphics/SVG/1.1/DTD/svg11.dtd">
<svg version="1.1" id="Layer_1" xmlns="http://www.w3.org/2000/svg" xmlns:xlink="http://www.w3.org/1999/xlink" x="0px" y="0px"
	 width="64px" height="64px" viewBox="0 0 64 64" enable-background="new 0 0 64 64" xml:space="preserve">
<g>
	<g>
		<path fill="#BF4B4B" d="M52.084,25.118l-0.941-2.234c3.227-7.295,3.012-7.512,2.385-8.145l-4.123-4.028l-0.408-0.345h-0.479
			c-0.25,0-1.002,0-7.271,2.843l-2.306-0.93c-2.982-7.391-3.289-7.391-4.16-7.391h-5.817c-0.872,0-1.211-0.001-3.976,7.417
			l-2.297,0.933c-4.236-1.789-6.72-2.694-7.39-2.694l-0.55,0.017l-4.435,4.348c-0.673,0.633-0.908,0.856,2.505,8.038l-0.939,2.227
			c-7.551,2.919-7.551,3.202-7.551,4.095v5.704c0,0.895,0,1.209,7.576,3.924l0.939,2.223c-3.227,7.291-3.01,7.509-2.383,8.136
			l4.123,4.034l0.41,0.352h0.48c0.248,0,0.991,0,7.267-2.848l2.303,0.936c2.982,7.39,3.288,7.388,4.163,7.388h5.816
			c0.891,0,1.205,0,3.979-7.414l2.31-0.933c4.229,1.789,6.707,2.696,7.373,2.696l0.555-0.015l4.469-4.376
			c0.637-0.642,0.859-0.863-2.535-8.015l0.934-2.229c7.561-2.923,7.561-3.229,7.561-4.102v-5.697
			C59.669,28.136,59.669,27.822,52.084,25.118z M31.999,41.489c-5.334,0-9.677-4.259-9.677-9.491c0-5.229,4.343-9.484,9.677-9.484
			c5.331,0,9.665,4.256,9.665,9.484C41.663,37.23,37.329,41.489,31.999,41.489z"/>
	</g>
</g>
</svg>
