<?xml version="1.0" encoding="utf-8"?>
<!-- Generator: Adobe Illustrator 16.0.0, SVG Export Plug-In . SVG Version: 6.00 Build 0)  -->
<!DOCTYPE svg PUBLIC "-//W3C//DTD SVG 1.1//EN" "http://www.w3.org/Graphics/SVG/1.1/DTD/svg11.dtd">
<svg version="1.1" id="Layer_1" xmlns="http://www.w3.org/2000/svg" xmlns:xlink="http://www.w3.org/1999/xlink" x="0px" y="0px"
	 width="111.762px" height="46.818px" viewBox="0 0 111.762 46.818" enable-background="new 0 0 111.762 46.818"
	 xml:space="preserve">
<g>
	<g>
		<path d="M89.823,42.297h-0.165v0.462h0.102c0.236,0,0.312-0.139,0.312-0.255C90.071,42.36,90.003,42.297,89.823,42.297
			 M90.083,43.555l-0.413-0.651h-0.012v0.651h-0.241v-1.438h0.415c0.34,0,0.476,0.144,0.476,0.356c0,0.243-0.154,0.391-0.39,0.417
			c0.034,0.041,0.085,0.119,0.139,0.21l0.317,0.456H90.083z M89.832,41.81c-0.558,0-1.016,0.458-1.016,1.019
			c0,0.566,0.458,1.049,1.016,1.049c0.561,0,1.013-0.463,1.013-1.022C90.845,42.296,90.393,41.81,89.832,41.81 M89.832,44.12
			c-0.727,0-1.275-0.559-1.275-1.277c0-0.701,0.568-1.278,1.275-1.278c0.724,0,1.274,0.558,1.274,1.278
			C91.106,43.532,90.521,44.12,89.832,44.12"/>
		<path d="M88.468,32.541c4.495-5.785,8.037-12.587,8.037-17.473c0-2.553-1.833-4.336-4.216-5.687
			C92.334,14.691,90.489,27.138,88.468,32.541"/>
		<path d="M73.715,46.818c10.548-3.534,25.828-11.749,36.463-19.088c0.885-0.618,1.584-1.185,1.584-2.182
			c0-1.732-3.186-4.053-4.719-4.982C98.679,29.256,82.03,42.28,73.715,46.818"/>
		<path d="M83.496,39.426c6.5-4.495,15.943-12.951,19.144-17.548c0.748-1.082,1.302-1.712,1.302-2.842
			c0-1.855-2.15-3.218-3.715-4.163C96.496,23.669,88.115,34.625,83.496,39.426"/>
		<path d="M89.417,26.961c0.844-5.554,0.35-12.264-0.724-16.469c-0.578-2.288-2.647-4.877-4.554-5.683
			C86.636,11.915,88.791,22.035,89.417,26.961"/>
		<path d="M87.564,19.157C85.593,13.845,80.688,2.745,73.474,0C78.172,5.187,85.138,15.487,87.564,19.157"/>
		<path d="M4.6,37.224c-1.488,0-2.957-0.176-4.143-0.487L0.645,33.6c1.154,0.431,2.77,0.773,4.262,0.773
			c2.252,0,4.078-0.944,4.078-3.169C8.984,26.881,0,28.706,0,22.065c0-3.529,2.771-5.994,7.551-5.994
			c1.223,0,2.471,0.153,3.715,0.365l-0.182,2.953c-1.182-0.358-2.494-0.576-3.711-0.576c-2.558,0-3.87,1.186-3.87,2.889
			c0,4.114,8.982,2.593,8.982,9.014C12.485,34.495,9.506,37.224,4.6,37.224"/>
		<path d="M20.492,37.139c-0.846,0-1.488-0.037-2.282-0.181v6.598h-3.263V21.794h3.081c0,0.794-0.035,2.012-0.182,2.829l0.057,0.007
			c0.851-1.922,2.589-3.14,4.905-3.14c3.594,0,5.569,2.556,5.578,7.125C28.387,33.937,25.549,37.139,20.492,37.139 M21.953,24.171
			c-2.434,0-3.743,2.864-3.743,5.453v4.661c0.697,0.21,1.461,0.297,2.375,0.297c2.593,0,4.356-1.583,4.356-5.664
			C24.941,25.878,23.991,24.171,21.953,24.171"/>
		<path d="M38.829,24.689c-3.021-0.546-4.475,1.557-4.475,6.087v6.153h-3.26V21.794h3.104c0,0.852-0.089,2.193-0.313,3.35h0.073
			c0.667-2.035,2.193-3.929,5.021-3.653L38.829,24.689z"/>
		<path d="M43.48,19.54c-1.157,0-2.101-0.917-2.101-2.031c0-1.135,0.943-2.046,2.101-2.046c1.123,0,2.071,0.882,2.071,2.046
			C45.552,18.623,44.604,19.54,43.48,19.54 M41.83,21.794h3.267v12.872v2.264H41.83V21.794z"/>
		<path d="M58.493,36.924v-9.74c0-1.889-0.521-2.985-2.248-2.985c-2.29,0-3.968,2.407-3.968,5.425v7.3h-3.251v-15.13h3.103
			c0,0.792-0.061,2.102-0.209,2.956l0.027,0.038c0.879-1.961,2.714-3.297,5.267-3.297c3.438,0,4.504,2.164,4.504,4.841v10.593
			H58.493z"/>
		<path d="M70.697,37.196c-3.223-0.001-4.202-1.243-4.197-4.625l-0.005-8.249h-2.89v-2.528h2.89v-4.809l3.225-0.887v5.696h3.995
			v2.528h-3.964v7.243c0,2.256,0.46,2.861,1.983,2.861c0.671,0,1.403-0.083,1.98-0.237v2.682
			C72.83,37.053,71.706,37.196,70.697,37.196"/>
	</g>
</g>
</svg>
