<?xml version="1.0" encoding="utf-8"?>
<!-- Generator: Adobe Illustrator 16.0.0, SVG Export Plug-In . SVG Version: 6.00 Build 0)  -->
<!DOCTYPE svg PUBLIC "-//W3C//DTD SVG 1.1//EN" "http://www.w3.org/Graphics/SVG/1.1/DTD/svg11.dtd">
<svg version="1.1" id="Layer_1" xmlns="http://www.w3.org/2000/svg" xmlns:xlink="http://www.w3.org/1999/xlink" x="0px" y="0px"
	 width="34.886px" height="32.908px" viewBox="0 0 34.886 32.908" enable-background="new 0 0 34.886 32.908" xml:space="preserve">
<g id="IruKH9_4_">
	<g>
		
			<path fill-rule="evenodd" clip-rule="evenodd" fill="#D6D5D5" stroke="#D6D5D5" stroke-width="3" stroke-linecap="round" stroke-linejoin="round" stroke-miterlimit="10" d="
			M17.449,1.5c0.442,1.348,0.859,2.616,1.275,3.886c0.702,2.141,1.405,4.283,2.106,6.425c0.092,0.284,0.192,0.567,0.263,0.857
			c0.055,0.239,0.169,0.314,0.419,0.313c1.842-0.012,3.686-0.007,5.529-0.007c2.018,0,4.035,0,6.053,0c0.094,0,0.185,0,0.276,0
			c0.005,0.019,0.01,0.038,0.015,0.059c-3.286,2.351-6.57,4.702-9.871,7.065c1.236,3.759,2.471,7.512,3.707,11.267
			c-0.017,0.013-0.034,0.025-0.05,0.039c-3.24-2.3-6.48-4.601-9.723-6.902c-3.25,2.309-6.488,4.607-9.725,6.906
			c-0.016-0.012-0.032-0.022-0.048-0.034c0.209-0.627,0.419-1.254,0.626-1.883c1.001-3.047,2.001-6.095,3.011-9.139
			c0.071-0.213,0.015-0.305-0.151-0.422c-3.207-2.285-6.41-4.576-9.614-6.866c-0.014-0.009-0.017-0.031-0.048-0.091
			c0.119,0,0.221,0,0.321,0c3.851,0,7.702-0.002,11.554,0.006c0.244,0.001,0.35-0.068,0.426-0.303
			c0.842-2.605,1.695-5.205,2.546-7.807C16.705,3.774,17.062,2.679,17.449,1.5z"/>
	</g>
</g>
</svg>
