<?xml version="1.0" encoding="utf-8"?>
<!-- Generator: Adobe Illustrator 16.0.0, SVG Export Plug-In . SVG Version: 6.00 Build 0)  -->
<!DOCTYPE svg PUBLIC "-//W3C//DTD SVG 1.1//EN" "http://www.w3.org/Graphics/SVG/1.1/DTD/svg11.dtd">
<svg version="1.1" id="Layer_1" xmlns="http://www.w3.org/2000/svg" xmlns:xlink="http://www.w3.org/1999/xlink" x="0px" y="0px"
	 width="37.735px" height="35.587px" viewBox="0 0 37.735 35.587" enable-background="new 0 0 37.735 35.587" xml:space="preserve">
<g>
	<g>
		
			<circle fill="none" stroke="#000000" stroke-width="3" stroke-linecap="square" stroke-linejoin="bevel" stroke-miterlimit="10" cx="10.03" cy="14.997" r="1.103"/>
		
			<circle fill="none" stroke="#000000" stroke-width="3" stroke-linecap="square" stroke-linejoin="bevel" stroke-miterlimit="10" cx="18.868" cy="14.997" r="1.104"/>
		
			<circle fill="none" stroke="#000000" stroke-width="3" stroke-linecap="square" stroke-linejoin="bevel" stroke-miterlimit="10" cx="27.703" cy="14.997" r="1.104"/>
	</g>
	<path fill="none" stroke="#000000" stroke-width="3" stroke-linecap="square" stroke-linejoin="bevel" stroke-miterlimit="10" d="
		M29.92,1.5c0,0-15.789,0-22.104,0S1.5,7.815,1.5,7.815s0,6.316,0,12.631c0,6.316,6.315,6.316,6.315,6.316s0.792,0,2.104,0
		l-2.104,7.719l8.421-7.719c6.105,0,9.733,0,13.684,0c6.315,0,6.315-6.316,6.315-6.316s0-6.314,0-12.631
		C36.235,1.5,29.92,1.5,29.92,1.5z"/>
</g>
</svg>
