<?xml version="1.0" encoding="utf-8"?>
<!-- Generator: Adobe Illustrator 16.0.0, SVG Export Plug-In . SVG Version: 6.00 Build 0)  -->
<!DOCTYPE svg PUBLIC "-//W3C//DTD SVG 1.1//EN" "http://www.w3.org/Graphics/SVG/1.1/DTD/svg11.dtd">
<svg version="1.1" id="Layer_1" xmlns="http://www.w3.org/2000/svg" xmlns:xlink="http://www.w3.org/1999/xlink" x="0px" y="0px"
	 width="33.219px" height="33.219px" viewBox="0 0 33.219 33.219" enable-background="new 0 0 33.219 33.219" xml:space="preserve">
<path d="M20.461,9.631v3.836c0.7,0.863,1.117,1.951,1.117,3.125c0,2.74-2.229,4.969-4.969,4.969s-4.969-2.229-4.969-4.969
	c0-1.172,0.417-2.259,1.116-3.122V9.632c-2.506,1.382-4.116,4.013-4.116,6.96c0,4.394,3.575,7.969,7.969,7.969
	s7.969-3.575,7.969-7.969C24.578,13.644,22.967,11.012,20.461,9.631z"/>
<g>
	<rect x="15.109" y="7.452" width="3" height="8.382"/>
</g>
<g>
	<path d="M16.609,33.219C7.451,33.219,0,25.768,0,16.609S7.451,0,16.609,0s16.609,7.451,16.609,16.609S25.768,33.219,16.609,33.219z
		 M16.609,3C9.105,3,3,9.105,3,16.609s6.105,13.609,13.609,13.609s13.609-6.105,13.609-13.609S24.113,3,16.609,3z"/>
</g>
</svg>
