<?xml version="1.0" encoding="utf-8"?>
<!-- Generator: Adobe Illustrator 16.0.0, SVG Export Plug-In . SVG Version: 6.00 Build 0)  -->
<!DOCTYPE svg PUBLIC "-//W3C//DTD SVG 1.1//EN" "http://www.w3.org/Graphics/SVG/1.1/DTD/svg11.dtd">
<svg version="1.1" id="Layer_1" xmlns="http://www.w3.org/2000/svg" xmlns:xlink="http://www.w3.org/1999/xlink" x="0px" y="0px"
	 width="100.808px" height="131.495px" viewBox="0 0 100.808 131.495" enable-background="new 0 0 100.808 131.495"
	 xml:space="preserve">
<g>
	<path fill-rule="evenodd" clip-rule="evenodd" fill="#FFFFFF" d="M34.086,33.481c0.641,0,1.154,0,1.667,0
		c16.076,0,32.152-0.002,48.229,0.001c8.147,0.002,15.286,5.896,16.587,13.923c1.355,8.359-3.104,15.905-12.162,18.091
		c-1.712,0.414-3.529,0.547-5.298,0.551c-15.857,0.041-31.714,0.025-47.571,0.025c-0.518,0-1.036,0-1.714,0c0,0.57,0,1.035,0,1.5
		c0,4.818-0.105,9.64,0.021,14.455c0.212,8.043,5.065,14.354,13.408,15.519c4.257,0.594,8.615,0.524,12.93,0.626
		c5.903,0.14,11.809,0.184,17.713,0.212c1.915,0.01,3.834-0.271,5.747-0.228c8.717,0.201,15.26,5.331,16.507,14.322
		c0.731,5.279-0.476,9.861-4.082,13.759c-2.479,2.682-5.797,3.828-9.255,4.434c-2.389,0.418-4.852,0.497-7.287,0.562
		c-5.507,0.148-11.019,0.302-16.527,0.252c-5.652-0.051-11.306-0.263-16.952-0.543c-10.425-0.517-19.459-4.733-27.567-10.989
		C9.31,112.878,3.379,103.606,1.077,92.209C0.393,88.82,0.086,85.301,0.072,81.84c-0.088-21.551-0.099-43.103-0.013-64.653
		c0.03-7.688,3.979-14.03,11.58-16.396c9.916-3.085,20.413,3.179,22.18,13.301c0.216,1.238,0.248,2.52,0.255,3.78
		c0.029,4.688,0.012,9.374,0.012,14.062C34.086,32.402,34.086,32.872,34.086,33.481z"/>
</g>
</svg>
