<?xml version="1.0" standalone="no"?> <!DOCTYPE svg PUBLIC "-//W3C//DTD SVG 1.0//EN" "http://www.w3.org/TR/2001/REC-SVG-20010904/DTD/svg10.dtd" > <svg xmlns="http://www.w3.org/2000/svg" width="100%" height="100%">
<defs >
<font horiz-adv-x="526" ><font-face
    font-family="Sprint Sans Web"
    units-per-em="1000"
    panose-1="2 11 5 3 3 2 2 13 2 3"
    ascent="823"
    descent="-177"
    alphabetic="0" />
<missing-glyph horiz-adv-x="487" />
<glyph unicode=" " glyph-name="space" horiz-adv-x="261" />
<glyph unicode="!" glyph-name="exclam" horiz-adv-x="269" d="M104 -5Q79 -5 62 12T44 54Q44 79 61 96T103 113Q127 113 145 96T163 54Q163 29 146 12T104 -5ZM164 715H249L154 197H94L164 715Z" />
<glyph unicode="&quot;" glyph-name="quotedbl" horiz-adv-x="346" d="M124 715H207L157 478H102L124 715ZM280 715H362L313 478H257L280 715Z" />
<glyph unicode="#" glyph-name="numbersign" horiz-adv-x="487" d="M119 285H31L41 349H134L166 487H77L87 551H182L220 715H283L245 551H347L385 715H448L410 551H499L489 487H394L362 349H453L443 285H347L303 99H240L284 285H182L138 99H75L119 285ZM299 349L331
487H229L197 349H299Z" />
<glyph unicode="$" glyph-name="dollar" horiz-adv-x="600" d="M284 -9L266 -125H211L230 -4Q179 4 141 24T78 73T39 139T25 215H102Q103 188 112 163T137 117T179 81T240 59L284 342Q239 356 205 372T149 410T115 460T103 527Q103 568 120 604T170 666T246 708T345
724L359 813H414L399 720Q477 707 525 660T576 531H504Q499 588 468 617T389 655L349 397Q398 382 434 365T494 325T530 275T542 208Q542 160 525 121T475 52T396 7T291 -9H284ZM465 201Q465 224 459 242T438 274T399 301T337 326L294 55Q376 55 420 94T465 201ZM179
530Q179 510 184 494T202 464T238 438T296 414L335 660Q257 659 218 623T179 530Z" />
<glyph unicode="%" glyph-name="percent" horiz-adv-x="767" d="M223 445Q269 445 295 479T322 567Q322 584 318 601T304 631T278 653T239 662Q214 662 195 652T164 625T145 585T139 537Q139 519 143 503T157 474T183 453T223 445ZM221 386Q187 386 159 398T111
430T80 479T69 540Q69 576 82 609T118 667T173 706T242 721Q276 721 304 709T351 676T381 626T392 564Q392 528 379 496T343 439T288 400T221 386ZM639 715H712L161 0H88L639 715ZM561 51Q607 51 633 85T660 173Q660 190 656 207T642 237T616 259T577 268Q552 268
533 258T502 231T483 191T477 143Q477 125 481 109T495 80T521 59T561 51ZM559 -8Q525 -8 497 4T449 36T418 85T407 146Q407 182 420 215T456 273T511 312T580 327Q614 327 642 315T689 282T719 232T730 170Q730 134 717 102T681 45T626 6T559 -8Z" />
<glyph unicode="&amp;" glyph-name="ampersand" horiz-adv-x="662" d="M241 -6Q203 -6 166 3T98 35T50 92T31 179Q31 224 46 259T89 322T152 370T231 408Q210 443 199 476T187 542Q187 582 200 615T237 671T293 706T362 719Q394 719 422 710T470 682T503 637T515
578Q515 539 500 509T459 457T401 417T334 386L459 199L570 367H644L496 144L592 0H503L443 89Q408 51 356 23T241 -6ZM243 56Q288 56 331 78T410 139L261 361Q232 350 205 335T156 299T123 249T110 181Q110 121 146 89T243 56ZM306 433Q330 443 354 454T398 482T430
521T442 576Q442 609 423 634T361 660Q317 660 289 631T261 550Q261 523 273 495T306 433Z" />
<glyph unicode="&apos;" glyph-name="quotesingle" horiz-adv-x="190" d="M124 715H207L157 478H102L124 715Z" />
<glyph unicode="(" glyph-name="parenleft" horiz-adv-x="304" d="M149 -148Q101 -78 73 9T44 203Q44 290 62 369T112 520T189 655T290 773H374Q317 714 271 651T192 517T141 368T123 203Q123 103 149 17T223 -148H149V-148Z" />
<glyph unicode=")" glyph-name="parenright" horiz-adv-x="304" d="M-56 -148Q1 -90 47 -27T125 107T176 256T194 422Q194 522 168 608T95 773H168Q216 703 244 616T273 422Q273 334 255 255T205 104T128 -30T27 -148H-56V-148Z" />
<glyph unicode="*" glyph-name="asterisk" horiz-adv-x="408" d="M244 534L153 419L106 460L208 566L88 605L118 665L231 610L246 743H313L285 607L413 647L423 585L292 561L360 445L302 411L244 534Z" />
<glyph unicode="+" glyph-name="plus" horiz-adv-x="504" d="M225 310H36L46 374H235L267 578H334L302 374H491L481 310H292L260 106H192L225 310Z" />
<glyph unicode="," glyph-name="comma" horiz-adv-x="259" d="M90 2Q65 5 51 19T36 58Q36 81 53 97T94 113Q120 113 139 92T152 24L150 13Q141 -40 105 -66T11 -95L18 -51Q51 -46 68 -33T90 2Z" />
<glyph unicode="-" glyph-name="hyphen" horiz-adv-x="321" d="M60 311H273L262 240H49L60 311Z" />
<glyph unicode="." glyph-name="period" horiz-adv-x="257" d="M95 -5Q70 -5 53 12T35 54Q35 79 52 96T94 113Q118 113 136 96T154 54Q154 29 137 12T95 -5Z" />
<glyph unicode="/" glyph-name="slash" horiz-adv-x="387" d="M370 776H442L7 -148H-64L370 776Z" />
<glyph unicode="0" glyph-name="zero" horiz-adv-x="663" d="M314 56Q405 56 462 125T541 328L547 369Q550 388 551 408T553 448Q553 488 545 526T518 595T466 643T384 661Q294 661 233 591T151 389L144 348Q141 328 139 307T137 263Q137 224 145 187T173 120T228
74T314 56ZM309 -7Q245 -7 199 14T122 72T76 158T61 264Q61 287 62 309T68 353L75 395Q87 470 114 530T182 633T274 699T388 722Q452 722 497 701T572 642T616 555T630 448Q630 427 629 405T623 360L616 319Q604 245 578 185T512 82T422 16T309 -7Z" />
<glyph unicode="1" glyph-name="one" horiz-adv-x="379" d="M244 633L65 519L77 595L263 715H337L224 0H144L244 633Z" />
<glyph unicode="2" glyph-name="two" horiz-adv-x="537" d="M-37 18L305 313Q331 336 355 361T398 413T428 472T439 538Q439 563 432 585T409 623T372 649T319 659Q258 660 213 625T145 498H70Q79 556 102 598T158 669T234 710T324 724Q365 724 400 712T462 676T504
618T520 540Q520 496 506 459T468 388T412 323T342 261L111 65H457L446 0H-39L-37 18Z" />
<glyph unicode="3" glyph-name="three" horiz-adv-x="582" d="M261 -9Q207 -9 163 6T87 50T39 119T22 209H98Q99 177 108 149T138 101T190 68T265 56Q345 56 391 95T438 218Q438 272 405 306T298 341H253L264 408H324Q354 408 380 415T425 439T456 481T468 543Q468
597 435 627T343 658Q277 658 232 624T170 520H100Q107 566 128 603T182 668T257 709T347 724Q384 724 420 714T484 681T530 625T547 545Q547 482 511 436T409 372Q462 356 491 317T520 218Q520 165 501 123T448 52T366 7T261 -9Z" />
<glyph unicode="4" glyph-name="four" horiz-adv-x="599" d="M373 152H14L19 178L433 715H541L462 218H561L550 152H451L428 0H349L373 152ZM384 218L452 647L126 218H384Z" />
<glyph unicode="5" glyph-name="five" horiz-adv-x="568" d="M249 -9Q201 -9 161 4T91 42T44 104T24 191H101Q106 129 141 93T250 56Q335 56 383 111T432 260Q432 323 396 364T286 405Q228 405 189 385T118 334H88L149 715H548L537 646H204L169 422Q193 442 228
456T312 470Q357 470 394 455T458 413T499 348T514 263Q514 205 495 156T441 70T357 12T249 -9Z" />
<glyph unicode="6" glyph-name="six" horiz-adv-x="601" d="M290 -9Q175 -9 115 54T54 236Q54 259 56 283T63 332L69 368Q80 436 103 500T163 614T255 694T384 724Q476 724 526 679T582 553H506Q501 601 473 629T379 658Q328 658 290 636T224 575T178 486T150
377L149 369Q182 414 229 438T337 462Q382 462 420 448T487 406T532 341T549 256Q549 200 531 152T478 68T396 12T290 -9ZM132 210Q132 178 141 150T171 100T220 67T291 54Q331 54 363 69T419 111T454 174T467 252Q467 282 458 309T430 356T382 387T314 399Q275
399 242 385T185 345T146 285T132 210Z" />
<glyph unicode="7" glyph-name="seven" horiz-adv-x="507" d="M445 650H82L92 715H560L558 704L167 0H84L445 650Z" />
<glyph unicode="8" glyph-name="eight" horiz-adv-x="588" d="M278 -9Q234 -9 192 3T116 40T63 100T42 185Q42 266 89 319T212 393Q169 411 145 447T120 529Q120 572 138 608T187 670T260 710T349 724Q388 724 424 712T489 677T535 622T553 547Q553 479 516 441T417
384Q471 364 502 320T534 217Q534 162 514 120T458 50T377 6T278 -9ZM282 57Q319 57 350 67T404 98T439 148T452 217Q452 248 441 273T409 316T361 343T301 353Q263 353 231 343T175 313T138 264T124 195Q124 163 136 138T169 94T220 67T282 57ZM334 416Q361 416
386 423T430 445T461 485T473 543Q473 568 464 589T437 627T396 652T343 661Q315 661 289 653T244 629T212 589T200 532Q200 508 209 487T236 450T279 425T334 416Z" />
<glyph unicode="9" glyph-name="nine" horiz-adv-x="602" d="M252 -8Q209 -8 171 2T105 35T58 91T36 173H114Q123 109 159 84T258 58Q342 58 398 125T478 336L479 344Q449 300 400 277T291 254Q248 254 210 267T143 307T97 372T80 460Q80 517 99 565T154 649T238
705T346 725Q457 725 514 662T572 484Q572 461 571 436T564 385L556 337Q527 159 450 76T252 -8ZM162 463Q162 397 198 357T302 317Q342 317 377 329T438 364T480 423T495 505Q495 536 487 564T460 614T412 649T343 662Q302 662 269 647T212 606T175 543T162 463Z"
/>
<glyph unicode=":" glyph-name="colon" horiz-adv-x="266" d="M98 -5Q74 -5 57 12T39 54Q39 79 56 96T98 113Q122 113 140 96T158 54Q158 29 141 12T98 -5ZM147 298Q123 298 106 315T88 357Q88 383 105 399T146 416Q171 416 189 400T207 357Q207 332 190 315T147 298Z" />
<glyph unicode=";" glyph-name="semicolon" horiz-adv-x="268" d="M93 2Q68 5 54 19T39 58Q39 81 56 97T97 113Q123 113 142 92T155 24L153 13Q144 -40 108 -66T14 -95L21 -51Q54 -46 71 -33T93 2ZM148 298Q124 298 107 315T89 357Q89 383 106 399T148 416Q172
416 190 400T208 357Q208 332 191 315T148 298Z" />
<glyph unicode="&lt;" glyph-name="less" horiz-adv-x="489" d="M53 317L56 336L474 546L462 471L164 324L414 169L403 97L53 317Z" />
<glyph unicode="=" glyph-name="equal" horiz-adv-x="471" d="M33 266H437L427 200H23L33 266ZM61 443H465L454 377H50L61 443Z" />
<glyph unicode="&gt;" glyph-name="greater" horiz-adv-x="489" d="M43 174L342 321L92 476L103 546L453 326L450 308L32 97L43 174Z" />
<glyph unicode="?" glyph-name="question" horiz-adv-x="473" d="M171 250Q177 285 191 311T223 359T264 397T308 431Q327 446 343 459T372 489T390 523T397 567Q397 611 368 635T287 660Q232 660 193 626T142 526H69Q75 574 95 611T145 673T213 711T296 724Q341
724 375 712T431 678T464 628T475 568Q475 531 464 504T435 456T394 417T346 381Q326 367 309 353T277 322T252 287T238 244L231 197H163L171 250ZM179 -5Q155 -5 138 12T120 54Q120 79 137 96T178 113Q203 113 220 96T238 54Q238 29 221 12T179 -5Z" />
<glyph unicode="@" glyph-name="at" horiz-adv-x="900" d="M457 -147Q357 -147 280 -114T150 -24T70 106T43 260Q43 352 77 430T170 566T306 655T470 688Q560 688 633 660T758 583T838 466T867 322Q867 252 849 204T802 125T740 82T676 68Q618 68 592 93T560 157Q540
117 503 89T412 61Q340 61 297 105T253 231Q253 281 268 324T311 399T376 449T456 467Q483 467 503 461T539 445T563 421T577 393L588 459H664L625 209Q614 123 677 123Q699 123 721 134T761 170T790 231T801 320Q801 388 779 444T714 541T610 604T470 627Q394
627 329 600T216 525T141 409T114 262Q114 193 135 130T200 19T307 -57T457 -86Q500 -86 535 -81T599 -64T653 -37T701 0H772Q753 -32 722 -59T651 -105T561 -136T457 -147ZM426 120Q452 120 476 132T520 168T551 223T563 296Q563 350 536 378T463 406Q435 406
411 394T369 358T341 303T331 229Q331 175 357 148T426 120Z" />
<glyph unicode="A" glyph-name="A" horiz-adv-x="635" d="M337 715H442L575 0H497L459 209H158L53 0H-24L337 715ZM447 273L377 649L189 273H447Z" />
<glyph unicode="B" glyph-name="B" horiz-adv-x="606" d="M155 715H356Q453 715 508 675T563 549Q563 414 425 372Q549 343 549 216Q549 166 531 126T481 58T402 15T299 0H42L155 715ZM299 63Q385 63 428 105T471 218Q471 276 435 307T314 338H173L129 63H299ZM319
401Q400 401 442 436T485 545Q485 599 454 625T354 652H223L183 401H319Z" />
<glyph unicode="C" glyph-name="C" horiz-adv-x="719" d="M379 -9Q305 -9 247 13T147 76T84 175T62 305Q62 392 89 468T167 602T288 692T442 725Q495 725 541 711T623 667T681 594T707 494H632Q619 576 572 619T438 662Q369 662 315 634T223 558T165 444T145 305Q145
187 204 122T380 56Q468 56 526 105T611 235H688Q673 179 644 134T575 57T485 8T379 -9Z" />
<glyph unicode="D" glyph-name="D" horiz-adv-x="685" d="M246 65Q324 65 386 88T491 156T556 264T579 409Q579 461 565 505T521 581T442 631T325 650H225L132 65H246ZM155 715H329Q416 715 478 692T581 628T641 532T660 410Q660 324 633 249T554 119T426 32T249
0H42L155 715Z" />
<glyph unicode="E" glyph-name="E" horiz-adv-x="558" d="M155 715H566L555 650H224L184 399H455L445 333H174L132 65H486L475 0H42L155 715Z" />
<glyph unicode="F" glyph-name="F" horiz-adv-x="540" d="M155 715H570L559 650H224L183 390H445L434 324H173L122 0H42L155 715Z" />
<glyph unicode="G" glyph-name="G" horiz-adv-x="756" d="M388 -9Q310 -9 250 15T148 83T85 186T63 314Q63 398 91 472T168 603T287 691T437 724Q491 724 539 711T625 670T687 601T715 502H636Q632 542 615 572T572 621T510 650T435 660Q368 660 315 633T224 559T166
449T146 314Q146 256 161 209T207 127T284 75T390 56Q445 56 487 73T559 121T609 196T636 292H421L432 358H723Q715 262 689 193T620 79T519 13T388 -9Z" />
<glyph unicode="H" glyph-name="H" horiz-adv-x="714" d="M155 715H235L183 389H569L621 715H701L588 0H508L559 322H172L122 0H42L155 715Z" />
<glyph unicode="I" glyph-name="I" horiz-adv-x="260" d="M160 715H240L127 0H47L160 715Z" />
<glyph unicode="J" glyph-name="J" horiz-adv-x="402" d="M106 -8Q56 -8 31 1T-9 18L1 82Q21 73 45 65T104 57Q158 57 190 87T233 184L317 715H397L311 177Q295 79 240 36T106 -8Z" />
<glyph unicode="K" glyph-name="K" horiz-adv-x="603" d="M154 715H241L187 375L550 715H651L278 370L550 0H453L185 359L128 0H41L154 715Z" />
<glyph unicode="L" glyph-name="L" horiz-adv-x="521" d="M155 715H235L132 65H464L453 0H42L155 715Z" />
<glyph unicode="M" glyph-name="M" horiz-adv-x="842" d="M155 715H264L402 145L714 715H828L715 0H635L732 612L391 0H366L212 612L116 0H42L155 715Z" />
<glyph unicode="N" glyph-name="N" horiz-adv-x="708" d="M155 715H257L523 113L619 715H695L582 0H492L217 622L118 0H42L155 715Z" />
<glyph unicode="O" glyph-name="O" horiz-adv-x="799" d="M390 57Q455 57 509 83T602 155T662 264T684 401Q684 454 669 501T623 583T547 638T444 659Q375 659 320 632T226 557T166 447T145 314Q145 255 163 208T213 127T290 75T390 57ZM389 -9Q314 -9 254 15T151
83T85 185T62 314Q62 398 91 473T172 603T294 691T445 724Q522 724 581 699T682 629T744 526T766 401Q766 313 737 238T657 108T537 22T389 -9Z" />
<glyph unicode="P" glyph-name="P" horiz-adv-x="567" d="M155 715H349Q398 715 438 704T508 669T554 612T570 530Q570 465 548 421T488 348T401 307T299 294H168L122 0H42L155 715ZM303 358Q396 358 443 401T490 529Q490 593 453 621T341 650H225L178 358H303Z" />
<glyph unicode="Q" glyph-name="Q" horiz-adv-x="799" d="M540 23Q470 -9 389 -9Q314 -9 254 15T151 83T85 185T62 314Q62 398 91 473T172 603T294 691T445 724Q522 724 581 699T682 629T744 526T766 401Q766 291 722 202T602 59L682 -37L627 -83L540 23ZM390
57Q446 57 495 77L416 174L471 219L558 113Q617 159 650 233T684 401Q684 454 669 501T623 583T547 638T444 659Q375 659 320 632T226 557T166 447T145 314Q145 255 163 208T213 127T290 75T390 57Z" />
<glyph unicode="R" glyph-name="R" horiz-adv-x="610" d="M155 715H360Q407 715 447 704T517 670T562 613T578 534Q578 485 562 448T518 384T453 342T372 321L548 0H462L291 314H171L122 0H42L155 715ZM318 378Q406 378 452 415T499 534Q500 596 463 623T356 650H225L181
378H318Z" />
<glyph unicode="S" glyph-name="S" horiz-adv-x="607" d="M288 -9Q222 -9 173 9T91 58T42 129T25 215H104Q105 183 116 155T151 104T209 69T293 56Q375 55 420 94T466 202Q466 227 459 246T433 282T385 311T309 337Q258 352 220 368T155 406T115 457T102 527Q102
568 119 604T167 666T242 708T340 724Q442 724 504 675T569 531H495Q488 602 445 630T333 659Q254 659 216 623T178 530Q178 508 185 491T210 460T258 432T336 405Q389 389 428 372T494 332T532 280T545 210Q545 162 527 122T476 53T395 8T288 -9Z" />
<glyph unicode="T" glyph-name="T" horiz-adv-x="547" d="M292 650H81L92 715H595L584 650H372L271 0H191L292 650Z" />
<glyph unicode="U" glyph-name="U" horiz-adv-x="680" d="M317 -8Q181 -8 119 65T79 281L148 715H228L159 280Q140 161 181 110T321 58Q404 58 454 104T521 258L594 715H674L600 248Q591 189 570 142T514 61T430 10T317 -8Z" />
<glyph unicode="V" glyph-name="V" horiz-adv-x="621" d="M85 715H163L281 78L599 715H676L315 0H219L85 715Z" />
<glyph unicode="W" glyph-name="W" horiz-adv-x="879" d="M87 715H167L224 121L483 715H535L614 119L857 715H933L636 0H561L487 573L233 0H161L87 715Z" />
<glyph unicode="X" glyph-name="X" horiz-adv-x="595" d="M271 373L106 715H189L330 426L553 715H636L360 361L535 0H449L300 309L59 0H-24L271 373Z" />
<glyph unicode="Y" glyph-name="Y" horiz-adv-x="575" d="M261 313L84 715H169L312 379L549 715H631L340 307L291 0H211L261 313Z" />
<glyph unicode="Z" glyph-name="Z" horiz-adv-x="580" d="M-19 13L492 652H118L128 715H616L614 703L112 65H507L497 0H-21L-19 13Z" />
<glyph unicode="[" glyph-name="bracketleft" horiz-adv-x="339" d="M162 776H382L373 715H230L103 -87H247L236 -148H16L162 776Z" />
<glyph unicode="\" glyph-name="backslash" horiz-adv-x="387" d="M105 776H173L320 -148H252L105 776Z" />
<glyph unicode="]" glyph-name="bracketright" horiz-adv-x="339" d="M-19 -87H125L251 715H108L117 776H337L191 -148H-29L-19 -87Z" />
<glyph unicode="^" glyph-name="asciicircum" horiz-adv-x="487" d="M273 715H351L472 411H397L302 649L139 411H60L273 715Z" />
<glyph unicode="_" glyph-name="underscore" horiz-adv-x="380" d="M-64 -95H330L320 -156H-74L-64 -95Z" />
<glyph unicode="`" glyph-name="grave" horiz-adv-x="400" d="M150 758H243L291 611H234L150 758Z" />
<glyph unicode="a" glyph-name="a" horiz-adv-x="537" d="M200 -8Q116 -8 71 34T26 145Q26 194 47 227T103 279T186 307T284 315H391L398 357Q409 423 385 453T293 483Q238 483 204 460T158 382H82Q91 430 114 462T167 513T231 539T295 547Q338 547 374 537T434
503T469 443T471 352L441 160Q433 107 431 71T432 0H363Q361 23 361 46T362 87Q333 39 291 16T200 -8ZM204 53Q267 53 314 88T372 198L382 259H287Q191 259 145 234T98 142Q98 105 123 79T204 53Z" />
<glyph unicode="b" glyph-name="b" horiz-adv-x="633" d="M323 -9Q281 -9 250 1T195 27T156 63T131 103L115 0H40L158 746H232L184 442Q197 464 217 483T262 517T315 539T373 547Q421 547 461 530T531 482T576 408T593 310Q593 247 575 189T523 87T438 17T323
-9ZM324 53Q370 53 405 72T465 125T501 205T514 306Q514 393 474 439T366 485Q320 485 281 468T212 417T167 336T150 228Q150 147 196 100T324 53Z" />
<glyph unicode="c" glyph-name="c" horiz-adv-x="558" d="M285 -8Q225 -8 179 10T101 61T53 139T37 237Q37 312 60 369T121 466T210 526T313 546Q357 546 395 535T461 501T507 443T528 360H457Q453 396 441 420T409 458T364 478T309 484Q268 484 232 468T170 421T129
344T114 237Q114 148 157 102T288 55Q347 55 392 89T449 190H519Q511 143 490 106T437 44T367 5T285 -8Z" />
<glyph unicode="d" glyph-name="d" horiz-adv-x="627" d="M270 -9Q219 -9 176 8T103 56T55 131T38 230Q38 293 57 350T112 451T200 521T318 547Q358 547 388 537T440 512T478 477T502 438L549 746H623L531 160Q522 105 520 69T519 0H450Q448 24 450 50T455 100Q426
52 378 22T270 -9ZM271 55Q316 55 354 71T421 119T466 199T482 312Q482 352 470 383T435 437T383 472T316 484Q269 484 232 465T170 413T131 333T118 233Q118 148 158 102T271 55Z" />
<glyph unicode="e" glyph-name="e" horiz-adv-x="555" d="M264 -9Q210 -9 168 8T96 56T51 129T36 220Q36 292 57 351T116 454T204 522T314 546Q368 546 410 530T480 479T518 394T518 274L515 255H114Q113 246 113 237T113 216Q113 139 149 98T266 56Q325 56 365
80T421 153H496Q484 112 461 82T407 31T340 1T264 -9ZM450 320Q456 407 421 444T308 482Q278 482 250 473T197 445T153 394T124 320H450Z" />
<glyph unicode="f" glyph-name="f" horiz-adv-x="332" d="M129 473H51L61 539H139L148 596Q160 671 205 709T317 748Q343 748 358 745T385 736L375 675Q364 680 351 682T319 685Q275 685 252 662T222 596L213 539H347L337 473H202L127 0H54L129 473Z" />
<glyph unicode="g" glyph-name="g" horiz-adv-x="628" d="M248 -187Q184 -187 141 -172T71 -133T31 -80T13 -23H89Q97 -67 134 -94T246 -122Q337 -122 382 -79T439 47L449 110Q419 67 375 43T271 19Q221 19 179 36T107 83T60 156T43 249Q43 309 63 363T120 458T207
523T316 547Q356 547 386 537T439 512T477 477T502 438L517 539H592L513 38Q495 -75 426 -131T248 -187ZM272 81Q314 81 352 97T419 144T465 219T482 320Q482 359 469 389T434 441T381 473T314 484Q269 484 234 466T174 415T136 341T122 251Q122 176 159 129T272
81Z" />
<glyph unicode="h" glyph-name="h" horiz-adv-x="593" d="M158 746H232L184 442Q196 461 213 480T254 514T305 538T366 547Q408 547 441 535T496 496T524 426T523 322L471 0H398L452 346Q464 416 439 449T357 483Q322 483 290 472T232 439T189 386T164 315L115
0H40L158 746Z" />
<glyph unicode="i" glyph-name="i" horiz-adv-x="245" d="M128 539H201L116 0H42L128 539ZM184 615Q163 615 148 630T132 667Q132 687 148 703T185 720Q206 720 220 705T235 669Q235 648 220 632T184 615Z" />
<glyph unicode="j" glyph-name="j" horiz-adv-x="245" d="M-58 -123Q-10 -121 10 -99T37 -36L128 539H201L111 -40Q100 -110 58 -148T-68 -187L-58 -123ZM184 615Q163 615 148 630T132 667Q132 687 148 703T185 720Q206 720 220 705T235 669Q235 648 220 632T184 615Z" />
<glyph unicode="k" glyph-name="k" horiz-adv-x="505" d="M158 746H232L162 300L427 539H522L244 291L452 0H366L160 291L115 0H40L158 746Z" />
<glyph unicode="l" glyph-name="l" horiz-adv-x="246" d="M160 746H236L117 0H42L160 746Z" />
<glyph unicode="m" glyph-name="m" horiz-adv-x="907" d="M100 380Q104 407 106 428T110 469T113 505T114 539H183Q183 516 182 490T178 435Q207 488 251 517T348 547Q405 547 445 520T496 428Q513 461 536 483T584 520T635 541T683 547Q722 547 754 535T808 496T838
426T837 318L786 0H713L765 336Q778 414 756 448T673 483Q646 483 619 474T567 444T526 393T501 320L451 0H376L431 343Q452 483 337 483Q308 483 281 473T230 442T189 391T165 320L115 0H40L100 380Z" />
<glyph unicode="n" glyph-name="n" horiz-adv-x="593" d="M100 380Q104 407 106 428T110 469T113 505T114 539H183Q183 516 182 487T177 430Q205 479 252 513T366 547Q408 547 441 535T496 496T524 426T523 322L471 0H398L452 346Q476 483 357 483Q322 483 290
472T232 439T189 386T164 315L115 0H40L100 380Z" />
<glyph unicode="o" glyph-name="o" horiz-adv-x="594" d="M276 55Q324 55 361 74T425 127T464 207T478 308Q478 389 437 436T314 484Q269 484 233 465T170 412T129 332T114 231Q114 150 154 103T276 55ZM272 -8Q216 -8 172 10T98 61T52 137T36 231Q36 298 58 355T118
455T208 522T319 546Q375 546 419 529T494 480T541 405T557 311Q557 242 536 184T477 83T387 16T272 -8Z" />
<glyph unicode="p" glyph-name="p" horiz-adv-x="633" d="M100 380Q104 407 106 428T110 469T113 505T114 539H183Q183 516 182 487T177 432Q206 484 260 515T374 547Q422 547 462 530T531 482T576 408T593 310Q593 247 575 189T523 87T438 17T323 -9Q281 -9 250
1T195 27T156 63T131 103L87 -177H12L100 380ZM324 53Q370 53 405 72T465 125T501 205T514 306Q514 393 474 439T366 485Q320 485 281 468T212 417T167 336T150 228Q150 147 196 100T324 53Z" />
<glyph unicode="q" glyph-name="q" horiz-adv-x="633" d="M445 84Q415 41 372 16T270 -9Q219 -9 176 8T103 56T55 131T38 230Q38 293 57 350T112 451T200 521T318 547Q358 547 388 537T440 512T478 477T502 438L517 539H592L477 -177H404L445 84ZM271 55Q316 55
354 71T421 119T466 199T482 312Q482 352 470 383T435 437T383 472T316 484Q269 484 232 465T170 413T131 333T118 233Q118 148 158 102T271 55Z" />
<glyph unicode="r" glyph-name="r" horiz-adv-x="368" d="M100 380Q104 407 106 428T110 469T113 505T114 539H183Q183 516 182 488T177 428Q194 455 212 476T253 514T305 538T376 548L365 479Q325 476 291 466T231 433T186 374T159 285L115 0H40L100 380Z" />
<glyph unicode="s" glyph-name="s" horiz-adv-x="480" d="M231 -9Q177 -9 139 5T75 44T37 100T24 165H97Q98 142 105 123T128 88T169 65T233 56Q293 56 321 80T349 150Q349 187 324 206T238 242Q193 254 162 268T111 300T84 341T75 394Q75 431 90 460T131 508T189
537T257 547Q334 547 385 511T442 394H373Q371 435 340 458T255 482Q202 482 174 460T145 398Q145 381 150 369T168 346T202 328T257 311Q296 301 326 289T378 258T410 215T421 153Q421 117 408 87T370 36T310 3T231 -9Z" />
<glyph unicode="t" glyph-name="t" horiz-adv-x="339" d="M203 -6Q164 -6 138 5T96 37T76 85T76 142L129 473H51L61 539H139L161 671H235L213 539H338L327 473H202L149 138Q142 93 157 75T211 57Q245 57 275 68L265 5Q252 -1 236 -3T203 -6Z" />
<glyph unicode="u" glyph-name="u" horiz-adv-x="589" d="M223 -9Q181 -9 148 4T95 45T67 115T69 216L121 539H195L140 195Q129 129 152 93T234 57Q269 57 301 68T358 101T400 154T423 225L474 539H547L488 160Q479 105 477 69T476 0H407Q405 24 406 53T412 110Q383
60 336 26T223 -9Z" />
<glyph unicode="v" glyph-name="v" horiz-adv-x="508" d="M57 539H135L223 69L456 539H536L262 0H163L57 539Z" />
<glyph unicode="w" glyph-name="w" horiz-adv-x="769" d="M61 539H141L192 87L398 539H463L516 87L713 539H793L545 0H461L412 422L218 0H134L61 539Z" />
<glyph unicode="x" glyph-name="x" horiz-adv-x="482" d="M200 285L61 539H145L251 340L414 539H498L282 274L431 0H347L232 221L49 0H-36L200 285Z" />
<glyph unicode="y" glyph-name="y" horiz-adv-x="498" d="M185 61L57 539H132L233 141L445 539H526L125 -177H45L185 61Z" />
<glyph unicode="z" glyph-name="z" horiz-adv-x="472" d="M-25 11L362 475H76L87 539H491L488 523L112 68H416L405 0H-27L-25 11Z" />
<glyph unicode="{" glyph-name="braceleft" horiz-adv-x="364" d="M261 -147Q151 -141 110 -86T104 73L138 168Q147 193 147 215T137 254T102 281T39 292L47 349Q123 347 153 377T183 467L180 576Q178 633 192 672T234 735T306 769T408 779L398 721Q357 721 329
714T283 689T258 643T252 571L254 467Q254 432 246 407T223 363T185 334T137 316Q189 302 208 262T205 155L174 69Q145 -14 169 -49T270 -89L261 -147V-147Z" />
<glyph unicode="|" glyph-name="bar" horiz-adv-x="237" d="M102 776H164V-148H102V776Z" />
<glyph unicode="}" glyph-name="braceright" horiz-adv-x="364" d="M-20 -89Q21 -89 49 -82T95 -57T120 -12T127 61L124 170Q124 206 132 231T156 272T194 298T242 312Q189 329 170 370T171 471L205 563Q233 646 210 681T109 721L118 779Q227 773 269 718T275
559L240 462Q231 437 231 415T242 376T277 347T340 333L332 276Q255 281 224 254T195 165L199 56Q200 -1 187 -40T145 -103T73 -137T-29 -147L-20 -89Z" />
<glyph unicode="~" glyph-name="asciitilde" horiz-adv-x="430" d="M34 225Q46 288 76 318T145 349Q169 349 189 341T227 323T258 305T286 296Q303 296 319 310T340 351H401Q390 287 358 257T291 227Q265 227 245 235T207 253T176 271T148 280Q130 280 116 266T95
225H34V225Z" />
<glyph unicode="&#xa0;" glyph-name="uni00A0" horiz-adv-x="332" />
<glyph unicode="&#xa1;" glyph-name="exclamdown" horiz-adv-x="271" d="M128 401H187L117 -117H32L128 401ZM179 485Q154 485 136 502T118 544Q118 569 135 586T178 603Q202 603 219 586T237 544Q237 519 220 502T179 485Z" />
<glyph unicode="&#xa2;" glyph-name="cent" horiz-adv-x="558" d="M276 -8L258 -125H203L222 -2Q131 15 84 80T37 237Q37 311 60 368T120 465T207 524T309 546L324 639H379L363 542Q432 531 477 487T528 360H457Q450 418 423 445T354 480L286 55H288Q347 55 392
89T449 190H519Q511 143 490 106T437 44T367 5T285 -8H276ZM114 237Q114 88 232 61L299 484Q260 482 226 466T167 418T128 341T114 237Z" />
<glyph unicode="&#xa3;" glyph-name="sterling" horiz-adv-x="581" d="M60 375H131Q129 398 128 422T126 472Q126 524 140 569T185 649T260 704T367 724Q458 724 512 677T567 536H489Q486 590 459 624T363 658Q319 658 289 643T241 603T214 543T205 471Q205 421
208 375H423L414 318H212Q213 301 213 284T214 248Q214 208 207 176T182 114Q206 108 230 99T278 81T323 66T363 59Q401 59 426 78T460 149H529Q518 77 477 34T360 -9Q328 -9 297 1T237 23T181 46T132 56Q101 56 85 39T63 0H-4Q-1 18 8 37T31 74T65 103T109 119Q140
168 140 241Q140 259 139 278T136 318H51L60 375Z" />
<glyph unicode="&#xa5;" glyph-name="yen" horiz-adv-x="557" d="M227 150H55L63 204H235L248 286H77L85 340H245L92 715H176L303 387L526 715H606L346 340H505L496 286H326L313 204H483L474 150H305L281 0H203L227 150Z" />
<glyph unicode="&#xa6;" glyph-name="brokenbar" horiz-adv-x="237" d="M102 297H164V-148H102V297ZM102 776H164V367H102V776Z" />
<glyph unicode="&#xa7;" glyph-name="section" horiz-adv-x="525" d="M210 -137Q174 -137 141 -128T83 -98T43 -48T29 24H106Q108 -23 134 -47T216 -72Q262 -73 295 -47T328 29Q328 47 322 61T302 88T262 113T199 140Q163 153 134 168T84 203T52 247T40 304Q40
335 51 358T81 399T125 429T179 447Q158 467 147 492T135 555Q135 593 150 624T192 678T254 712T330 724Q401 724 448 687T497 569H419Q418 659 322 659Q276 660 243 636T210 559Q210 542 215 528T234 501T271 476T329 451Q365 438 395 423T447 388T481 342T493
282Q493 252 483 229T454 190T410 162T357 142Q379 124 392 96T405 35Q405 -6 390 -38T349 -92T287 -125T210 -137ZM305 177Q325 181 345 188T380 206T406 235T416 276Q416 314 387 338T308 382L227 412Q207 409 188 402T153 382T127 352T117 310Q117 275 143 252T222
209L305 177Z" />
<glyph unicode="&#xa8;" glyph-name="dieresis" horiz-adv-x="400" d="M174 635Q154 635 140 649T125 683Q125 703 140 718T175 733Q195 733 209 719T223 685Q223 665 209 650T174 635ZM357 635Q337 635 323 649T308 683Q308 703 323 718T358 733Q378 733 392
719T406 685Q406 665 392 650T357 635Z" />
<glyph unicode="&#xa9;" glyph-name="copyright" horiz-adv-x="831" d="M428 154Q337 154 286 208T235 354V362Q235 407 249 443T290 506T351 547T428 562Q495 562 542 528T597 425H527Q513 507 428 507Q373 507 341 469T308 362V355Q308 286 339 248T428 210Q471
210 499 231T535 297H601Q593 226 546 190T428 154ZM425 30Q490 30 548 54T651 121T722 225T749 359Q749 431 724 490T654 593T552 661T427 685Q361 685 302 661T199 593T130 489T104 357Q104 284 130 224T201 121T303 54T425 30ZM425 -9Q349 -9 282 19T166 96T88
212T59 357Q59 433 87 500T165 617T282 695T427 724Q505 724 572 696T688 618T765 502T793 359Q793 281 765 214T687 97T570 19T425 -9Z" />
<glyph unicode="&#xaa;" glyph-name="ordfeminine" horiz-adv-x="405" d="M179 293Q116 293 82 325T48 408Q48 447 64 473T108 515T173 538T254 545H332L336 572Q344 619 327 642T259 666Q180 666 164 595H92Q99 631 117 656T158 696T209 717T262 724Q299 724
329 715T378 687T406 637T407 566L385 425Q378 384 377 355T379 300H310Q308 317 308 329T308 356Q285 323 252 308T179 293ZM194 348Q242 348 275 371T317 446L325 495H252Q187 495 154 477T120 411Q120 384 138 366T194 348Z" />
<glyph unicode="&#xab;" glyph-name="guillemotleft" horiz-adv-x="475" d="M50 262L209 439H288L131 258L227 83H153L50 262ZM224 262L383 439H461L304 258L401 83H327L224 262Z" />
<glyph unicode="&#xae;" glyph-name="registered" horiz-adv-x="501" d="M209 617H285Q323 617 346 601T369 550V549Q369 524 356 510T322 490L382 395H335L280 483H254V395H209V617ZM285 514Q325 514 325 548V549Q325 567 315 574T285 582H254V514H285ZM285 316Q324
316 357 329T416 368T455 427T469 503Q469 544 456 578T418 637T359 676T285 690Q245 690 211 676T153 637T114 578T100 502Q100 460 114 426T153 368T212 330T285 316ZM285 282Q239 282 199 299T128 345T81 415T63 502Q63 548 80 588T127 659T197 706T285 724Q332
724 372 707T443 660T490 590T507 503Q507 456 490 416T442 346T372 299T285 282Z" />
<glyph unicode="&#xaf;" glyph-name="macron" horiz-adv-x="400" d="M140 707H398L389 648H131L140 707Z" />
<glyph unicode="&#xb0;" glyph-name="degree" horiz-adv-x="409" d="M248 463Q290 463 317 492T345 571Q345 613 319 642T253 672Q210 672 182 642T153 563Q153 521 180 492T248 463ZM247 412Q214 412 186 423T136 455T103 503T91 561Q91 595 103 624T137 675T189
709T254 722Q287 722 315 711T364 679T397 631T409 572Q409 539 397 510T363 459T311 425T247 412Z" />
<glyph unicode="&#xb1;" glyph-name="plusminus" horiz-adv-x="504" d="M227 328H39L49 392H237L267 578H334L305 392H494L483 328H295L265 142H198L227 328ZM-2 64H442L432 0H-13L-2 64Z" />
<glyph unicode="&#xb2;" glyph-name="twosuperior" horiz-adv-x="272" d="M20 384L169 514Q199 541 221 567T243 623Q242 646 228 658T194 671Q168 671 150 655T123 602H65Q74 659 110 689T197 719Q218 719 237 714T271 698T295 669T305 626Q307 589 280 556T208
484L134 420H276L268 373H19L20 384Z" />
<glyph unicode="&#xb3;" glyph-name="threesuperior" horiz-adv-x="297" d="M176 368Q151 368 128 374T88 393T59 427T48 478H107Q109 450 125 432T176 414Q202 414 223 429T245 476Q245 528 187 528H163L170 572H197Q225 572 242 585T259 624Q259 647 247 660T207
673Q179 673 161 657T136 615H80Q86 664 122 691T209 719Q231 719 251 714T286 699T310 671T319 629Q319 601 301 580T252 549Q276 544 292 525T309 474Q309 448 298 429T269 396T226 375T176 368Z" />
<glyph unicode="&#xb4;" glyph-name="acute" horiz-adv-x="400" d="M298 758H397L278 611H217L298 758Z" />
<glyph unicode="&#xb6;" glyph-name="paragraph" horiz-adv-x="568" d="M281 348H277Q233 348 196 358T133 389T93 440T78 510Q78 561 96 599T147 663T223 702T314 715H552L423 -100H359L480 662H394L273 -100H210L281 348Z" />
<glyph unicode="&#xb7;" glyph-name="periodcentered" horiz-adv-x="257" d="M137 267Q113 267 96 284T78 326Q78 351 95 368T136 385Q161 385 178 368T196 326Q196 301 179 284T137 267Z" />
<glyph unicode="&#xb8;" glyph-name="cedilla" horiz-adv-x="400" d="M143 -214Q104 -214 77 -194T45 -131H98Q100 -147 111 -158T142 -169Q159 -169 172 -160T185 -128Q185 -112 175 -103T148 -94Q138 -94 132 -97T120 -103L95 -75L152 0H201L160 -55Q175 -53
190 -56T217 -69T236 -92T244 -126Q244 -169 216 -191T143 -214Z" />
<glyph unicode="&#xb9;" glyph-name="onesuperior" horiz-adv-x="215" d="M160 651L69 596L78 653L178 715H233L179 373H116L160 651Z" />
<glyph unicode="&#xba;" glyph-name="ordmasculine" horiz-adv-x="476" d="M259 352Q294 352 321 366T367 405T396 464T406 538Q406 595 377 630T289 665Q256 665 229 651T183 611T154 552T143 478Q143 421 172 387T259 352ZM256 293Q212 293 178 306T119 345T82
403T69 478Q69 530 86 575T133 653T204 705T294 724Q337 724 371 710T430 672T467 613T480 538Q480 485 464 440T417 363T346 312T256 293Z" />
<glyph unicode="&#xbb;" glyph-name="guillemotright" horiz-adv-x="475" d="M169 264L73 439H146L249 260L90 83H12L169 264ZM343 264L246 439H320L423 260L264 83H185L343 264Z" />
<glyph unicode="&#xbc;" glyph-name="onequarter" horiz-adv-x="661" d="M163 651L72 596L81 653L181 715H236L182 373H119L163 651ZM610 715H674L78 0H14L610 715ZM515 70H342L345 92L540 342H618L582 116H628L621 70H575L564 0H504L515 70ZM524 116L551 292L418
116H524Z" />
<glyph unicode="&#xbd;" glyph-name="onehalf" horiz-adv-x="673" d="M595 715H659L63 0H-1L595 715ZM163 651L72 596L81 653L181 715H236L182 373H119L163 651ZM366 11L514 142Q550 173 569 196T588 250Q588 273 574 285T539 298Q513 298 495 282T468 229H410Q419
286 455 316T542 346Q563 346 582 341T617 324T641 294T650 251Q650 231 644 214T625 182T594 149T552 112L477 47H621L613 0H364L366 11Z" />
<glyph unicode="&#xbe;" glyph-name="threequarters" horiz-adv-x="688" d="M179 368Q154 368 131 374T91 393T62 427T51 478H110Q112 450 128 432T179 414Q205 414 226 429T248 476Q248 528 190 528H166L173 572H200Q228 572 245 585T262 624Q262 647 250 660T210
673Q182 673 164 657T139 615H83Q89 664 125 691T212 719Q234 719 254 714T289 699T313 671T322 629Q322 601 304 580T255 549Q279 544 295 525T312 474Q312 448 301 429T272 396T229 375T179 368ZM652 715H716L120 0H56L652 715ZM541 70H368L371 92L566 342H644L608
116H654L647 70H601L590 0H530L541 70ZM550 116L577 292L444 116H550Z" />
<glyph unicode="&#xbf;" glyph-name="questiondown" horiz-adv-x="473" d="M185 -126Q139 -126 106 -114T50 -80T16 -30T5 30Q5 67 16 94T45 142T86 181T134 217Q173 245 203 275T242 354L249 401H318L309 348Q304 313 290 287T257 239T216 201T172 167Q153 152
137 139T108 109T90 75T83 31Q83 -13 112 -37T193 -62Q248 -62 287 -28T338 72H411Q405 24 385 -13T335 -75T267 -113T185 -126ZM302 485Q278 485 260 502T242 544Q242 569 259 586T301 603Q326 603 343 586T360 544Q360 519 343 502T302 485Z" />
<glyph unicode="&#xc0;" glyph-name="Agrave" horiz-adv-x="635" d="M337 715H442L575 0H497L459 209H158L53 0H-24L337 715ZM447 273L377 649L189 273H447ZM294 897H387L428 771H372L294 897Z" />
<glyph unicode="&#xc1;" glyph-name="Aacute" horiz-adv-x="635" d="M337 715H442L575 0H497L459 209H158L53 0H-24L337 715ZM447 273L377 649L189 273H447ZM427 897H525L419 771H358L427 897Z" />
<glyph unicode="&#xc2;" glyph-name="Acircumflex" horiz-adv-x="635" d="M337 715H442L575 0H497L459 209H158L53 0H-24L337 715ZM447 273L377 649L189 273H447ZM370 897H439L531 771H477L398 834L303 771H245L370 897Z" />
<glyph unicode="&#xc3;" glyph-name="Atilde" horiz-adv-x="635" d="M337 715H442L575 0H497L459 209H158L53 0H-24L337 715ZM447 273L377 649L189 273H447ZM241 772Q252 826 279 855T345 884Q362 884 377 877T407 862T433 846T458 839Q472 839 485 851T504 886H560Q549
832 522 803T458 774Q440 774 424 781T394 796T368 812T344 819Q329 819 316 807T297 772H241V772Z" />
<glyph unicode="&#xc4;" glyph-name="Adieresis" horiz-adv-x="635" d="M337 715H442L575 0H497L459 209H158L53 0H-24L337 715ZM447 273L377 649L189 273H447ZM299 789Q279 789 265 803T250 837Q250 857 265 872T300 887Q320 887 334 873T348 839Q348 819 334
804T299 789ZM497 789Q477 789 463 803T448 837Q448 857 463 872T498 887Q518 887 532 873T546 839Q546 819 532 804T497 789Z" />
<glyph unicode="&#xc5;" glyph-name="Aring" horiz-adv-x="635" d="M337 715H442L575 0H497L459 209H158L53 0H-24L337 715ZM447 273L377 649L189 273H447ZM397 801Q421 801 437 818T453 862Q453 888 439 903T401 919Q377 919 361 902T344 858Q344 833 358 817T397
801ZM397 758Q375 758 357 765T324 786T302 818T294 858Q294 880 302 899T325 932T359 954T401 962Q423 962 441 954T474 933T496 901T504 862Q504 840 496 821T473 788T439 766T397 758Z" />
<glyph unicode="&#xc6;" glyph-name="AE" horiz-adv-x="936" d="M446 715H949L938 650H607L568 399H838L828 333H557L515 65H869L858 0H425L457 210H199L64 0H-20L446 715ZM468 273L527 650H483L240 273H468Z" />
<glyph unicode="&#xc7;" glyph-name="Ccedilla" horiz-adv-x="719" d="M308 -214Q269 -214 242 -194T210 -131H263Q265 -147 276 -158T307 -169Q324 -169 337 -160T350 -128Q350 -112 340 -103T313 -94Q303 -94 297 -97T285 -103L260 -75L314 -4Q255 5 209 30T130
96T80 189T62 305Q62 392 89 468T167 602T288 692T442 725Q495 725 541 711T623 667T681 594T707 494H632Q619 576 572 619T438 662Q369 662 315 634T223 558T165 444T145 305Q145 187 204 122T380 56Q468 56 526 105T611 235H688Q673 179 644 134T575 57T485 8T379
-9H360L325 -55Q340 -53 355 -56T382 -69T401 -92T409 -126Q409 -169 381 -191T308 -214Z" />
<glyph unicode="&#xc8;" glyph-name="Egrave" horiz-adv-x="558" d="M277 897H370L411 771H355L277 897ZM155 715H566L555 650H224L184 399H455L445 333H174L132 65H486L475 0H42L155 715Z" />
<glyph unicode="&#xc9;" glyph-name="Eacute" horiz-adv-x="558" d="M397 897H495L389 771H328L397 897ZM155 715H566L555 650H224L184 399H455L445 333H174L132 65H486L475 0H42L155 715Z" />
<glyph unicode="&#xca;" glyph-name="Ecircumflex" horiz-adv-x="558" d="M342 897H411L503 771H449L370 834L275 771H217L342 897ZM155 715H566L555 650H224L184 399H455L445 333H174L132 65H486L475 0H42L155 715Z" />
<glyph unicode="&#xcb;" glyph-name="Edieresis" horiz-adv-x="558" d="M155 715H566L555 650H224L184 399H455L445 333H174L132 65H486L475 0H42L155 715ZM273 789Q253 789 239 803T224 837Q224 857 239 872T274 887Q294 887 308 873T322 839Q322 819 308 804T273
789ZM471 789Q451 789 437 803T422 837Q422 857 437 872T472 887Q492 887 506 873T520 839Q520 819 506 804T471 789Z" />
<glyph unicode="&#xcc;" glyph-name="Igrave" horiz-adv-x="260" d="M160 715H240L127 0H47L160 715ZM364 897H457L498 771H442L364 897Z" />
<glyph unicode="&#xcd;" glyph-name="Iacute" horiz-adv-x="260" d="M160 715H240L127 0H47L160 715ZM497 897H595L489 771H428L497 897Z" />
<glyph unicode="&#xce;" glyph-name="Icircumflex" horiz-adv-x="260" d="M160 715H240L127 0H47L160 715ZM442 897H511L603 771H549L470 834L375 771H317L442 897Z" />
<glyph unicode="&#xcf;" glyph-name="Idieresis" horiz-adv-x="260" d="M160 715H240L127 0H47L160 715ZM375 789Q355 789 341 803T326 837Q326 857 341 872T376 887Q396 887 410 873T424 839Q424 819 410 804T375 789ZM573 789Q553 789 539 803T524 837Q524 857
539 872T574 887Q594 887 608 873T622 839Q622 819 608 804T573 789Z" />
<glyph unicode="&#xd0;" glyph-name="Eth" horiz-adv-x="703" d="M264 65Q342 65 404 88T508 156T573 264T596 409Q596 461 582 505T538 581T459 632T343 650H243L201 390H409L399 328H191L150 65H264ZM111 328H35L46 390H121L173 715H346Q434 715 496 692T599
628T659 532T678 410Q678 324 651 249T572 119T443 32T267 0H60L111 328Z" />
<glyph unicode="&#xd1;" glyph-name="Ntilde" horiz-adv-x="708" d="M290 772Q301 826 328 855T394 884Q411 884 426 877T456 862T482 846T507 839Q521 839 534 851T553 886H609Q598 832 571 803T507 774Q489 774 473 781T443 796T417 812T393 819Q378 819 365
807T346 772H290V772ZM155 715H257L523 113L619 715H695L582 0H492L217 622L118 0H42L155 715Z" />
<glyph unicode="&#xd2;" glyph-name="Ograve" horiz-adv-x="799" d="M360 897H453L494 771H438L360 897ZM390 57Q455 57 509 83T602 155T662 264T684 401Q684 454 669 501T623 583T547 638T444 659Q375 659 320 632T226 557T166 447T145 314Q145 255 163 208T213
127T290 75T390 57ZM389 -9Q314 -9 254 15T151 83T85 185T62 314Q62 398 91 473T172 603T294 691T445 724Q522 724 581 699T682 629T744 526T766 401Q766 313 737 238T657 108T537 22T389 -9Z" />
<glyph unicode="&#xd3;" glyph-name="Oacute" horiz-adv-x="799" d="M496 897H594L488 771H427L496 897ZM390 57Q455 57 509 83T602 155T662 264T684 401Q684 454 669 501T623 583T547 638T444 659Q375 659 320 632T226 557T166 447T145 314Q145 255 163 208T213
127T290 75T390 57ZM389 -9Q314 -9 254 15T151 83T85 185T62 314Q62 398 91 473T172 603T294 691T445 724Q522 724 581 699T682 629T744 526T766 401Q766 313 737 238T657 108T537 22T389 -9Z" />
<glyph unicode="&#xd4;" glyph-name="Ocircumflex" horiz-adv-x="799" d="M447 897H516L608 771H554L475 834L380 771H322L447 897ZM390 57Q455 57 509 83T602 155T662 264T684 401Q684 454 669 501T623 583T547 638T444 659Q375 659 320 632T226 557T166 447T145
314Q145 255 163 208T213 127T290 75T390 57ZM389 -9Q314 -9 254 15T151 83T85 185T62 314Q62 398 91 473T172 603T294 691T445 724Q522 724 581 699T682 629T744 526T766 401Q766 313 737 238T657 108T537 22T389 -9Z" />
<glyph unicode="&#xd5;" glyph-name="Otilde" horiz-adv-x="799" d="M309 772Q320 826 347 855T413 884Q430 884 445 877T475 862T501 846T526 839Q540 839 553 851T572 886H628Q617 832 590 803T526 774Q508 774 492 781T462 796T436 812T412 819Q397 819 384
807T365 772H309V772ZM390 57Q455 57 509 83T602 155T662 264T684 401Q684 454 669 501T623 583T547 638T444 659Q375 659 320 632T226 557T166 447T145 314Q145 255 163 208T213 127T290 75T390 57ZM389 -9Q314 -9 254 15T151 83T85 185T62 314Q62 398 91 473T172
603T294 691T445 724Q522 724 581 699T682 629T744 526T766 401Q766 313 737 238T657 108T537 22T389 -9Z" />
<glyph unicode="&#xd6;" glyph-name="Odieresis" horiz-adv-x="799" d="M370 789Q350 789 336 803T321 837Q321 857 336 872T371 887Q391 887 405 873T419 839Q419 819 405 804T370 789ZM568 789Q548 789 534 803T519 837Q519 857 534 872T569 887Q589 887 603
873T617 839Q617 819 603 804T568 789ZM390 57Q455 57 509 83T602 155T662 264T684 401Q684 454 669 501T623 583T547 638T444 659Q375 659 320 632T226 557T166 447T145 314Q145 255 163 208T213 127T290 75T390 57ZM389 -9Q314 -9 254 15T151 83T85 185T62 314Q62
398 91 473T172 603T294 691T445 724Q522 724 581 699T682 629T744 526T766 401Q766 313 737 238T657 108T537 22T389 -9Z" />
<glyph unicode="&#xd7;" glyph-name="multiply" horiz-adv-x="459" d="M20 180L194 335L60 490L106 533L242 378L416 533L457 487L281 331L417 176L369 134L234 288L60 134L20 180Z" />
<glyph unicode="&#xd8;" glyph-name="Oslash" horiz-adv-x="799" d="M26 10L126 112Q95 154 79 204T62 314Q62 398 91 473T172 603T294 691T445 724Q510 724 562 705T654 654L738 741L778 700L694 614Q729 571 747 517T766 401Q766 313 737 238T657 108T537 22T389
-9Q320 -9 264 11T165 70L66 -31L26 10ZM605 604Q575 630 535 644T444 659Q375 659 320 632T226 557T166 447T145 314Q145 227 180 168L605 604ZM390 57Q455 57 509 83T602 155T662 264T684 401Q684 494 641 559L214 122Q246 90 291 74T390 57Z" />
<glyph unicode="&#xd9;" glyph-name="Ugrave" horiz-adv-x="680" d="M314 897H407L448 771H392L314 897ZM317 -8Q181 -8 119 65T79 281L148 715H228L159 280Q140 161 181 110T321 58Q404 58 454 104T521 258L594 715H674L600 248Q591 189 570 142T514 61T430 10T317 -8Z" />
<glyph unicode="&#xda;" glyph-name="Uacute" horiz-adv-x="680" d="M446 897H544L438 771H377L446 897ZM317 -8Q181 -8 119 65T79 281L148 715H228L159 280Q140 161 181 110T321 58Q404 58 454 104T521 258L594 715H674L600 248Q591 189 570 142T514 61T430 10T317 -8Z" />
<glyph unicode="&#xdb;" glyph-name="Ucircumflex" horiz-adv-x="680" d="M392 897H461L553 771H499L420 834L325 771H267L392 897ZM317 -8Q181 -8 119 65T79 281L148 715H228L159 280Q140 161 181 110T321 58Q404 58 454 104T521 258L594 715H674L600 248Q591
189 570 142T514 61T430 10T317 -8Z" />
<glyph unicode="&#xdc;" glyph-name="Udieresis" horiz-adv-x="680" d="M317 -8Q181 -8 119 65T79 281L148 715H228L159 280Q140 161 181 110T321 58Q404 58 454 104T521 258L594 715H674L600 248Q591 189 570 142T514 61T430 10T317 -8ZM325 789Q305 789 291
803T276 837Q276 857 291 872T326 887Q346 887 360 873T374 839Q374 819 360 804T325 789ZM523 789Q503 789 489 803T474 837Q474 857 489 872T524 887Q544 887 558 873T572 839Q572 819 558 804T523 789Z" />
<glyph unicode="&#xdd;" glyph-name="Yacute" horiz-adv-x="575" d="M261 313L84 715H169L312 379L549 715H631L340 307L291 0H211L261 313ZM395 897H493L387 771H326L395 897Z" />
<glyph unicode="&#xde;" glyph-name="Thorn" horiz-adv-x="566" d="M155 715H235L213 579H330Q379 579 419 568T489 533T534 477T550 398Q550 335 528 291T468 220T383 180T284 167H148L122 0H42L155 715ZM289 230Q377 230 424 272T471 397Q472 458 435 486T322
514H203L158 230H289Z" />
<glyph unicode="&#xdf;" glyph-name="germandbls" horiz-adv-x="594" d="M313 -9Q274 -9 247 -2T198 17L207 78Q231 66 256 60T312 53Q349 53 378 66T426 101T456 154T467 219Q467 307 419 352T282 398L293 463Q327 463 359 469T415 489T454 526T469 586Q469 631
438 658T351 686Q285 686 248 647T200 542L115 0H40L126 549Q133 594 153 631T203 694T271 734T353 748Q388 748 421 737T481 705T523 654T539 584Q539 524 504 484T394 429Q467 409 505 354T544 217Q544 166 528 125T481 54T409 8T313 -9Z" />
<glyph unicode="&#xe0;" glyph-name="agrave" horiz-adv-x="537" d="M200 -8Q116 -8 71 34T26 145Q26 194 47 227T103 279T186 307T284 315H391L398 357Q409 423 385 453T293 483Q238 483 204 460T158 382H82Q91 430 114 462T167 513T231 539T295 547Q338 547
374 537T434 503T469 443T471 352L441 160Q433 107 431 71T432 0H363Q361 23 361 46T362 87Q333 39 291 16T200 -8ZM204 53Q267 53 314 88T372 198L382 259H287Q191 259 145 234T98 142Q98 105 123 79T204 53ZM203 758H296L344 611H287L203 758Z" />
<glyph unicode="&#xe1;" glyph-name="aacute" horiz-adv-x="537" d="M200 -8Q116 -8 71 34T26 145Q26 194 47 227T103 279T186 307T284 315H391L398 357Q409 423 385 453T293 483Q238 483 204 460T158 382H82Q91 430 114 462T167 513T231 539T295 547Q338 547
374 537T434 503T469 443T471 352L441 160Q433 107 431 71T432 0H363Q361 23 361 46T362 87Q333 39 291 16T200 -8ZM204 53Q267 53 314 88T372 198L382 259H287Q191 259 145 234T98 142Q98 105 123 79T204 53ZM356 758H455L336 611H275L356 758Z" />
<glyph unicode="&#xe2;" glyph-name="acircumflex" horiz-adv-x="537" d="M200 -8Q116 -8 71 34T26 145Q26 194 47 227T103 279T186 307T284 315H391L398 357Q409 423 385 453T293 483Q238 483 204 460T158 382H82Q91 430 114 462T167 513T231 539T295 547Q338
547 374 537T434 503T469 443T471 352L441 160Q433 107 431 71T432 0H363Q361 23 361 46T362 87Q333 39 291 16T200 -8ZM204 53Q267 53 314 88T372 198L382 259H287Q191 259 145 234T98 142Q98 105 123 79T204 53ZM300 753H369L456 611H402L327 690L229 611H171L300
753Z" />
<glyph unicode="&#xe3;" glyph-name="atilde" horiz-adv-x="537" d="M200 -8Q116 -8 71 34T26 145Q26 194 47 227T103 279T186 307T284 315H391L398 357Q409 423 385 453T293 483Q238 483 204 460T158 382H82Q91 430 114 462T167 513T231 539T295 547Q338 547
374 537T434 503T469 443T471 352L441 160Q433 107 431 71T432 0H363Q361 23 361 46T362 87Q333 39 291 16T200 -8ZM204 53Q267 53 314 88T372 198L382 259H287Q191 259 145 234T98 142Q98 105 123 79T204 53ZM380 618Q362 618 347 625T317 641T291 657T267 664Q252
664 239 652T220 617H164Q175 671 202 700T268 729Q285 729 300 722T330 707T356 691T381 684Q395 684 408 696T427 731H482Q472 677 445 648T380 618Z" />
<glyph unicode="&#xe4;" glyph-name="adieresis" horiz-adv-x="537" d="M200 -8Q116 -8 71 34T26 145Q26 194 47 227T103 279T186 307T284 315H391L398 357Q409 423 385 453T293 483Q238 483 204 460T158 382H82Q91 430 114 462T167 513T231 539T295 547Q338 547
374 537T434 503T469 443T471 352L441 160Q433 107 431 71T432 0H363Q361 23 361 46T362 87Q333 39 291 16T200 -8ZM204 53Q267 53 314 88T372 198L382 259H287Q191 259 145 234T98 142Q98 105 123 79T204 53ZM234 635Q214 635 200 649T185 683Q185 703 200 718T235
733Q255 733 269 719T283 685Q283 665 269 650T234 635ZM417 635Q397 635 383 649T368 683Q368 703 383 718T418 733Q438 733 452 719T466 685Q466 665 452 650T417 635Z" />
<glyph unicode="&#xe5;" glyph-name="aring" horiz-adv-x="537" d="M200 -8Q116 -8 71 34T26 145Q26 194 47 227T103 279T186 307T284 315H391L398 357Q409 423 385 453T293 483Q238 483 204 460T158 382H82Q91 430 114 462T167 513T231 539T295 547Q338 547 374
537T434 503T469 443T471 352L441 160Q433 107 431 71T432 0H363Q361 23 361 46T362 87Q333 39 291 16T200 -8ZM204 53Q267 53 314 88T372 198L382 259H287Q191 259 145 234T98 142Q98 105 123 79T204 53ZM319 641Q343 641 359 658T376 703Q376 728 362 744T323
760Q299 760 283 743T266 699Q266 673 280 657T319 641ZM319 599Q297 599 279 606T246 627T224 659T216 699Q216 721 224 740T247 773T281 795T323 803Q345 803 363 795T396 774T418 742T426 703Q426 681 418 662T395 629T361 607T319 599Z" />
<glyph unicode="&#xe6;" glyph-name="ae" horiz-adv-x="888" d="M199 -8Q114 -8 70 30T26 138Q26 187 47 221T105 277T190 308T290 318H393L399 357Q410 423 385 453T293 483Q239 483 204 460T158 382H83Q92 430 115 462T168 513T231 539T295 547Q357 547 401
526T463 455Q498 498 547 522T653 546Q707 546 748 529T816 479T851 394T850 274L847 257H460Q459 247 459 237T459 216Q459 139 492 98T606 56Q722 56 755 153H827Q803 70 743 31T604 -9Q526 -9 477 24T404 115Q372 55 319 24T199 -8ZM201 53Q267 53 314 88T373
197L383 257H287Q192 257 145 231T98 139Q98 102 123 78T201 53ZM782 318Q788 404 757 443T648 482Q618 482 590 473T539 444T497 393T469 318H782Z" />
<glyph unicode="&#xe7;" glyph-name="ccedilla" horiz-adv-x="558" d="M220 -214Q181 -214 154 -194T122 -131H175Q177 -147 188 -158T219 -169Q236 -169 249 -160T262 -128Q262 -112 252 -103T225 -94Q215 -94 209 -97T197 -103L172 -75L227 -3Q133 14 85 78T37
237Q37 312 60 369T121 466T210 526T313 546Q357 546 395 535T461 501T507 443T528 360H457Q453 396 441 420T409 458T364 478T309 484Q268 484 232 468T170 421T129 344T114 237Q114 148 157 102T288 55Q347 55 392 89T449 190H519Q511 143 490 106T437 44T367
5T285 -8H272L237 -55Q252 -53 267 -56T294 -69T313 -92T321 -126Q321 -169 293 -191T220 -214Z" />
<glyph unicode="&#xe8;" glyph-name="egrave" horiz-adv-x="555" d="M264 -9Q210 -9 168 8T96 56T51 129T36 220Q36 292 57 351T116 454T204 522T314 546Q368 546 410 530T480 479T518 394T518 274L515 255H114Q113 246 113 237T113 216Q113 139 149 98T266 56Q325
56 365 80T421 153H496Q484 112 461 82T407 31T340 1T264 -9ZM450 320Q456 407 421 444T308 482Q278 482 250 473T197 445T153 394T124 320H450ZM207 758H300L348 611H291L207 758Z" />
<glyph unicode="&#xe9;" glyph-name="eacute" horiz-adv-x="555" d="M264 -9Q210 -9 168 8T96 56T51 129T36 220Q36 292 57 351T116 454T204 522T314 546Q368 546 410 530T480 479T518 394T518 274L515 255H114Q113 246 113 237T113 216Q113 139 149 98T266 56Q325
56 365 80T421 153H496Q484 112 461 82T407 31T340 1T264 -9ZM450 320Q456 407 421 444T308 482Q278 482 250 473T197 445T153 394T124 320H450ZM360 758H459L340 611H279L360 758Z" />
<glyph unicode="&#xea;" glyph-name="ecircumflex" horiz-adv-x="555" d="M264 -9Q210 -9 168 8T96 56T51 129T36 220Q36 292 57 351T116 454T204 522T314 546Q368 546 410 530T480 479T518 394T518 274L515 255H114Q113 246 113 237T113 216Q113 139 149 98T266
56Q325 56 365 80T421 153H496Q484 112 461 82T407 31T340 1T264 -9ZM450 320Q456 407 421 444T308 482Q278 482 250 473T197 445T153 394T124 320H450ZM305 753H374L461 611H407L332 690L234 611H176L305 753Z" />
<glyph unicode="&#xeb;" glyph-name="edieresis" horiz-adv-x="555" d="M264 -9Q210 -9 168 8T96 56T51 129T36 220Q36 292 57 351T116 454T204 522T314 546Q368 546 410 530T480 479T518 394T518 274L515 255H114Q113 246 113 237T113 216Q113 139 149 98T266
56Q325 56 365 80T421 153H496Q484 112 461 82T407 31T340 1T264 -9ZM450 320Q456 407 421 444T308 482Q278 482 250 473T197 445T153 394T124 320H450ZM238 635Q218 635 204 649T189 683Q189 703 204 718T239 733Q259 733 273 719T287 685Q287 665 273 650T238
635ZM421 635Q401 635 387 649T372 683Q372 703 387 718T422 733Q442 733 456 719T470 685Q470 665 456 650T421 635Z" />
<glyph unicode="&#xec;" glyph-name="igrave" horiz-adv-x="245" d="M128 539H201L116 0H42L128 539ZM321 758H414L462 611H405L321 758Z" />
<glyph unicode="&#xed;" glyph-name="iacute" horiz-adv-x="245" d="M128 539H201L116 0H42L128 539ZM474 758H573L454 611H393L474 758Z" />
<glyph unicode="&#xee;" glyph-name="icircumflex" horiz-adv-x="245" d="M128 539H201L116 0H42L128 539ZM418 753H487L574 611H520L445 690L347 611H289L418 753Z" />
<glyph unicode="&#xef;" glyph-name="idieresis" horiz-adv-x="245" d="M102 635Q82 635 68 649T53 683Q53 703 68 718T103 733Q123 733 137 719T151 685Q151 665 137 650T102 635ZM259 635Q239 635 225 649T210 683Q210 703 225 718T260 733Q280 733 294 719T308
685Q308 665 294 650T259 635ZM128 539H201L116 0H42L128 539Z" />
<glyph unicode="&#xf0;" glyph-name="eth" horiz-adv-x="597" d="M268 -9Q217 -9 175 8T101 57T53 133T36 231Q36 290 56 347T112 448T198 520T311 548Q363 548 403 528T470 463Q448 520 420 569T356 661L236 593L209 638L319 700Q293 726 264 750T201 798H297Q318
787 338 771T379 735L473 789L501 745L415 697Q444 664 470 625T515 540T546 444T557 339Q557 265 538 202T481 91T390 18T268 -9ZM270 55Q319 55 358 75T423 130T464 211T478 308Q478 341 470 373T442 429T391 469T316 484Q268 484 230 463T167 407T128 325T114
229Q114 194 122 163T150 107T198 69T270 55Z" />
<glyph unicode="&#xf1;" glyph-name="ntilde" horiz-adv-x="593" d="M100 380Q104 407 106 428T110 469T113 505T114 539H183Q183 516 182 487T177 430Q205 479 252 513T366 547Q408 547 441 535T496 496T524 426T523 322L471 0H398L452 346Q476 483 357 483Q322
483 290 472T232 439T189 386T164 315L115 0H40L100 380ZM417 618Q399 618 384 625T354 641T328 657T304 664Q289 664 276 652T257 617H201Q212 671 239 700T305 729Q322 729 337 722T367 707T393 691T418 684Q432 684 445 696T464 731H519Q509 677 482 648T417
618Z" />
<glyph unicode="&#xf2;" glyph-name="ograve" horiz-adv-x="594" d="M276 55Q324 55 361 74T425 127T464 207T478 308Q478 389 437 436T314 484Q269 484 233 465T170 412T129 332T114 231Q114 150 154 103T276 55ZM272 -8Q216 -8 172 10T98 61T52 137T36 231Q36
298 58 355T118 455T208 522T319 546Q375 546 419 529T494 480T541 405T557 311Q557 242 536 184T477 83T387 16T272 -8ZM230 758H323L371 611H314L230 758Z" />
<glyph unicode="&#xf3;" glyph-name="oacute" horiz-adv-x="594" d="M276 55Q324 55 361 74T425 127T464 207T478 308Q478 389 437 436T314 484Q269 484 233 465T170 412T129 332T114 231Q114 150 154 103T276 55ZM272 -8Q216 -8 172 10T98 61T52 137T36 231Q36
298 58 355T118 455T208 522T319 546Q375 546 419 529T494 480T541 405T557 311Q557 242 536 184T477 83T387 16T272 -8ZM383 758H482L363 611H302L383 758Z" />
<glyph unicode="&#xf4;" glyph-name="ocircumflex" horiz-adv-x="594" d="M276 55Q324 55 361 74T425 127T464 207T478 308Q478 389 437 436T314 484Q269 484 233 465T170 412T129 332T114 231Q114 150 154 103T276 55ZM272 -8Q216 -8 172 10T98 61T52 137T36
231Q36 298 58 355T118 455T208 522T319 546Q375 546 419 529T494 480T541 405T557 311Q557 242 536 184T477 83T387 16T272 -8ZM327 753H396L483 611H429L354 690L256 611H198L327 753Z" />
<glyph unicode="&#xf5;" glyph-name="otilde" horiz-adv-x="594" d="M276 55Q324 55 361 74T425 127T464 207T478 308Q478 389 437 436T314 484Q269 484 233 465T170 412T129 332T114 231Q114 150 154 103T276 55ZM272 -8Q216 -8 172 10T98 61T52 137T36 231Q36
298 58 355T118 455T208 522T319 546Q375 546 419 529T494 480T541 405T557 311Q557 242 536 184T477 83T387 16T272 -8ZM407 618Q389 618 374 625T344 641T318 657T294 664Q279 664 266 652T247 617H191Q202 671 229 700T295 729Q312 729 327 722T357 707T383
691T408 684Q422 684 435 696T454 731H509Q499 677 472 648T407 618Z" />
<glyph unicode="&#xf6;" glyph-name="odieresis" horiz-adv-x="594" d="M276 55Q324 55 361 74T425 127T464 207T478 308Q478 389 437 436T314 484Q269 484 233 465T170 412T129 332T114 231Q114 150 154 103T276 55ZM272 -8Q216 -8 172 10T98 61T52 137T36 231Q36
298 58 355T118 455T208 522T319 546Q375 546 419 529T494 480T541 405T557 311Q557 242 536 184T477 83T387 16T272 -8ZM261 635Q241 635 227 649T212 683Q212 703 227 718T262 733Q282 733 296 719T310 685Q310 665 296 650T261 635ZM444 635Q424 635 410 649T395
683Q395 703 410 718T445 733Q465 733 479 719T493 685Q493 665 479 650T444 635Z" />
<glyph unicode="&#xf7;" glyph-name="divide" horiz-adv-x="504" d="M240 96Q215 96 198 113T180 156Q180 181 197 198T240 215Q264 215 281 198T299 156Q299 130 282 113T240 96ZM46 374H491L481 310H36L46 374ZM287 469Q263 469 246 486T228 528Q228 554 245
571T287 588Q312 588 329 571T346 528Q346 503 329 486T287 469Z" />
<glyph unicode="&#xf8;" glyph-name="oslash" horiz-adv-x="594" d="M6 0L81 80Q59 111 48 148T36 231Q36 298 58 355T118 455T208 522T319 546Q365 546 404 534T472 498L541 572L582 534L510 457Q557 398 557 311Q557 242 536 184T477 83T387 16T272 -8Q225 -8
188 5T120 41L47 -38L6 0ZM276 55Q323 55 360 74T424 127T463 207T477 308Q477 335 473 359T459 403L165 89Q203 55 276 55ZM425 448Q386 484 313 484Q269 484 232 465T169 412T129 332T114 231Q114 173 131 133L425 448Z" />
<glyph unicode="&#xf9;" glyph-name="ugrave" horiz-adv-x="589" d="M223 -9Q181 -9 148 4T95 45T67 115T69 216L121 539H195L140 195Q129 129 152 93T234 57Q269 57 301 68T358 101T400 154T423 225L474 539H547L488 160Q479 105 477 69T476 0H407Q405 24 406
53T412 110Q383 60 336 26T223 -9ZM238 758H331L379 611H322L238 758Z" />
<glyph unicode="&#xfa;" glyph-name="uacute" horiz-adv-x="589" d="M223 -9Q181 -9 148 4T95 45T67 115T69 216L121 539H195L140 195Q129 129 152 93T234 57Q269 57 301 68T358 101T400 154T423 225L474 539H547L488 160Q479 105 477 69T476 0H407Q405 24 406
53T412 110Q383 60 336 26T223 -9ZM383 758H482L363 611H302L383 758Z" />
<glyph unicode="&#xfb;" glyph-name="ucircumflex" horiz-adv-x="589" d="M223 -9Q181 -9 148 4T95 45T67 115T69 216L121 539H195L140 195Q129 129 152 93T234 57Q269 57 301 68T358 101T400 154T423 225L474 539H547L488 160Q479 105 477 69T476 0H407Q405 24
406 53T412 110Q383 60 336 26T223 -9ZM332 753H401L488 611H434L359 690L261 611H203L332 753Z" />
<glyph unicode="&#xfc;" glyph-name="udieresis" horiz-adv-x="589" d="M223 -9Q181 -9 148 4T95 45T67 115T69 216L121 539H195L140 195Q129 129 152 93T234 57Q269 57 301 68T358 101T400 154T423 225L474 539H547L488 160Q479 105 477 69T476 0H407Q405 24
406 53T412 110Q383 60 336 26T223 -9ZM265 635Q245 635 231 649T216 683Q216 703 231 718T266 733Q286 733 300 719T314 685Q314 665 300 650T265 635ZM448 635Q428 635 414 649T399 683Q399 703 414 718T449 733Q469 733 483 719T497 685Q497 665 483 650T448
635Z" />
<glyph unicode="&#xfd;" glyph-name="yacute" horiz-adv-x="498" d="M185 61L57 539H132L233 141L445 539H526L125 -177H45L185 61ZM340 758H439L320 611H259L340 758Z" />
<glyph unicode="&#xfe;" glyph-name="thorn" horiz-adv-x="636" d="M166 798H240L184 443Q197 465 217 484T262 517T315 539T373 547Q421 547 461 530T531 482T577 408T593 310Q593 247 575 189T523 87T438 17T323 -9Q281 -9 250 1T195 27T156 62T131 102L84 -188H10L166
798ZM324 53Q370 53 405 72T465 125T501 205T514 306Q514 393 474 439T366 485Q320 485 281 468T212 417T167 336T150 228Q150 147 196 100T324 53Z" />
<glyph unicode="&#xff;" glyph-name="ydieresis" horiz-adv-x="498" d="M185 61L57 539H132L233 141L445 539H526L125 -177H45L185 61ZM218 635Q198 635 184 649T169 683Q169 703 184 718T219 733Q239 733 253 719T267 685Q267 665 253 650T218 635ZM401 635Q381
635 367 649T352 683Q352 703 367 718T402 733Q422 733 436 719T450 685Q450 665 436 650T401 635Z" />
<glyph unicode="&#x100;" glyph-name="Amacron" horiz-adv-x="635" d="M337 715H442L575 0H497L459 209H158L53 0H-24L337 715ZM447 273L377 649L189 273H447ZM276 846H537L528 787H266L276 846Z" />
<glyph unicode="&#x101;" glyph-name="amacron" horiz-adv-x="537" d="M200 -8Q116 -8 71 34T26 145Q26 194 47 227T103 279T186 307T284 315H391L398 357Q409 423 385 453T293 483Q238 483 204 460T158 382H82Q91 430 114 462T167 513T231 539T295 547Q338 547
374 537T434 503T469 443T471 352L441 160Q433 107 431 71T432 0H363Q361 23 361 46T362 87Q333 39 291 16T200 -8ZM204 53Q267 53 314 88T372 198L382 259H287Q191 259 145 234T98 142Q98 105 123 79T204 53ZM200 707H458L449 648H191L200 707Z" />
<glyph unicode="&#x102;" glyph-name="Abreve" horiz-adv-x="635" d="M337 715H442L575 0H497L459 209H158L53 0H-24L337 715ZM447 273L377 649L189 273H447ZM397 768Q342 768 306 803T270 898H331Q337 830 398 830Q463 830 475 898H535Q532 869 520 845T490 804T447
778T397 768Z" />
<glyph unicode="&#x103;" glyph-name="abreve" horiz-adv-x="537" d="M200 -8Q116 -8 71 34T26 145Q26 194 47 227T103 279T186 307T284 315H391L398 357Q409 423 385 453T293 483Q238 483 204 460T158 382H82Q91 430 114 462T167 513T231 539T295 547Q338 547
374 537T434 503T469 443T471 352L441 160Q433 107 431 71T432 0H363Q361 23 361 46T362 87Q333 39 291 16T200 -8ZM204 53Q267 53 314 88T372 198L382 259H287Q191 259 145 234T98 142Q98 105 123 79T204 53ZM323 618Q268 618 232 653T196 748H257Q265 681 324
681Q387 681 401 748H460Q457 719 445 695T415 654T373 628T323 618Z" />
<glyph unicode="&#x104;" glyph-name="Aogonek" horiz-adv-x="635" d="M447 273L377 649L189 273H447ZM510 -182Q470 -182 442 -163T414 -102Q414 -84 421 -70T441 -43T467 -20T497 -2L459 209H158L53 0H-24L337 715H442L575 0Q563 -7 548 -16T520 -36T497 -62T488
-93Q488 -127 527 -127Q552 -127 575 -117L567 -171Q557 -175 544 -178T510 -182Z" />
<glyph unicode="&#x105;" glyph-name="aogonek" horiz-adv-x="537" d="M204 53Q267 53 314 88T372 198L382 259H287Q191 259 145 234T98 142Q98 105 123 79T204 53ZM424 -171Q414 -175 401 -178T367 -182Q327 -182 299 -163T271 -102Q271 -85 279 -70T300 -41T329
-17T363 2Q361 25 361 47T362 87Q333 39 291 16T200 -8Q116 -8 71 34T26 145Q26 194 47 227T103 279T186 307T284 315H391L398 357Q409 423 385 453T293 483Q238 483 204 460T158 382H82Q91 430 114 462T167 513T231 539T295 547Q338 547 374 537T434 503T469 443T471
352L441 160Q433 107 431 71T432 0Q420 -7 405 -16T377 -36T354 -62T345 -93Q345 -127 384 -127Q409 -127 432 -117L424 -171Z" />
<glyph unicode="&#x106;" glyph-name="Cacute" horiz-adv-x="719" d="M379 -9Q305 -9 247 13T147 76T84 175T62 305Q62 392 89 468T167 602T288 692T442 725Q495 725 541 711T623 667T681 594T707 494H632Q619 576 572 619T438 662Q369 662 315 634T223 558T165
444T145 305Q145 187 204 122T380 56Q468 56 526 105T611 235H688Q673 179 644 134T575 57T485 8T379 -9ZM483 897H581L475 771H414L483 897Z" />
<glyph unicode="&#x107;" glyph-name="cacute" horiz-adv-x="558" d="M285 -8Q225 -8 179 10T101 61T53 139T37 237Q37 312 60 369T121 466T210 526T313 546Q357 546 395 535T461 501T507 443T528 360H457Q453 396 441 420T409 458T364 478T309 484Q268 484 232
468T170 421T129 344T114 237Q114 148 157 102T288 55Q347 55 392 89T449 190H519Q511 143 490 106T437 44T367 5T285 -8ZM366 758H465L346 611H285L366 758Z" />
<glyph unicode="&#x108;" glyph-name="Ccircumflex" horiz-adv-x="719" d="M428 897H497L589 771H535L456 834L361 771H303L428 897ZM379 -9Q305 -9 247 13T147 76T84 175T62 305Q62 392 89 468T167 602T288 692T442 725Q495 725 541 711T623 667T681 594T707
494H632Q619 576 572 619T438 662Q369 662 315 634T223 558T165 444T145 305Q145 187 204 122T380 56Q468 56 526 105T611 235H688Q673 179 644 134T575 57T485 8T379 -9Z" />
<glyph unicode="&#x109;" glyph-name="ccircumflex" horiz-adv-x="558" d="M285 -8Q225 -8 179 10T101 61T53 139T37 237Q37 312 60 369T121 466T210 526T313 546Q357 546 395 535T461 501T507 443T528 360H457Q453 396 441 420T409 458T364 478T309 484Q268 484
232 468T170 421T129 344T114 237Q114 148 157 102T288 55Q347 55 392 89T449 190H519Q511 143 490 106T437 44T367 5T285 -8ZM310 753H379L466 611H412L337 690L239 611H181L310 753Z" />
<glyph unicode="&#x10a;" glyph-name="Cdotaccent" horiz-adv-x="719" d="M379 -9Q305 -9 247 13T147 76T84 175T62 305Q62 392 89 468T167 602T288 692T442 725Q495 725 541 711T623 667T681 594T707 494H632Q619 576 572 619T438 662Q369 662 315 634T223 558T165
444T145 305Q145 187 204 122T380 56Q468 56 526 105T611 235H688Q673 179 644 134T575 57T485 8T379 -9ZM452 787Q432 787 417 801T401 837Q401 858 416 873T453 889Q474 889 489 875T504 839Q504 818 489 803T452 787Z" />
<glyph unicode="&#x10b;" glyph-name="cdotaccent" horiz-adv-x="558" d="M285 -8Q225 -8 179 10T101 61T53 139T37 237Q37 312 60 369T121 466T210 526T313 546Q357 546 395 535T461 501T507 443T528 360H457Q453 396 441 420T409 458T364 478T309 484Q268 484
232 468T170 421T129 344T114 237Q114 148 157 102T288 55Q347 55 392 89T449 190H519Q511 143 490 106T437 44T367 5T285 -8ZM331 633Q311 633 296 647T280 683Q280 704 295 719T332 735Q353 735 368 721T383 685Q383 664 368 649T331 633Z" />
<glyph unicode="&#x10c;" glyph-name="Ccaron" horiz-adv-x="719" d="M316 897H370L448 834L543 897H601L477 771H407L316 897ZM379 -9Q305 -9 247 13T147 76T84 175T62 305Q62 392 89 468T167 602T288 692T442 725Q495 725 541 711T623 667T681 594T707 494H632Q619
576 572 619T438 662Q369 662 315 634T223 558T165 444T145 305Q145 187 204 122T380 56Q468 56 526 105T611 235H688Q673 179 644 134T575 57T485 8T379 -9Z" />
<glyph unicode="&#x10d;" glyph-name="ccaron" horiz-adv-x="558" d="M285 -8Q225 -8 179 10T101 61T53 139T37 237Q37 312 60 369T121 466T210 526T313 546Q357 546 395 535T461 501T507 443T528 360H457Q453 396 441 420T409 458T364 478T309 484Q268 484 232
468T170 421T129 344T114 237Q114 148 157 102T288 55Q347 55 392 89T449 190H519Q511 143 490 106T437 44T367 5T285 -8ZM201 755H255L330 676L428 755H486L357 613H288L201 755Z" />
<glyph unicode="&#x10e;" glyph-name="Dcaron" horiz-adv-x="685" d="M246 897H300L378 834L473 897H531L407 771H337L246 897ZM246 65Q324 65 386 88T491 156T556 264T579 409Q579 461 565 505T521 581T442 631T325 650H225L132 65H246ZM155 715H329Q416 715
478 692T581 628T641 532T660 410Q660 324 633 249T554 119T426 32T249 0H42L155 715Z" />
<glyph unicode="&#x10f;" glyph-name="dcaron" horiz-adv-x="627" d="M270 -9Q219 -9 176 8T103 56T55 131T38 230Q38 293 57 350T112 451T200 521T318 547Q358 547 388 537T440 512T478 477T502 438L549 746H623L531 160Q522 105 520 69T519 0H450Q448 24 450
50T455 100Q426 52 378 22T270 -9ZM271 55Q316 55 354 71T421 119T466 199T482 312Q482 352 470 383T435 437T383 472T316 484Q269 484 232 465T170 413T131 333T118 233Q118 148 158 102T271 55ZM680 746H763L702 594H647L680 746Z" />
<glyph unicode="&#x110;" glyph-name="Dcroat" horiz-adv-x="703" d="M264 65Q342 65 404 88T508 156T573 264T596 409Q596 461 582 505T538 581T459 632T343 650H243L201 390H409L399 328H191L150 65H264ZM111 328H35L46 390H121L173 715H346Q434 715 496 692T599
628T659 532T678 410Q678 324 651 249T572 119T443 32T267 0H60L111 328Z" />
<glyph unicode="&#x111;" glyph-name="dcroat" horiz-adv-x="627" d="M270 -9Q219 -9 176 8T103 56T55 131T38 230Q38 293 57 350T112 451T200 521T318 547Q358 547 388 537T440 512T478 477T502 438L532 636H346L355 695H542L557 798H632L614 695H695L685 636H606L531
160Q522 105 520 69T519 0H450Q448 24 450 50T455 100Q426 52 378 22T270 -9ZM271 55Q316 55 354 71T421 119T466 200T482 316Q482 397 437 440T316 484Q269 484 232 465T170 413T131 333T118 233Q118 146 157 101T271 55Z" />
<glyph unicode="&#x112;" glyph-name="Emacron" horiz-adv-x="558" d="M155 715H566L555 650H224L184 399H455L445 333H174L132 65H486L475 0H42L155 715ZM247 846H508L499 787H237L247 846Z" />
<glyph unicode="&#x113;" glyph-name="emacron" horiz-adv-x="555" d="M264 -9Q210 -9 168 8T96 56T51 129T36 220Q36 292 57 351T116 454T204 522T314 546Q368 546 410 530T480 479T518 394T518 274L515 255H114Q113 246 113 237T113 216Q113 139 149 98T266
56Q325 56 365 80T421 153H496Q484 112 461 82T407 31T340 1T264 -9ZM450 320Q456 407 421 444T308 482Q278 482 250 473T197 445T153 394T124 320H450ZM204 707H462L453 648H195L204 707Z" />
<glyph unicode="&#x114;" glyph-name="Ebreve" horiz-adv-x="558" d="M155 715H566L555 650H224L184 399H455L445 333H174L132 65H486L475 0H42L155 715ZM367 768Q312 768 276 803T240 898H301Q307 830 368 830Q433 830 445 898H505Q502 869 490 845T460 804T417
778T367 768Z" />
<glyph unicode="&#x115;" glyph-name="ebreve" horiz-adv-x="555" d="M264 -9Q210 -9 168 8T96 56T51 129T36 220Q36 292 57 351T116 454T204 522T314 546Q368 546 410 530T480 479T518 394T518 274L515 255H114Q113 246 113 237T113 216Q113 139 149 98T266 56Q325
56 365 80T421 153H496Q484 112 461 82T407 31T340 1T264 -9ZM450 320Q456 407 421 444T308 482Q278 482 250 473T197 445T153 394T124 320H450ZM327 618Q272 618 236 653T200 748H261Q269 681 328 681Q391 681 405 748H464Q461 719 449 695T419 654T377 628T327
618Z" />
<glyph unicode="&#x116;" glyph-name="Edotaccent" horiz-adv-x="558" d="M371 787Q351 787 336 801T320 837Q320 858 335 873T372 889Q393 889 408 875T423 839Q423 818 408 803T371 787ZM155 715H566L555 650H224L184 399H455L445 333H174L132 65H486L475 0H42L155
715Z" />
<glyph unicode="&#x117;" glyph-name="edotaccent" horiz-adv-x="555" d="M264 -9Q210 -9 168 8T96 56T51 129T36 220Q36 292 57 351T116 454T204 522T314 546Q368 546 410 530T480 479T518 394T518 274L515 255H114Q113 246 113 237T113 216Q113 139 149 98T266
56Q325 56 365 80T421 153H496Q484 112 461 82T407 31T340 1T264 -9ZM450 320Q456 407 421 444T308 482Q278 482 250 473T197 445T153 394T124 320H450ZM325 633Q305 633 290 647T274 683Q274 704 289 719T326 735Q347 735 362 721T377 685Q377 664 362 649T325
633Z" />
<glyph unicode="&#x118;" glyph-name="Eogonek" horiz-adv-x="558" d="M155 715H566L555 650H224L184 399H455L445 333H174L132 65H486L475 0H42L155 715ZM339 -182Q299 -182 271 -163T243 -102Q243 -84 251 -69T272 -40T300 -18T331 0H404Q392 -7 377 -16T349
-36T326 -62T317 -93Q317 -127 356 -127Q381 -127 404 -117L396 -171Q386 -175 373 -178T339 -182Z" />
<glyph unicode="&#x119;" glyph-name="eogonek" horiz-adv-x="555" d="M272 -182Q232 -182 204 -163T176 -102Q176 -70 198 -47T248 -9Q197 -6 158 12T91 60T50 132T36 220Q36 292 57 351T116 454T204 522T314 546Q368 546 410 530T480 479T518 394T518 274L515
255H114Q113 246 113 237T113 216Q113 139 149 98T266 56Q325 56 365 80T421 153H496Q479 97 444 61T363 8Q343 0 323 -10T287 -32T260 -60T250 -93Q250 -127 289 -127Q314 -127 337 -117L329 -171Q319 -175 306 -178T272 -182ZM450 320Q456 407 421 444T308 482Q278
482 250 473T197 445T153 394T124 320H450Z" />
<glyph unicode="&#x11a;" glyph-name="Ecaron" horiz-adv-x="558" d="M231 897H285L363 834L458 897H516L392 771H322L231 897ZM155 715H566L555 650H224L184 399H455L445 333H174L132 65H486L475 0H42L155 715Z" />
<glyph unicode="&#x11b;" glyph-name="ecaron" horiz-adv-x="555" d="M264 -9Q210 -9 168 8T96 56T51 129T36 220Q36 292 57 351T116 454T204 522T314 546Q368 546 410 530T480 479T518 394T518 274L515 255H114Q113 246 113 237T113 216Q113 139 149 98T266 56Q325
56 365 80T421 153H496Q484 112 461 82T407 31T340 1T264 -9ZM450 320Q456 407 421 444T308 482Q278 482 250 473T197 445T153 394T124 320H450ZM195 755H249L324 676L422 755H480L351 613H282L195 755Z" />
<glyph unicode="&#x11c;" glyph-name="Gcircumflex" horiz-adv-x="756" d="M422 897H491L583 771H529L450 834L355 771H297L422 897ZM388 -9Q310 -9 250 15T148 83T85 186T63 314Q63 398 91 472T168 603T287 691T437 724Q491 724 539 711T625 670T687 601T715
502H636Q632 542 615 572T572 621T510 650T435 660Q368 660 315 633T224 559T166 449T146 314Q146 256 161 209T207 127T284 75T390 56Q445 56 487 73T559 121T609 196T636 292H421L432 358H723Q715 262 689 193T620 79T519 13T388 -9Z" />
<glyph unicode="&#x11d;" glyph-name="gcircumflex" horiz-adv-x="628" d="M248 -187Q184 -187 141 -172T71 -133T31 -80T13 -23H89Q97 -67 134 -94T246 -122Q337 -122 382 -79T439 47L449 110Q419 67 375 43T271 19Q221 19 179 36T107 83T60 156T43 249Q43 309
63 363T120 458T207 523T316 547Q356 547 386 537T439 512T477 477T502 438L517 539H592L513 38Q495 -75 426 -131T248 -187ZM272 81Q314 81 352 97T419 144T465 219T482 320Q482 359 469 389T434 441T381 473T314 484Q269 484 234 466T174 415T136 341T122 251Q122
176 159 129T272 81ZM335 753H404L491 611H437L362 690L264 611H206L335 753Z" />
<glyph unicode="&#x11e;" glyph-name="Gbreve" horiz-adv-x="756" d="M446 768Q391 768 355 803T319 898H380Q386 830 447 830Q512 830 524 898H584Q581 869 569 845T539 804T496 778T446 768ZM388 -9Q310 -9 250 15T148 83T85 186T63 314Q63 398 91 472T168 603T287
691T437 724Q491 724 539 711T625 670T687 601T715 502H636Q632 542 615 572T572 621T510 650T435 660Q368 660 315 633T224 559T166 449T146 314Q146 256 161 209T207 127T284 75T390 56Q445 56 487 73T559 121T609 196T636 292H421L432 358H723Q715 262 689 193T620
79T519 13T388 -9Z" />
<glyph unicode="&#x11f;" glyph-name="gbreve" horiz-adv-x="628" d="M248 -187Q184 -187 141 -172T71 -133T31 -80T13 -23H89Q97 -67 134 -94T246 -122Q337 -122 382 -79T439 47L449 110Q419 67 375 43T271 19Q221 19 179 36T107 83T60 156T43 249Q43 309 63
363T120 458T207 523T316 547Q356 547 386 537T439 512T477 477T502 438L517 539H592L513 38Q495 -75 426 -131T248 -187ZM272 81Q314 81 352 97T419 144T465 219T482 320Q482 359 469 389T434 441T381 473T314 484Q269 484 234 466T174 415T136 341T122 251Q122
176 159 129T272 81ZM357 618Q302 618 266 653T230 748H291Q299 681 358 681Q421 681 435 748H494Q491 719 479 695T449 654T407 628T357 618Z" />
<glyph unicode="&#x120;" glyph-name="Gdotaccent" horiz-adv-x="756" d="M448 787Q428 787 413 801T397 837Q397 858 412 873T449 889Q470 889 485 875T500 839Q500 818 485 803T448 787ZM388 -9Q310 -9 250 15T148 83T85 186T63 314Q63 398 91 472T168 603T287
691T437 724Q491 724 539 711T625 670T687 601T715 502H636Q632 542 615 572T572 621T510 650T435 660Q368 660 315 633T224 559T166 449T146 314Q146 256 161 209T207 127T284 75T390 56Q445 56 487 73T559 121T609 196T636 292H421L432 358H723Q715 262 689 193T620
79T519 13T388 -9Z" />
<glyph unicode="&#x121;" glyph-name="gdotaccent" horiz-adv-x="628" d="M248 -187Q184 -187 141 -172T71 -133T31 -80T13 -23H89Q97 -67 134 -94T246 -122Q337 -122 382 -79T439 47L449 110Q419 67 375 43T271 19Q221 19 179 36T107 83T60 156T43 249Q43 309
63 363T120 458T207 523T316 547Q356 547 386 537T439 512T477 477T502 438L517 539H592L513 38Q495 -75 426 -131T248 -187ZM272 81Q314 81 352 97T419 144T465 219T482 320Q482 359 469 389T434 441T381 473T314 484Q269 484 234 466T174 415T136 341T122 251Q122
176 159 129T272 81ZM355 633Q335 633 320 647T304 683Q304 704 319 719T356 735Q377 735 392 721T407 685Q407 664 392 649T355 633Z" />
<glyph unicode="&#x122;" glyph-name="Gcommaaccent" horiz-adv-x="756" d="M340 -134Q319 -133 307 -121T294 -88Q294 -68 307 -56T341 -43Q364 -43 381 -60T391 -116L389 -128Q382 -170 353 -190T277 -213L282 -176Q334 -170 340 -134ZM388 -9Q310 -9 250 15T148
83T85 186T63 314Q63 398 91 472T168 603T287 691T437 724Q491 724 539 711T625 670T687 601T715 502H636Q632 542 615 572T572 621T510 650T435 660Q368 660 315 633T224 559T166 449T146 314Q146 256 161 209T207 127T284 75T390 56Q445 56 487 73T559 121T609
196T636 292H421L432 358H723Q715 262 689 193T620 79T519 13T388 -9Z" />
<glyph unicode="&#x123;" glyph-name="gcommaaccent" horiz-adv-x="628" d="M248 -187Q184 -187 141 -172T71 -133T31 -80T13 -23H89Q97 -67 134 -94T246 -122Q337 -122 382 -79T439 47L449 110Q419 67 375 43T271 19Q221 19 179 36T107 83T60 156T43 249Q43 309
63 363T120 458T207 523T316 547Q356 547 386 537T439 512T477 477T502 438L517 539H592L513 38Q495 -75 426 -131T248 -187ZM272 81Q314 81 352 97T419 144T465 219T482 320Q482 359 469 389T434 441T381 473T314 484Q269 484 234 466T174 415T136 341T122 251Q122
176 159 129T272 81ZM360 711Q382 710 394 699T407 666Q407 646 393 633T359 620Q336 620 320 638T309 694L311 705Q318 747 347 767T424 790L418 754Q367 747 360 711Z" />
<glyph unicode="&#x124;" glyph-name="Hcircumflex" horiz-adv-x="714" d="M155 715H235L183 389H569L621 715H701L588 0H508L559 322H172L122 0H42L155 715ZM414 897H483L575 771H521L442 834L347 771H289L414 897Z" />
<glyph unicode="&#x125;" glyph-name="hcircumflex" horiz-adv-x="593" d="M158 746H232L184 442Q196 461 213 480T254 514T305 538T366 547Q408 547 441 535T496 496T524 426T523 322L471 0H398L452 346Q464 416 439 449T357 483Q322 483 290 472T232 439T189
386T164 315L115 0H40L158 746ZM361 907H430L522 781H468L389 844L294 781H236L361 907Z" />
<glyph unicode="&#x126;" glyph-name="Hbar" horiz-adv-x="714" d="M120 497H48L58 559H130L155 715H235L210 559H596L621 715H701L676 559H748L739 497H667L588 0H508L559 322H172L122 0H42L120 497ZM569 389L586 497H199L183 389H569Z" />
<glyph unicode="&#x127;" glyph-name="hbar" horiz-adv-x="593" d="M141 636H61L71 695H149L166 798H240L223 695H410L401 636H215L184 442Q196 461 213 480T254 514T305 538T366 547Q408 547 441 535T496 496T524 426T523 322L471 0H398L452 346Q465 421 441
452T357 483Q322 483 290 472T232 439T189 386T164 315L115 0H40L141 636Z" />
<glyph unicode="&#x128;" glyph-name="Itilde" horiz-adv-x="260" d="M160 715H240L127 0H47L160 715ZM315 772Q326 826 353 855T419 884Q436 884 451 877T481 862T507 846T532 839Q546 839 559 851T578 886H634Q623 832 596 803T532 774Q514 774 498 781T468
796T442 812T418 819Q403 819 390 807T371 772H315V772Z" />
<glyph unicode="&#x129;" glyph-name="itilde" horiz-adv-x="245" d="M128 539H201L116 0H42L128 539ZM498 618Q480 618 465 625T435 641T409 657T385 664Q370 664 357 652T338 617H282Q293 671 320 700T386 729Q403 729 418 722T448 707T474 691T499 684Q513
684 526 696T545 731H600Q590 677 563 648T498 618Z" />
<glyph unicode="&#x12a;" glyph-name="Imacron" horiz-adv-x="260" d="M160 715H240L127 0H47L160 715ZM346 846H607L598 787H336L346 846Z" />
<glyph unicode="&#x12b;" glyph-name="imacron" horiz-adv-x="245" d="M89 707H287L278 648H80L89 707ZM128 539H201L116 0H42L128 539Z" />
<glyph unicode="&#x12c;" glyph-name="Ibreve" horiz-adv-x="260" d="M160 715H240L127 0H47L160 715ZM466 768Q411 768 375 803T339 898H400Q406 830 467 830Q532 830 544 898H604Q601 869 589 845T559 804T516 778T466 768Z" />
<glyph unicode="&#x12d;" glyph-name="ibreve" horiz-adv-x="245" d="M128 539H201L116 0H42L128 539ZM441 618Q386 618 350 653T314 748H375Q383 681 442 681Q505 681 519 748H578Q575 719 563 695T533 654T491 628T441 618Z" />
<glyph unicode="&#x12e;" glyph-name="Iogonek" horiz-adv-x="260" d="M61 -182Q21 -182 -7 -163T-35 -102Q-35 -85 -28 -70T-9 -43T17 -21T46 -3L160 715H240L127 1Q115 -6 100 -15T71 -35T48 -61T39 -93Q39 -127 78 -127Q103 -127 126 -117L118 -171Q108 -175
95 -178T61 -182Z" />
<glyph unicode="&#x12f;" glyph-name="iogonek" horiz-adv-x="245" d="M184 615Q163 615 148 630T132 667Q132 687 148 703T185 720Q206 720 220 705T235 669Q235 648 220 632T184 615ZM51 -182Q11 -182 -17 -163T-45 -102Q-45 -84 -37 -69T-16 -41T12 -18T42
-1L128 539H201L116 0Q104 -7 89 -16T61 -36T38 -62T29 -93Q29 -127 68 -127Q93 -127 116 -117L108 -171Q98 -175 85 -178T51 -182Z" />
<glyph unicode="&#x130;" glyph-name="Idotaccent" horiz-adv-x="260" d="M160 715H240L127 0H47L160 715ZM470 787Q450 787 435 801T419 837Q419 858 434 873T471 889Q492 889 507 875T522 839Q522 818 507 803T470 787Z" />
<glyph unicode="&#x131;" glyph-name="dotlessi" horiz-adv-x="245" d="M128 539H201L116 0H42L128 539Z" />
<glyph unicode="&#x132;" glyph-name="IJ" horiz-adv-x="632" d="M160 715H240L127 0H47L160 715ZM336 -8Q286 -8 261 1T221 18L231 82Q251 73 275 65T334 57Q388 57 420 87T463 184L547 715H627L541 177Q525 79 470 36T336 -8Z" />
<glyph unicode="&#x133;" glyph-name="ij" horiz-adv-x="490" d="M128 539H201L116 0H42L128 539ZM184 615Q163 615 148 630T132 667Q132 687 148 703T185 720Q206 720 220 705T235 669Q235 648 220 632T184 615ZM187 -123Q235 -121 255 -99T282 -36L373 539H446L356
-40Q345 -110 303 -148T177 -187L187 -123ZM429 615Q408 615 393 630T377 667Q377 687 393 703T430 720Q451 720 465 705T480 669Q480 648 465 632T429 615Z" />
<glyph unicode="&#x134;" glyph-name="Jcircumflex" horiz-adv-x="402" d="M344 897H413L505 771H451L372 834L277 771H219L344 897ZM106 -8Q56 -8 31 1T-9 18L1 82Q21 73 45 65T104 57Q158 57 190 87T233 184L317 715H397L311 177Q295 79 240 36T106 -8Z" />
<glyph unicode="&#x135;" glyph-name="jcircumflex" horiz-adv-x="245" d="M-58 -123Q-10 -121 10 -99T37 -36L128 539H201L111 -40Q100 -110 58 -148T-68 -187L-58 -123ZM418 753H487L574 611H520L445 690L347 611H289L418 753Z" />
<glyph unicode="&#x136;" glyph-name="Kcommaaccent" horiz-adv-x="603" d="M154 715H241L187 375L550 715H651L278 370L550 0H453L185 359L128 0H41L154 715ZM273 -134Q252 -133 240 -121T227 -88Q227 -68 240 -56T274 -43Q297 -43 314 -60T324 -116L322 -128Q315
-170 286 -190T210 -213L215 -176Q267 -170 273 -134Z" />
<glyph unicode="&#x137;" glyph-name="kcommaaccent" horiz-adv-x="505" d="M158 746H232L162 300L427 539H522L244 291L452 0H366L160 291L115 0H40L158 746ZM211 -134Q190 -133 178 -121T165 -88Q165 -68 178 -56T212 -43Q235 -43 252 -60T262 -116L260 -128Q253
-170 224 -190T148 -213L153 -176Q205 -170 211 -134Z" />
<glyph unicode="&#x139;" glyph-name="Lacute" horiz-adv-x="521" d="M494 897H592L486 771H425L494 897ZM155 715H235L132 65H464L453 0H42L155 715Z" />
<glyph unicode="&#x13a;" glyph-name="lacute" horiz-adv-x="246" d="M160 746H236L117 0H42L160 746ZM498 917H596L490 791H429L498 917Z" />
<glyph unicode="&#x13b;" glyph-name="Lcommaaccent" horiz-adv-x="521" d="M250 -134Q229 -133 217 -121T204 -88Q204 -68 217 -56T251 -43Q274 -43 291 -60T301 -116L299 -128Q292 -170 263 -190T187 -213L192 -176Q244 -170 250 -134ZM155 715H235L132 65H464L453
0H42L155 715Z" />
<glyph unicode="&#x13c;" glyph-name="lcommaaccent" horiz-adv-x="246" d="M160 746H236L117 0H42L160 746ZM318 -134Q297 -133 285 -121T272 -88Q272 -68 285 -56T319 -43Q342 -43 359 -60T369 -116L367 -128Q360 -170 331 -190T255 -213L260 -176Q312 -170 318 -134Z" />
<glyph unicode="&#x13d;" glyph-name="Lcaron" horiz-adv-x="521" d="M155 715H235L132 65H464L453 0H42L155 715ZM321 715H408L332 558H277L321 715Z" />
<glyph unicode="&#x13e;" glyph-name="lcaron" horiz-adv-x="246" d="M160 746H236L117 0H42L160 746ZM293 746H376L315 594H260L293 746Z" />
<glyph unicode="&#x13f;" glyph-name="Ldot" horiz-adv-x="514" d="M155 715H235L132 65H464L453 0H42L155 715ZM440 323Q416 323 399 340T381 382Q381 407 398 424T439 441Q464 441 481 424T499 382Q499 357 482 340T440 323Z" />
<glyph unicode="&#x140;" glyph-name="ldot" horiz-adv-x="327" d="M160 746H236L117 0H42L160 746ZM301 309Q277 309 260 326T242 368Q242 393 259 410T300 427Q325 427 342 410T360 368Q360 343 343 326T301 309Z" />
<glyph unicode="&#x141;" glyph-name="Lslash" horiz-adv-x="540" d="M104 275L31 250L41 316L114 341L174 715H254L199 370L415 446L405 380L189 305L151 65H482L472 0H61L104 275Z" />
<glyph unicode="&#x142;" glyph-name="lslash" horiz-adv-x="264" d="M110 372L23 326L34 397L121 441L177 798H253L202 485L295 533L283 463L192 415L126 0H52L110 372Z" />
<glyph unicode="&#x143;" glyph-name="Nacute" horiz-adv-x="708" d="M478 897H576L470 771H409L478 897ZM155 715H257L523 113L619 715H695L582 0H492L217 622L118 0H42L155 715Z" />
<glyph unicode="&#x144;" glyph-name="nacute" horiz-adv-x="593" d="M100 380Q104 407 106 428T110 469T113 505T114 539H183Q183 516 182 487T177 430Q205 479 252 513T366 547Q408 547 441 535T496 496T524 426T523 322L471 0H398L452 346Q476 483 357 483Q322
483 290 472T232 439T189 386T164 315L115 0H40L100 380ZM392 758H491L372 611H311L392 758Z" />
<glyph unicode="&#x145;" glyph-name="Ncommaaccent" horiz-adv-x="708" d="M294 -134Q273 -133 261 -121T248 -88Q248 -68 261 -56T295 -43Q318 -43 335 -60T345 -116L343 -128Q336 -170 307 -190T231 -213L236 -176Q288 -170 294 -134ZM155 715H257L523 113L619
715H695L582 0H492L217 622L118 0H42L155 715Z" />
<glyph unicode="&#x146;" glyph-name="ncommaaccent" horiz-adv-x="593" d="M100 380Q104 407 106 428T110 469T113 505T114 539H183Q183 516 182 487T177 430Q205 479 252 513T366 547Q408 547 441 535T496 496T524 426T523 322L471 0H398L452 346Q476 483 357
483Q322 483 290 472T232 439T189 386T164 315L115 0H40L100 380ZM241 -134Q220 -133 208 -121T195 -88Q195 -68 208 -56T242 -43Q265 -43 282 -60T292 -116L290 -128Q283 -170 254 -190T178 -213L183 -176Q235 -170 241 -134Z" />
<glyph unicode="&#x147;" glyph-name="Ncaron" horiz-adv-x="708" d="M312 897H366L444 834L539 897H597L473 771H403L312 897ZM155 715H257L523 113L619 715H695L582 0H492L217 622L118 0H42L155 715Z" />
<glyph unicode="&#x148;" glyph-name="ncaron" horiz-adv-x="593" d="M100 380Q104 407 106 428T110 469T113 505T114 539H183Q183 516 182 487T177 430Q205 479 252 513T366 547Q408 547 441 535T496 496T524 426T523 322L471 0H398L452 346Q476 483 357 483Q322
483 290 472T232 439T189 386T164 315L115 0H40L100 380ZM227 755H281L356 676L454 755H512L383 613H314L227 755Z" />
<glyph unicode="&#x149;" glyph-name="napostrophe" horiz-adv-x="600" d="M303 615Q277 616 263 630T248 668Q248 691 264 706T304 722Q331 722 350 701T363 635L361 624Q352 573 318 548T227 520L234 564Q294 571 303 615ZM107 380Q111 407 113 428T117 469T120
505T121 539H190Q190 516 189 487T184 430Q212 479 259 513T373 547Q415 547 448 535T503 496T531 426T530 322L478 0H405L459 346Q483 483 364 483Q329 483 297 472T239 439T196 386T171 315L122 0H47L107 380Z" />
<glyph unicode="&#x14a;" glyph-name="Eng" horiz-adv-x="708" d="M375 -192Q330 -192 305 -185T265 -169L276 -104Q294 -114 314 -120T367 -127Q421 -127 454 -100T501 -9L217 622L118 0H42L155 715H260L526 130L619 715H695L583 8Q574 -48 556 -86T510 -147T449
-181T375 -192Z" />
<glyph unicode="&#x14b;" glyph-name="eng" horiz-adv-x="593" d="M296 -133Q344 -130 364 -109T390 -45L452 346Q464 416 439 449T357 483Q322 483 290 472T232 439T189 386T164 315L115 0H40L100 380Q104 407 106 428T110 469T113 505T114 539H183Q183 516 182
487T177 430Q205 479 252 513T366 547Q408 547 441 535T496 496T524 426T523 322L464 -51Q459 -85 447 -111T414 -157T361 -186T285 -198L296 -133Z" />
<glyph unicode="&#x14c;" glyph-name="Omacron" horiz-adv-x="799" d="M352 846H613L604 787H342L352 846ZM390 57Q455 57 509 83T602 155T662 264T684 401Q684 454 669 501T623 583T547 638T444 659Q375 659 320 632T226 557T166 447T145 314Q145 255 163 208T213
127T290 75T390 57ZM389 -9Q314 -9 254 15T151 83T85 185T62 314Q62 398 91 473T172 603T294 691T445 724Q522 724 581 699T682 629T744 526T766 401Q766 313 737 238T657 108T537 22T389 -9Z" />
<glyph unicode="&#x14d;" glyph-name="omacron" horiz-adv-x="594" d="M276 55Q324 55 361 74T425 127T464 207T478 308Q478 389 437 436T314 484Q269 484 233 465T170 412T129 332T114 231Q114 150 154 103T276 55ZM272 -8Q216 -8 172 10T98 61T52 137T36 231Q36
298 58 355T118 455T208 522T319 546Q375 546 419 529T494 480T541 405T557 311Q557 242 536 184T477 83T387 16T272 -8ZM227 707H485L476 648H218L227 707Z" />
<glyph unicode="&#x14e;" glyph-name="Obreve" horiz-adv-x="799" d="M472 768Q417 768 381 803T345 898H406Q412 830 473 830Q538 830 550 898H610Q607 869 595 845T565 804T522 778T472 768ZM390 57Q455 57 509 83T602 155T662 264T684 401Q684 454 669 501T623
583T547 638T444 659Q375 659 320 632T226 557T166 447T145 314Q145 255 163 208T213 127T290 75T390 57ZM389 -9Q314 -9 254 15T151 83T85 185T62 314Q62 398 91 473T172 603T294 691T445 724Q522 724 581 699T682 629T744 526T766 401Q766 313 737 238T657 108T537
22T389 -9Z" />
<glyph unicode="&#x14f;" glyph-name="obreve" horiz-adv-x="594" d="M276 55Q324 55 361 74T425 127T464 207T478 308Q478 389 437 436T314 484Q269 484 233 465T170 412T129 332T114 231Q114 150 154 103T276 55ZM272 -8Q216 -8 172 10T98 61T52 137T36 231Q36
298 58 355T118 455T208 522T319 546Q375 546 419 529T494 480T541 405T557 311Q557 242 536 184T477 83T387 16T272 -8ZM350 618Q295 618 259 653T223 748H284Q292 681 351 681Q414 681 428 748H487Q484 719 472 695T442 654T400 628T350 618Z" />
<glyph unicode="&#x150;" glyph-name="Ohungarumlaut" horiz-adv-x="799" d="M404 897H493L413 771H357L404 897ZM553 897H642L562 771H506L553 897ZM390 57Q455 57 509 83T602 155T662 264T684 401Q684 454 669 501T623 583T547 638T444 659Q375 659 320 632T226
557T166 447T145 314Q145 255 163 208T213 127T290 75T390 57ZM389 -9Q314 -9 254 15T151 83T85 185T62 314Q62 398 91 473T172 603T294 691T445 724Q522 724 581 699T682 629T744 526T766 401Q766 313 737 238T657 108T537 22T389 -9Z" />
<glyph unicode="&#x151;" glyph-name="ohungarumlaut" horiz-adv-x="594" d="M276 55Q324 55 361 74T425 127T464 207T478 308Q478 389 437 436T314 484Q269 484 233 465T170 412T129 332T114 231Q114 150 154 103T276 55ZM272 -8Q216 -8 172 10T98 61T52 137T36
231Q36 298 58 355T118 455T208 522T319 546Q375 546 419 529T494 480T541 405T557 311Q557 242 536 184T477 83T387 16T272 -8ZM299 758H387L299 611H243L299 758ZM448 758H536L448 611H392L448 758Z" />
<glyph unicode="&#x152;" glyph-name="OE" horiz-adv-x="948" d="M398 0Q310 0 247 23T143 87T82 184T62 306Q62 392 89 467T169 597T299 683T475 715H962L951 650H635L596 399H851L841 333H586L543 65H881L871 0H398ZM463 65L555 650H478Q400 650 338 627T233
559T167 452T144 307Q144 255 158 211T204 134T284 84T401 65H463Z" />
<glyph unicode="&#x153;" glyph-name="oe" horiz-adv-x="993" d="M272 -8Q216 -8 172 10T98 61T52 137T36 231Q36 298 58 355T118 455T208 522T319 546Q399 546 452 510T530 411Q565 474 621 510T752 546Q806 546 848 530T918 479T956 394T956 274L953 255H552Q550
246 550 237T550 216Q550 139 587 98T705 56Q763 56 802 80T859 153H934Q908 70 845 31T702 -9Q621 -9 571 26T499 122Q463 62 405 27T272 -8ZM276 55Q324 55 361 74T425 127T464 207T478 308Q478 389 437 436T314 484Q269 484 233 465T170 412T129 332T114 231Q114
150 154 103T276 55ZM888 320Q894 407 859 444T747 482Q717 482 688 473T635 445T591 394T562 320H888Z" />
<glyph unicode="&#x154;" glyph-name="Racute" horiz-adv-x="610" d="M394 897H492L386 771H325L394 897ZM155 715H360Q407 715 447 704T517 670T562 613T578 534Q578 485 562 448T518 384T453 342T372 321L548 0H462L291 314H171L122 0H42L155 715ZM318 378Q406
378 452 415T499 534Q500 596 463 623T356 650H225L181 378H318Z" />
<glyph unicode="&#x155;" glyph-name="racute" horiz-adv-x="368" d="M100 380Q104 407 106 428T110 469T113 505T114 539H183Q183 516 182 488T177 428Q194 455 212 476T253 514T305 538T376 548L365 479Q325 476 291 466T231 433T186 374T159 285L115 0H40L100
380ZM302 758H401L282 611H221L302 758Z" />
<glyph unicode="&#x156;" glyph-name="Rcommaaccent" horiz-adv-x="610" d="M155 715H360Q407 715 447 704T517 670T562 613T578 534Q578 485 562 448T518 384T453 342T372 321L548 0H462L291 314H171L122 0H42L155 715ZM318 378Q406 378 452 415T499 534Q500
596 463 623T356 650H225L181 378H318ZM264 -134Q243 -133 231 -121T218 -88Q218 -68 231 -56T265 -43Q288 -43 305 -60T315 -116L313 -128Q306 -170 277 -190T201 -213L206 -176Q258 -170 264 -134Z" />
<glyph unicode="&#x157;" glyph-name="rcommaaccent" horiz-adv-x="368" d="M100 380Q104 407 106 428T110 469T113 505T114 539H183Q183 516 182 488T177 428Q194 455 212 476T253 514T305 538T376 548L365 479Q325 476 291 466T231 433T186 374T159 285L115
0H40L100 380ZM314 -134Q293 -133 281 -121T268 -88Q268 -68 281 -56T315 -43Q338 -43 355 -60T365 -116L363 -128Q356 -170 327 -190T251 -213L256 -176Q308 -170 314 -134Z" />
<glyph unicode="&#x158;" glyph-name="Rcaron" horiz-adv-x="610" d="M230 897H284L362 834L457 897H515L391 771H321L230 897ZM155 715H360Q407 715 447 704T517 670T562 613T578 534Q578 485 562 448T518 384T453 342T372 321L548 0H462L291 314H171L122 0H42L155
715ZM318 378Q406 378 452 415T499 534Q500 596 463 623T356 650H225L181 378H318Z" />
<glyph unicode="&#x159;" glyph-name="rcaron" horiz-adv-x="368" d="M100 380Q104 407 106 428T110 469T113 505T114 539H183Q183 516 182 488T177 428Q194 455 212 476T253 514T305 538T376 548L365 479Q325 476 291 466T231 433T186 374T159 285L115 0H40L100
380ZM137 755H191L266 676L364 755H422L293 613H224L137 755Z" />
<glyph unicode="&#x15a;" glyph-name="Sacute" horiz-adv-x="607" d="M288 -9Q222 -9 173 9T91 58T42 129T25 215H104Q105 183 116 155T151 104T209 69T293 56Q375 55 420 94T466 202Q466 227 459 246T433 282T385 311T309 337Q258 352 220 368T155 406T115 457T102
527Q102 568 119 604T167 666T242 708T340 724Q442 724 504 675T569 531H495Q488 602 445 630T333 659Q254 659 216 623T178 530Q178 508 185 491T210 460T258 432T336 405Q389 389 428 372T494 332T532 280T545 210Q545 162 527 122T476 53T395 8T288 -9ZM400
897H498L392 771H331L400 897Z" />
<glyph unicode="&#x15b;" glyph-name="sacute" horiz-adv-x="480" d="M231 -9Q177 -9 139 5T75 44T37 100T24 165H97Q98 142 105 123T128 88T169 65T233 56Q293 56 321 80T349 150Q349 187 324 206T238 242Q193 254 162 268T111 300T84 341T75 394Q75 431 90 460T131
508T189 537T257 547Q334 547 385 511T442 394H373Q371 435 340 458T255 482Q202 482 174 460T145 398Q145 381 150 369T168 346T202 328T257 311Q296 301 326 289T378 258T410 215T421 153Q421 117 408 87T370 36T310 3T231 -9ZM325 758H424L305 611H244L325 758Z"
/>
<glyph unicode="&#x15c;" glyph-name="Scircumflex" horiz-adv-x="607" d="M344 897H413L505 771H451L372 834L277 771H219L344 897ZM288 -9Q222 -9 173 9T91 58T42 129T25 215H104Q105 183 116 155T151 104T209 69T293 56Q375 55 420 94T466 202Q466 227 459
246T433 282T385 311T309 337Q258 352 220 368T155 406T115 457T102 527Q102 568 119 604T167 666T242 708T340 724Q442 724 504 675T569 531H495Q488 602 445 630T333 659Q254 659 216 623T178 530Q178 508 185 491T210 460T258 432T336 405Q389 389 428 372T494
332T532 280T545 210Q545 162 527 122T476 53T395 8T288 -9Z" />
<glyph unicode="&#x15d;" glyph-name="scircumflex" horiz-adv-x="480" d="M231 -9Q177 -9 139 5T75 44T37 100T24 165H97Q98 142 105 123T128 88T169 65T233 56Q293 56 321 80T349 150Q349 187 324 206T238 242Q193 254 162 268T111 300T84 341T75 394Q75 431
90 460T131 508T189 537T257 547Q334 547 385 511T442 394H373Q371 435 340 458T255 482Q202 482 174 460T145 398Q145 381 150 369T168 346T202 328T257 311Q296 301 326 289T378 258T410 215T421 153Q421 117 408 87T370 36T310 3T231 -9ZM269 753H338L425 611H371L296
690L198 611H140L269 753Z" />
<glyph unicode="&#x15e;" glyph-name="Scedilla" horiz-adv-x="607" d="M232 -214Q193 -214 166 -194T134 -131H187Q189 -147 200 -158T231 -169Q248 -169 261 -160T274 -128Q274 -112 264 -103T237 -94Q227 -94 221 -97T209 -103L184 -75L237 -6Q184 1 145 21T79
71T39 137T25 215H104Q105 183 116 155T151 104T209 69T293 56Q375 55 420 94T466 202Q466 227 459 246T433 282T385 311T309 337Q258 352 220 368T155 406T115 457T102 527Q102 568 119 604T167 666T242 708T340 724Q442 724 504 675T569 531H495Q488 602 445
630T333 659Q254 659 216 623T178 530Q178 508 185 491T210 460T258 432T336 405Q389 389 428 372T494 332T532 280T545 210Q545 162 527 122T476 53T395 8T288 -9H283L249 -55Q264 -53 279 -56T306 -69T325 -92T333 -126Q333 -169 305 -191T232 -214Z" />
<glyph unicode="&#x15f;" glyph-name="scedilla" horiz-adv-x="480" d="M180 -214Q141 -214 114 -194T82 -131H135Q137 -147 148 -158T179 -169Q196 -169 209 -160T222 -128Q222 -112 212 -103T185 -94Q175 -94 169 -97T157 -103L132 -75L185 -6Q143 0 113 16T64
56T35 107T24 165H97Q98 142 105 123T128 88T169 65T233 56Q293 56 321 80T349 150Q349 187 324 206T238 242Q193 254 162 268T111 300T84 341T75 394Q75 431 90 460T131 508T189 537T257 547Q334 547 385 511T442 394H373Q371 435 340 458T255 482Q202 482 174
460T145 398Q145 381 150 369T168 346T202 328T257 311Q296 301 326 289T378 258T410 215T421 153Q421 117 408 87T370 36T310 3T231 -9L197 -55Q212 -53 227 -56T254 -69T273 -92T281 -126Q281 -169 253 -191T180 -214Z" />
<glyph unicode="&#x160;" glyph-name="Scaron" horiz-adv-x="607" d="M224 897H278L356 834L451 897H509L385 771H315L224 897ZM288 -9Q222 -9 173 9T91 58T42 129T25 215H104Q105 183 116 155T151 104T209 69T293 56Q375 55 420 94T466 202Q466 227 459 246T433
282T385 311T309 337Q258 352 220 368T155 406T115 457T102 527Q102 568 119 604T167 666T242 708T340 724Q442 724 504 675T569 531H495Q488 602 445 630T333 659Q254 659 216 623T178 530Q178 508 185 491T210 460T258 432T336 405Q389 389 428 372T494 332T532
280T545 210Q545 162 527 122T476 53T395 8T288 -9Z" />
<glyph unicode="&#x161;" glyph-name="scaron" horiz-adv-x="480" d="M231 -9Q177 -9 139 5T75 44T37 100T24 165H97Q98 142 105 123T128 88T169 65T233 56Q293 56 321 80T349 150Q349 187 324 206T238 242Q193 254 162 268T111 300T84 341T75 394Q75 431 90 460T131
508T189 537T257 547Q334 547 385 511T442 394H373Q371 435 340 458T255 482Q202 482 174 460T145 398Q145 381 150 369T168 346T202 328T257 311Q296 301 326 289T378 258T410 215T421 153Q421 117 408 87T370 36T310 3T231 -9ZM160 755H214L289 676L387 755H445L316
613H247L160 755Z" />
<glyph unicode="&#x162;" glyph-name="Tcommaaccent" horiz-adv-x="547" d="M211 -134Q190 -133 178 -121T165 -88Q165 -68 178 -56T212 -43Q235 -43 252 -60T262 -116L260 -128Q253 -170 224 -190T148 -213L153 -176Q205 -170 211 -134ZM292 650H81L92 715H595L584
650H372L271 0H191L292 650Z" />
<glyph unicode="&#x163;" glyph-name="tcommaaccent" horiz-adv-x="339" d="M203 -6Q164 -6 138 5T96 37T76 85T76 142L129 473H51L61 539H139L161 671H235L213 539H338L327 473H202L149 138Q142 93 157 75T211 57Q245 57 275 68L265 5Q252 -1 236 -3T203 -6ZM139
-134Q118 -133 106 -121T93 -88Q93 -68 106 -56T140 -43Q163 -43 180 -60T190 -116L188 -128Q181 -170 152 -190T76 -213L81 -176Q133 -170 139 -134Z" />
<glyph unicode="&#x164;" glyph-name="Tcaron" horiz-adv-x="547" d="M217 897H271L349 834L444 897H502L378 771H308L217 897ZM292 650H81L92 715H595L584 650H372L271 0H191L292 650Z" />
<glyph unicode="&#x165;" glyph-name="tcaron" horiz-adv-x="339" d="M203 -6Q164 -6 138 5T96 37T76 85T76 142L129 473H51L61 539H139L161 671H235L213 539H338L327 473H202L149 138Q142 93 157 75T211 57Q245 57 275 68L265 5Q252 -1 236 -3T203 -6ZM305 746H388L327
594H272L305 746Z" />
<glyph unicode="&#x166;" glyph-name="Tbar" horiz-adv-x="547" d="M244 344H100L109 405H254L292 650H81L92 715H595L584 650H372L334 405H481L471 344H324L271 0H191L244 344Z" />
<glyph unicode="&#x167;" glyph-name="tbar" horiz-adv-x="335" d="M201 -6Q162 -6 136 5T94 37T74 85T74 142L98 294H21L29 350H107L127 473H49L59 539H137L159 671H232L211 539H335L325 473H200L181 350H305L297 294H171L147 138Q140 93 155 75T209 57Q243 57
273 68L263 5Q250 -1 234 -3T201 -6Z" />
<glyph unicode="&#x168;" glyph-name="Utilde" horiz-adv-x="680" d="M317 -8Q181 -8 119 65T79 281L148 715H228L159 280Q140 161 181 110T321 58Q404 58 454 104T521 258L594 715H674L600 248Q591 189 570 142T514 61T430 10T317 -8ZM265 772Q276 826 303 855T369
884Q386 884 401 877T431 862T457 846T482 839Q496 839 509 851T528 886H584Q573 832 546 803T482 774Q464 774 448 781T418 796T392 812T368 819Q353 819 340 807T321 772H265V772Z" />
<glyph unicode="&#x169;" glyph-name="utilde" horiz-adv-x="589" d="M223 -9Q181 -9 148 4T95 45T67 115T69 216L121 539H195L140 195Q129 129 152 93T234 57Q269 57 301 68T358 101T400 154T423 225L474 539H547L488 160Q479 105 477 69T476 0H407Q405 24 406
53T412 110Q383 60 336 26T223 -9ZM412 618Q394 618 379 625T349 641T323 657T299 664Q284 664 271 652T252 617H196Q207 671 234 700T300 729Q317 729 332 722T362 707T388 691T413 684Q427 684 440 696T459 731H514Q504 677 477 648T412 618Z" />
<glyph unicode="&#x16a;" glyph-name="Umacron" horiz-adv-x="680" d="M317 -8Q181 -8 119 65T79 281L148 715H228L159 280Q140 161 181 110T321 58Q404 58 454 104T521 258L594 715H674L600 248Q591 189 570 142T514 61T430 10T317 -8ZM297 846H558L549 787H287L297
846Z" />
<glyph unicode="&#x16b;" glyph-name="umacron" horiz-adv-x="589" d="M223 -9Q181 -9 148 4T95 45T67 115T69 216L121 539H195L140 195Q129 129 152 93T234 57Q269 57 301 68T358 101T400 154T423 225L474 539H547L488 160Q479 105 477 69T476 0H407Q405 24 406
53T412 110Q383 60 336 26T223 -9ZM231 707H489L480 648H222L231 707Z" />
<glyph unicode="&#x16c;" glyph-name="Ubreve" horiz-adv-x="680" d="M317 -8Q181 -8 119 65T79 281L148 715H228L159 280Q140 161 181 110T321 58Q404 58 454 104T521 258L594 715H674L600 248Q591 189 570 142T514 61T430 10T317 -8ZM417 768Q362 768 326 803T290
898H351Q357 830 418 830Q483 830 495 898H555Q552 869 540 845T510 804T467 778T417 768Z" />
<glyph unicode="&#x16d;" glyph-name="ubreve" horiz-adv-x="589" d="M223 -9Q181 -9 148 4T95 45T67 115T69 216L121 539H195L140 195Q129 129 152 93T234 57Q269 57 301 68T358 101T400 154T423 225L474 539H547L488 160Q479 105 477 69T476 0H407Q405 24 406
53T412 110Q383 60 336 26T223 -9ZM354 618Q299 618 263 653T227 748H288Q296 681 355 681Q418 681 432 748H491Q488 719 476 695T446 654T404 628T354 618Z" />
<glyph unicode="&#x16e;" glyph-name="Uring" horiz-adv-x="680" d="M317 -8Q181 -8 119 65T79 281L148 715H228L159 280Q140 161 181 110T321 58Q404 58 454 104T521 258L594 715H674L600 248Q591 189 570 142T514 61T430 10T317 -8ZM424 780Q448 780 464 797T480
841Q480 867 466 882T428 898Q404 898 388 881T371 837Q371 812 385 796T424 780ZM424 737Q402 737 384 744T351 765T329 797T321 837Q321 859 329 878T352 911T386 933T428 941Q450 941 468 933T501 912T523 880T531 841Q531 819 523 800T500 767T466 745T424
737Z" />
<glyph unicode="&#x16f;" glyph-name="uring" horiz-adv-x="589" d="M223 -9Q181 -9 148 4T95 45T67 115T69 216L121 539H195L140 195Q129 129 152 93T234 57Q269 57 301 68T358 101T400 154T423 225L474 539H547L488 160Q479 105 477 69T476 0H407Q405 24 406
53T412 110Q383 60 336 26T223 -9ZM351 641Q375 641 391 658T408 703Q408 728 394 744T355 760Q331 760 315 743T298 699Q298 673 312 657T351 641ZM351 599Q329 599 311 606T278 627T256 659T248 699Q248 721 256 740T279 773T313 795T355 803Q377 803 395 795T428
774T450 742T458 703Q458 681 450 662T427 629T393 607T351 599Z" />
<glyph unicode="&#x170;" glyph-name="Uhungarumlaut" horiz-adv-x="680" d="M356 897H445L365 771H309L356 897ZM505 897H594L514 771H458L505 897ZM317 -8Q181 -8 119 65T79 281L148 715H228L159 280Q140 161 181 110T321 58Q404 58 454 104T521 258L594 715H674L600
248Q591 189 570 142T514 61T430 10T317 -8Z" />
<glyph unicode="&#x171;" glyph-name="uhungarumlaut" horiz-adv-x="589" d="M223 -9Q181 -9 148 4T95 45T67 115T69 216L121 539H195L140 195Q129 129 152 93T234 57Q269 57 301 68T358 101T400 154T423 225L474 539H547L488 160Q479 105 477 69T476 0H407Q405
24 406 53T412 110Q383 60 336 26T223 -9ZM303 758H391L303 611H247L303 758ZM452 758H540L452 611H396L452 758Z" />
<glyph unicode="&#x172;" glyph-name="Uogonek" horiz-adv-x="680" d="M332 -182Q292 -182 264 -163T236 -102Q236 -70 259 -47T309 -8Q177 -6 117 67T79 281L148 715H228L159 280Q140 161 181 110T321 58Q404 58 454 104T521 258L594 715H674L600 248Q586 161
547 101T445 16Q422 7 399 -3T355 -27T323 -56T310 -93Q310 -127 349 -127Q374 -127 397 -117L389 -171Q379 -175 366 -178T332 -182Z" />
<glyph unicode="&#x173;" glyph-name="uogonek" horiz-adv-x="589" d="M412 -182Q372 -182 344 -163T316 -102Q316 -67 343 -42T407 3Q405 26 406 54T412 110Q383 60 336 26T223 -9Q181 -9 148 4T95 45T67 115T69 216L121 539H195L140 195Q129 129 152 93T234
57Q269 57 301 68T358 101T400 154T423 225L474 539H547L488 160Q479 105 477 69T476 0Q464 -7 449 -16T421 -36T399 -62T390 -93Q390 -127 429 -127Q454 -127 477 -117L469 -171Q459 -175 446 -178T412 -182Z" />
<glyph unicode="&#x174;" glyph-name="Wcircumflex" horiz-adv-x="879" d="M493 897H562L654 771H600L521 834L426 771H368L493 897ZM87 715H167L224 121L483 715H535L614 119L857 715H933L636 0H561L487 573L233 0H161L87 715Z" />
<glyph unicode="&#x175;" glyph-name="wcircumflex" horiz-adv-x="769" d="M61 539H141L192 87L398 539H463L516 87L713 539H793L545 0H461L412 422L218 0H134L61 539ZM429 753H498L585 611H531L456 690L358 611H300L429 753Z" />
<glyph unicode="&#x176;" glyph-name="Ycircumflex" horiz-adv-x="575" d="M261 313L84 715H169L312 379L549 715H631L340 307L291 0H211L261 313ZM341 897H410L502 771H448L369 834L274 771H216L341 897Z" />
<glyph unicode="&#x177;" glyph-name="ycircumflex" horiz-adv-x="498" d="M185 61L57 539H132L233 141L445 539H526L125 -177H45L185 61ZM284 753H353L440 611H386L311 690L213 611H155L284 753Z" />
<glyph unicode="&#x178;" glyph-name="Ydieresis" horiz-adv-x="575" d="M261 313L84 715H169L312 379L549 715H631L340 307L291 0H211L261 313ZM274 789Q254 789 240 803T225 837Q225 857 240 872T275 887Q295 887 309 873T323 839Q323 819 309 804T274 789ZM472
789Q452 789 438 803T423 837Q423 857 438 872T473 887Q493 887 507 873T521 839Q521 819 507 804T472 789Z" />
<glyph unicode="&#x179;" glyph-name="Zacute" horiz-adv-x="580" d="M402 897H500L394 771H333L402 897ZM-19 13L492 652H118L128 715H616L614 703L112 65H507L497 0H-21L-19 13Z" />
<glyph unicode="&#x17a;" glyph-name="zacute" horiz-adv-x="472" d="M-25 11L362 475H76L87 539H491L488 523L112 68H416L405 0H-27L-25 11ZM335 758H434L315 611H254L335 758Z" />
<glyph unicode="&#x17b;" glyph-name="Zdotaccent" horiz-adv-x="580" d="M-19 13L492 652H118L128 715H616L614 703L112 65H507L497 0H-21L-19 13ZM375 787Q355 787 340 801T324 837Q324 858 339 873T376 889Q397 889 412 875T427 839Q427 818 412 803T375 787Z" />
<glyph unicode="&#x17c;" glyph-name="zdotaccent" horiz-adv-x="472" d="M-25 11L362 475H76L87 539H491L488 523L112 68H416L405 0H-27L-25 11ZM300 633Q280 633 265 647T249 683Q249 704 264 719T301 735Q322 735 337 721T352 685Q352 664 337 649T300 633Z" />
<glyph unicode="&#x17d;" glyph-name="Zcaron" horiz-adv-x="580" d="M239 897H293L371 834L466 897H524L400 771H330L239 897ZM-19 13L492 652H118L128 715H616L614 703L112 65H507L497 0H-21L-19 13Z" />
<glyph unicode="&#x17e;" glyph-name="zcaron" horiz-adv-x="472" d="M-25 11L362 475H76L87 539H491L488 523L112 68H416L405 0H-27L-25 11ZM170 755H224L299 676L397 755H455L326 613H257L170 755Z" />
<glyph unicode="&#x192;" glyph-name="florin" horiz-adv-x="390" d="M133 361H33L43 425H143L174 585Q188 662 230 704T341 746Q369 746 386 742T417 729L407 670Q394 676 379 679T341 683Q300 683 278 657T248 583L218 425H356L345 361H206L104 -187H29L133 361Z" />
<glyph unicode="&#x1fa;" glyph-name="Aringacute" horiz-adv-x="635" d="M337 715H442L575 0H497L459 209H158L53 0H-24L337 715ZM447 273L377 649L189 273H447ZM454 1108H552L446 982H385L454 1108ZM401 1048Q425 1048 441 1065T457 1109Q457 1135 443 1150T405
1166Q381 1166 365 1149T348 1105Q348 1080 362 1064T401 1048ZM401 1005Q379 1005 361 1012T328 1033T306 1065T298 1105Q298 1127 306 1146T329 1179T363 1201T405 1209Q427 1209 445 1201T478 1180T500 1148T508 1109Q508 1087 500 1068T477 1035T443 1013T401
1005Z" />
<glyph unicode="&#x1fb;" glyph-name="aringacute" horiz-adv-x="537" d="M200 -8Q116 -8 71 34T26 145Q26 194 47 227T103 279T186 307T284 315H391L398 357Q409 423 385 453T293 483Q238 483 204 460T158 382H82Q91 430 114 462T167 513T231 539T295 547Q338
547 374 537T434 503T469 443T471 352L441 160Q433 107 431 71T432 0H363Q361 23 361 46T362 87Q333 39 291 16T200 -8ZM204 53Q267 53 314 88T372 198L382 259H287Q191 259 145 234T98 142Q98 105 123 79T204 53ZM321 641Q345 641 361 658T378 703Q378 728 364
744T325 760Q301 760 285 743T268 699Q268 673 282 657T321 641ZM321 599Q299 599 281 606T248 627T226 659T218 699Q218 721 226 740T249 773T283 795T325 803Q347 803 365 795T398 774T420 742T428 703Q428 681 420 662T397 629T363 607T321 599ZM377 969H475L369
843H308L377 969Z" />
<glyph unicode="&#x1fc;" glyph-name="AEacute" horiz-adv-x="936" d="M726 897H824L718 771H657L726 897ZM446 715H949L938 650H607L568 399H838L828 333H557L515 65H869L858 0H425L457 210H199L64 0H-20L446 715ZM468 273L527 650H483L240 273H468Z" />
<glyph unicode="&#x1fd;" glyph-name="aeacute" horiz-adv-x="888" d="M199 -8Q114 -8 70 30T26 138Q26 187 47 221T105 277T190 308T290 318H393L399 357Q410 423 385 453T293 483Q239 483 204 460T158 382H83Q92 430 115 462T168 513T231 539T295 547Q357 547
401 526T463 455Q498 498 547 522T653 546Q707 546 748 529T816 479T851 394T850 274L847 257H460Q459 247 459 237T459 216Q459 139 492 98T606 56Q722 56 755 153H827Q803 70 743 31T604 -9Q526 -9 477 24T404 115Q372 55 319 24T199 -8ZM201 53Q267 53 314 88T373
197L383 257H287Q192 257 145 231T98 139Q98 102 123 78T201 53ZM782 318Q788 404 757 443T648 482Q618 482 590 473T539 444T497 393T469 318H782ZM539 758H638L519 611H458L539 758Z" />
<glyph unicode="&#x1fe;" glyph-name="Oslashacute" horiz-adv-x="799" d="M26 10L126 112Q95 154 79 204T62 314Q62 398 91 473T172 603T294 691T445 724Q510 724 562 705T654 654L738 741L778 700L694 614Q729 571 747 517T766 401Q766 313 737 238T657 108T537
22T389 -9Q320 -9 264 11T165 70L66 -31L26 10ZM605 604Q575 630 535 644T444 659Q375 659 320 632T226 557T166 447T145 314Q145 227 180 168L605 604ZM390 57Q455 57 509 83T602 155T662 264T684 401Q684 494 641 559L214 122Q246 90 291 74T390 57ZM502 897H600L494
771H433L502 897Z" />
<glyph unicode="&#x1ff;" glyph-name="oslashacute" horiz-adv-x="594" d="M6 0L81 80Q59 111 48 148T36 231Q36 298 58 355T118 455T208 522T319 546Q365 546 404 534T472 498L541 572L582 534L510 457Q557 398 557 311Q557 242 536 184T477 83T387 16T272 -8Q225
-8 188 5T120 41L47 -38L6 0ZM276 55Q323 55 360 74T424 127T463 207T477 308Q477 335 473 359T459 403L165 89Q203 55 276 55ZM425 448Q386 484 313 484Q269 484 232 465T169 412T129 332T114 231Q114 173 131 133L425 448ZM383 758H482L363 611H302L383 758Z"
/>
<glyph unicode="&#x218;" glyph-name="Scommaaccent" horiz-adv-x="607" d="M288 -9Q222 -9 173 9T91 58T42 129T25 215H104Q105 183 116 155T151 104T209 69T293 56Q375 55 420 94T466 202Q466 227 459 246T433 282T385 311T309 337Q258 352 220 368T155 406T115
457T102 527Q102 568 119 604T167 666T242 708T340 724Q442 724 504 675T569 531H495Q488 602 445 630T333 659Q254 659 216 623T178 530Q178 508 185 491T210 460T258 432T336 405Q389 389 428 372T494 332T532 280T545 210Q545 162 527 122T476 53T395 8T288
-9ZM255 -134Q234 -133 222 -121T209 -88Q209 -68 222 -56T256 -43Q279 -43 296 -60T306 -116L304 -128Q297 -170 268 -190T192 -213L197 -176Q249 -170 255 -134Z" />
<glyph unicode="&#x219;" glyph-name="scommaaccent" horiz-adv-x="480" d="M231 -9Q177 -9 139 5T75 44T37 100T24 165H97Q98 142 105 123T128 88T169 65T233 56Q293 56 321 80T349 150Q349 187 324 206T238 242Q193 254 162 268T111 300T84 341T75 394Q75 431
90 460T131 508T189 537T257 547Q334 547 385 511T442 394H373Q371 435 340 458T255 482Q202 482 174 460T145 398Q145 381 150 369T168 346T202 328T257 311Q296 301 326 289T378 258T410 215T421 153Q421 117 408 87T370 36T310 3T231 -9ZM167 -134Q146 -133
134 -121T121 -88Q121 -68 134 -56T168 -43Q191 -43 208 -60T218 -116L216 -128Q209 -170 180 -190T104 -213L109 -176Q161 -170 167 -134Z" />
<glyph unicode="&#x21a;" glyph-name="uni021A" horiz-adv-x="547" d="M211 -134Q190 -133 178 -121T165 -88Q165 -68 178 -56T212 -43Q235 -43 252 -60T262 -116L260 -128Q253 -170 224 -190T148 -213L153 -176Q205 -170 211 -134ZM292 650H81L92 715H595L584
650H372L271 0H191L292 650Z" />
<glyph unicode="&#x21b;" glyph-name="uni021B" horiz-adv-x="339" d="M203 -6Q164 -6 138 5T96 37T76 85T76 142L129 473H51L61 539H139L161 671H235L213 539H338L327 473H202L149 138Q142 93 157 75T211 57Q245 57 275 68L265 5Q252 -1 236 -3T203 -6ZM139 -134Q118
-133 106 -121T93 -88Q93 -68 106 -56T140 -43Q163 -43 180 -60T190 -116L188 -128Q181 -170 152 -190T76 -213L81 -176Q133 -170 139 -134Z" />
<glyph unicode="&#x237;" glyph-name="uni0237" horiz-adv-x="245" d="M-58 -123Q-10 -121 10 -99T37 -36L128 539H201L111 -40Q100 -110 58 -148T-68 -187L-58 -123Z" />
<glyph unicode="&#x2c6;" glyph-name="circumflex" horiz-adv-x="400" d="M241 753H310L397 611H343L268 690L170 611H112L241 753Z" />
<glyph unicode="&#x2c7;" glyph-name="caron" horiz-adv-x="400" d="M134 755H188L263 676L361 755H419L290 613H221L134 755Z" />
<glyph unicode="&#x2d8;" glyph-name="breve" horiz-adv-x="400" d="M267 618Q212 618 176 653T140 748H201Q209 681 268 681Q331 681 345 748H404Q401 719 389 695T359 654T317 628T267 618Z" />
<glyph unicode="&#x2d9;" glyph-name="dotaccent" horiz-adv-x="400" d="M265 633Q245 633 230 647T214 683Q214 704 229 719T266 735Q287 735 302 721T317 685Q317 664 302 649T265 633Z" />
<glyph unicode="&#x2da;" glyph-name="ring" horiz-adv-x="400" d="M267 641Q291 641 307 658T324 703Q324 728 310 744T271 760Q247 760 231 743T214 699Q214 673 228 657T267 641ZM267 599Q245 599 227 606T194 627T172 659T164 699Q164 721 172 740T195 773T229
795T271 803Q293 803 311 795T344 774T366 742T374 703Q374 681 366 662T343 629T309 607T267 599Z" />
<glyph unicode="&#x2db;" glyph-name="ogonek" horiz-adv-x="400" d="M159 -182Q119 -182 91 -163T63 -102Q63 -84 71 -69T92 -40T120 -18T151 0H224Q212 -7 197 -16T169 -36T146 -62T137 -93Q137 -127 176 -127Q201 -127 224 -117L216 -171Q206 -175 193 -178T159 -182Z" />
<glyph unicode="&#x2dc;" glyph-name="tilde" horiz-adv-x="400" d="M320 618Q302 618 287 625T257 641T231 657T207 664Q192 664 179 652T160 617H104Q115 671 142 700T208 729Q225 729 240 722T270 707T296 691T321 684Q335 684 348 696T367 731H422Q412 677
385 648T320 618Z" />
<glyph unicode="&#x2dd;" glyph-name="hungarumlaut" horiz-adv-x="400" d="M206 758H294L206 611H150L206 758ZM355 758H443L355 611H299L355 758Z" />
</font>
</defs>
</svg>
